<svg width="30" height="30" viewBox="0 0 30 30" fill="none" xmlns="http://www.w3.org/2000/svg">
<g opacity="0.298661">
<path d="M1.06055 16.0676C0.46966 16.0676 0 15.5829 0 14.9924C0 14.4018 0.46966 13.9324 1.06055 13.9324H13.9237V1.07524C13.9247 0.484671 14.4096 0 15.0005 0C15.5914 0 16.061 0.484671 16.061 1.07524V13.9324H28.9242C29.5151 13.9324 30 14.4018 30 14.9924C30 15.5829 29.5151 16.0676 28.9242 16.0676H16.061V28.9248C16.061 29.5153 15.5914 30 15.0005 30C14.4096 30 13.9247 29.5153 13.9247 28.9248V16.0676H1.06055Z" fill="#1E201D"/>
</g>
</svg>
