<svg width="25" height="27" viewBox="0 0 25 27" fill="none" xmlns="http://www.w3.org/2000/svg">
<path fill-rule="evenodd" clip-rule="evenodd" d="M24.9528 6.65095C24.9528 7.17189 24.5618 7.64151 24.0408 7.64151H23.3491V23.2076H24.0408C24.5618 23.2076 24.9528 23.5827 24.9528 24.1038V25.3302C24.9528 25.8511 24.5618 26.3208 24.0408 26.3208H1.02198C0.501033 26.3208 0.0471649 25.8511 0.0471649 25.3302V24.1038C0.0471649 23.5827 0.500938 23.2076 1.02198 23.2076H1.65094V7.64151H1.02198C0.501033 7.64151 0.0471649 7.17189 0.0471649 6.65095V5.42453C0.0471649 4.90359 0.501033 4.52831 1.02198 4.52831H7.21698V8.29963L12.5002 11.9646L17.783 8.29963V4.52831H24.0408C24.5618 4.52831 24.9528 4.90359 24.9528 5.42453V6.65095ZM8.63207 16.9811V23.2076H16.3679V16.9811H17.1226V15.4717H7.78301V16.9811H8.63207Z" fill="#EB5A47"/>
<path fill-rule="evenodd" clip-rule="evenodd" d="M12.453 10.2453L8.53773 7.55679V0.820283C8.53773 0.298962 9.0616 0 9.58302 0H15.517C16.0383 0 16.3679 0.298962 16.3679 0.820283V7.55679L12.453 10.2453ZM11.7258 3.62028L10.0752 3.88141L11.2574 5.06264L10.9952 6.7134L12.4843 5.95406L13.973 6.7134L13.7111 5.06264L14.8933 3.88141L13.2425 3.62028L12.4843 2.13094L11.7258 3.62028Z" fill="#EB5A47"/>
</svg>
