<svg width="10" height="10" viewBox="0 0 10 10" fill="none" xmlns="http://www.w3.org/2000/svg">
<path d="M0.105613 4.76949L5.03331 0.100268C5.10364 0.0335163 5.18475 0 5.27641 0C5.36796 0 5.44896 0.0335163 5.51944 0.100268L6.04821 0.601258C6.11869 0.668045 6.15387 0.744764 6.15387 0.831731C6.15387 0.918698 6.11869 0.995416 6.04821 1.0622L1.89249 5.00007L6.04817 8.93804C6.11865 9.00483 6.15383 9.08169 6.15383 9.16841C6.15383 9.25534 6.11865 9.3322 6.04817 9.39899L5.5194 9.89984C5.44896 9.96669 5.36796 10 5.27637 10C5.1846 10 5.1036 9.96662 5.03331 9.89984L0.105613 5.23058C0.0351706 5.16383 2.3365e-05 5.08693 2.3365e-05 5.00011C2.3365e-05 4.91328 0.0351706 4.83642 0.105613 4.76949Z" fill="white"/>
<path d="M3.84615 5.00011C3.84615 4.91328 3.88123 4.83638 3.95196 4.76949L8.8792 0.100268C8.94964 0.0335163 9.03075 0 9.12238 0C9.214 0 9.29515 0.0335163 9.36559 0.100268L9.89423 0.601293C9.96482 0.66808 10 0.744799 10 0.831766C10 0.918733 9.96482 0.995452 9.89423 1.06224L5.73873 5.00011L9.89423 8.93804C9.96482 9.00483 10 9.08169 10 9.16841C10 9.25534 9.96482 9.3322 9.89423 9.39899L9.36562 9.89984C9.29515 9.96669 9.21404 10 9.12241 10C9.03079 10 8.94968 9.96662 8.8792 9.89984L3.95196 5.23058C3.88123 5.16383 3.84615 5.08693 3.84615 5.00011Z" fill="white"/>
</svg>
