<svg width="51" height="51" viewBox="0 0 51 51" fill="none" xmlns="http://www.w3.org/2000/svg">
<path fill-rule="evenodd" clip-rule="evenodd" d="M30.9967 3.42746C35.5667 -1.14249 43.0026 -1.14249 47.5725 3.42746C52.1425 7.9974 52.1425 15.4333 47.5724 20.0034L42.7189 24.8568C40.8229 26.7529 38.3089 27.9482 35.6399 28.2228C35.2405 28.2638 34.8398 28.2842 34.4403 28.2842C32.4799 28.2843 30.5405 27.7941 28.8249 26.8625L26.8609 28.8264C27.9854 30.8974 28.468 33.2944 28.2207 35.6596C27.9425 38.3209 26.7478 40.8279 24.8569 42.7188L23.1723 44.4034C22.9779 44.5978 22.7229 44.6951 22.4681 44.6951C22.2132 44.6951 21.9583 44.5978 21.7638 44.4034C21.3749 44.0144 21.3749 43.3837 21.7638 42.9948L23.4484 41.3102C26.3456 38.413 27.077 33.9559 25.38 30.3073L23.6149 32.0725C24.5115 34.7403 23.8412 37.6676 21.8235 39.6853L16.9699 44.5388C15.5683 45.9404 13.7023 46.7123 11.7155 46.7123C9.72862 46.7123 7.86259 45.9404 6.46097 44.5388C5.05936 43.1373 4.28749 41.2713 4.28749 39.2845C4.28749 37.2977 5.05946 35.4316 6.46097 34.03L11.3145 29.1765C13.3394 27.1516 16.2802 26.4834 18.9556 27.3942L20.7186 25.6312C17.0642 23.9164 12.5995 24.6417 9.68968 27.5515L4.83616 32.4051C1.04285 36.1983 1.04285 42.3705 4.83616 46.1638C7.5391 48.8668 11.6008 49.7341 15.1838 48.3738C15.6979 48.1785 16.2731 48.437 16.4684 48.9513C16.6636 49.4655 16.405 50.0407 15.8908 50.2359C14.5367 50.75 13.1249 51 11.7254 51C8.66573 51 5.66201 49.8067 3.42747 47.5722C-1.14249 43.0022 -1.14249 35.5664 3.42747 30.9964L8.28109 26.1429C10.1806 24.2434 12.6996 23.0475 15.374 22.7756C17.7389 22.5352 20.1312 23.0235 22.1978 24.1519L24.1521 22.1976C23.0237 20.131 22.5354 17.7387 22.7758 15.3739C23.0477 12.6995 24.2437 10.1805 26.1431 8.28095L30.9967 3.42746ZM35.4387 7.86942L30.5851 12.7229C29.3544 13.9536 28.8088 15.6475 29.0414 17.3088L29.0646 17.2856C29.6881 16.662 30.5171 16.3186 31.3989 16.3186C32.2808 16.3186 33.1098 16.662 33.7334 17.2855C35.0205 18.5727 35.0205 20.6671 33.7334 21.9542L33.7306 21.957C35.3757 22.1645 37.0753 21.6167 38.2772 20.4148L43.1307 15.5613C44.156 14.5359 44.7207 13.17 44.7207 11.7153C44.7207 10.2606 44.156 8.89476 43.1307 7.86942C42.1052 6.84409 40.7393 6.27938 39.2847 6.27938C37.83 6.27938 36.4641 6.84409 35.4387 7.86942ZM30.4729 18.694C30.7202 18.4467 31.049 18.3104 31.3987 18.3104C31.7485 18.3104 32.0773 18.4467 32.3246 18.694C32.8351 19.2045 32.8351 20.0351 32.3246 20.5457L27.9595 24.9108C27.955 24.9153 27.9504 24.9197 27.9459 24.9244L26.8597 26.0106L25.6248 23.5422L30.4729 18.694ZM18.6942 32.3244C19.2046 32.835 20.0353 32.8351 20.5458 32.3244L25.3753 27.495L24.1403 25.0267L18.6942 30.4727C18.4469 30.72 18.3106 31.0489 18.3106 31.3986C18.3106 31.7483 18.4469 32.0771 18.6942 32.3244ZM20.415 38.2768L15.5614 43.1303C14.536 44.1556 13.1702 44.7203 11.7155 44.7203C10.2608 44.7203 8.8949 44.1556 7.86946 43.1303C6.84412 42.1049 6.27941 40.7391 6.27941 39.2844C6.27941 37.8297 6.84412 36.4638 7.86946 35.4384L12.7229 30.5849C13.9309 29.3769 15.6467 28.8291 17.3023 29.0473L17.2855 29.0642C16.6619 29.6877 16.3185 30.5167 16.3185 31.3985C16.3185 32.2803 16.6619 33.1093 17.2854 33.7329C17.929 34.3765 18.7744 34.6983 19.6198 34.6983C20.4652 34.6983 21.3105 34.3765 21.9541 33.7329L21.963 33.724C22.1839 35.3745 21.6377 37.0541 20.415 38.2768ZM41.3104 23.4482L46.1641 18.5947C49.9574 14.8014 49.9574 8.62924 46.1639 4.83604C42.3707 1.04274 36.1984 1.04274 32.4052 4.83604L27.5516 9.68953C24.6418 12.5992 23.9165 17.064 25.6313 20.7185L27.3943 18.9555C26.4836 16.2802 27.152 13.339 29.1765 11.3144L34.0301 6.46094C35.4317 5.05933 37.2977 4.28747 39.2846 4.28747C41.2714 4.28747 43.1374 5.05933 44.539 6.46094C45.9407 7.86245 46.7125 9.72847 46.7125 11.7153C46.7125 13.7021 45.9406 15.5682 44.539 16.9698L39.6855 21.8233C38.2705 23.2382 36.3511 23.9907 34.4098 23.9907C33.6241 23.9907 32.8351 23.8657 32.0741 23.6132L30.307 25.3803C33.9564 27.0788 38.4099 26.3488 41.3104 23.4482Z" fill="black"/>
<path d="M41.2477 38.134C41.1394 37.7868 40.8797 37.5265 40.56 37.4447C40.2404 37.3629 39.9059 37.4711 39.6741 37.7311L38.0504 39.553L36.8531 35.7164C36.679 35.1588 36.1351 34.8651 35.6384 35.0604C35.1415 35.2556 34.8799 35.8658 35.0538 36.4233L36.7523 41.8661C36.8606 42.2133 37.1203 42.4736 37.44 42.5555C37.7597 42.6375 38.0942 42.529 38.3259 42.269L39.9496 40.4471L41.1469 44.2836C41.2844 44.7243 41.6528 45 42.0466 45C42.151 45 42.2573 44.9805 42.3616 44.9396C42.8585 44.7444 43.1201 44.1342 42.9462 43.5767L41.2477 38.134Z" fill="#EB5A47"/>
<path d="M44.0014 30H39.9986C39.4471 30 39 30.4477 39 31C39 31.5523 39.4471 32 39.9986 32H44.0014C44.5529 32 45 31.5523 45 31C45 30.4477 44.5529 30 44.0014 30Z" fill="#EB5A47"/>
<path d="M31 39C30.4477 39 30 39.4471 30 39.9986V44.0014C30 44.5529 30.4477 45 31 45C31.5523 45 32 44.5529 32 44.0014V39.9986C32 39.4471 31.5523 39 31 39Z" fill="#EB5A47"/>
<path d="M7.71644 8.85305L11.553 10.0504L9.73105 11.674C9.47093 11.9058 9.3628 12.2404 9.44462 12.56C9.52644 12.8796 9.78677 13.1394 10.1339 13.2477L15.5767 14.9461C15.6936 14.9827 15.8128 15 15.9302 15C16.3719 15 16.7854 14.7542 16.9396 14.3616C17.1348 13.8647 16.8412 13.321 16.2837 13.1469L12.4471 11.9496L14.269 10.3259C14.5292 10.0941 14.6373 9.75954 14.5555 9.43993C14.4737 9.12033 14.2133 8.86058 13.8661 8.7523L8.42331 7.05381C7.86575 6.87985 7.25568 7.1416 7.06038 7.6384C6.86518 8.1353 7.15888 8.6791 7.71644 8.85305Z" fill="#EB5A47"/>
<path d="M20 13C20.5523 13 21 12.5529 21 12.0014V7.99857C21 7.44706 20.5523 7 20 7C19.4477 7 19 7.44706 19 7.99857V12.0014C19 12.5529 19.4477 13 20 13Z" fill="#EB5A47"/>
<path d="M7.99857 21H12.0014C12.5529 21 13 20.5523 13 20C13 19.4477 12.5529 19 12.0014 19H7.99857C7.44706 19 7 19.4477 7 20C7 20.5523 7.44706 21 7.99857 21Z" fill="#EB5A47"/>
<path d="M20 46C19.737 46 19.479 46.107 19.293 46.293C19.107 46.479 19 46.737 19 47C19 47.263 19.107 47.521 19.293 47.707C19.479 47.893 19.737 48 20 48C20.263 48 20.521 47.893 20.707 47.707C20.893 47.521 21 47.263 21 47C21 46.737 20.893 46.479 20.707 46.293C20.521 46.107 20.263 46 20 46Z" fill="#EB5A47"/>
</svg>
