<svg width="26" height="22" viewBox="0 0 26 22" fill="none" xmlns="http://www.w3.org/2000/svg">
<rect x="2.56348" y="0.196472" width="5.23789" height="1.94131" fill="black"/>
<path d="M12.4764 12.0363C12.4764 13.8972 11.0011 15.4038 9.18108 15.4038C7.35885 15.4038 5.88428 13.8972 5.88428 12.0363C5.88428 10.1799 7.35811 8.67102 9.18108 8.67102C11.0011 8.67178 12.4764 10.1799 12.4764 12.0363Z" fill="black"/>
<path fill-rule="evenodd" clip-rule="evenodd" d="M1.82223 2.7348H23.7261C24.7334 2.7348 25.5476 3.56549 25.5469 4.59494V19.4783C25.5469 20.5093 24.7327 21.3407 23.7261 21.3407H1.82223C0.818629 21.3407 0 20.5093 0 19.4783V4.59494C0 3.56549 0.818629 2.7348 1.82223 2.7348ZM22.7715 4.24446H20.5534C19.8915 4.24446 19.3566 4.79142 19.3566 5.4666C19.3566 6.13873 19.8915 6.6857 20.5534 6.6857H22.7715C23.4312 6.6857 23.9668 6.13949 23.9668 5.4666C23.9668 4.79142 23.4319 4.24446 22.7715 4.24446ZM9.25377 19.0952C5.43623 19.0952 2.34297 15.9363 2.34297 12.0378C2.34297 8.14073 5.43623 4.98032 9.25377 4.98032C13.0713 4.98032 16.1646 8.14073 16.1646 12.0378C16.1646 15.9363 13.0713 19.0952 9.25377 19.0952ZM21.6038 17.8033H24.1778V15.5123H21.6038V12.9041H19.3618V15.5123H16.7529V17.8033H19.3618V20.485H21.6038V17.8033Z" fill="black"/>
</svg>
