<svg width="26" height="25" viewBox="0 0 26 25" fill="none" xmlns="http://www.w3.org/2000/svg">
<path d="M7.4961 24.8575H1.38751C0.93306 24.8575 0.563629 24.4895 0.563629 24.0344V17.9178C0.563629 17.4625 0.93306 17.0939 1.38751 17.0939H7.4961C7.95308 17.0939 8.32111 17.4625 8.32111 17.9178V24.0344C8.32055 24.49 7.95308 24.8575 7.4961 24.8575Z" fill="black"/>
<path d="M7.4961 16.4536H1.38751C0.93306 16.4536 0.563629 16.0856 0.563629 15.6304V9.51234C0.563629 9.05739 0.93306 8.68878 1.38751 8.68878H7.4961C7.95308 8.68878 8.32111 9.05739 8.32111 9.51234V15.6304C8.32055 16.0856 7.95308 16.4536 7.4961 16.4536Z" fill="black"/>
<path d="M7.4961 7.76532H1.38751C0.93306 7.76532 0.563629 7.39726 0.563629 6.94212V0.823569C0.563629 0.368616 0.93306 4.96099e-07 1.38751 4.96099e-07H7.4961C7.95308 4.96099e-07 8.32111 0.368616 8.32111 0.823569V6.94212C8.32055 7.39726 7.95308 7.76532 7.4961 7.76532Z" fill="black"/>
<path d="M16.1185 25H10.0085C9.55405 25 9.18462 24.6314 9.18462 24.1763V18.0589C9.18462 17.6039 9.55405 17.2352 10.0085 17.2352H16.1185C16.5729 17.2352 16.9427 17.6039 16.9427 18.0589V24.1769C16.9415 24.6319 16.5729 25 16.1185 25Z" fill="black"/>
<path d="M16.1185 16.5961H10.0085C9.55405 16.5961 9.18462 16.2272 9.18462 15.7722V9.65549C9.18462 9.20054 9.55405 8.83192 10.0085 8.83192H16.1185C16.5729 8.83192 16.9427 9.20054 16.9427 9.65549V15.7722C16.9415 16.2272 16.5729 16.5961 16.1185 16.5961Z" fill="black"/>
<path d="M16.1185 7.90725H10.0085C9.55405 7.90725 9.18462 7.53873 9.18462 7.08368V0.966715C9.18462 0.511201 9.55405 0.143143 10.0085 0.143143H16.1185C16.5729 0.143143 16.9427 0.511201 16.9427 0.966715V7.08368C16.9415 7.53863 16.5729 7.90725 16.1185 7.90725Z" fill="black"/>
<path d="M24.7389 24.9995H18.6309C18.1764 24.9995 17.8067 24.6306 17.8067 24.1755V18.0589C17.8067 17.6033 18.1764 17.2353 18.6309 17.2353H24.7395C25.1939 17.2353 25.5636 17.6033 25.5636 18.0589V24.1755C25.5625 24.6314 25.1934 24.9995 24.7389 24.9995Z" fill="black"/>
<path d="M24.7389 16.5944H18.6309C18.1764 16.5944 17.8067 16.2261 17.8067 15.7705V9.6539C17.8067 9.19885 18.1764 8.8308 18.6309 8.8308H24.7395C25.1939 8.8308 25.5636 9.19876 25.5636 9.6539V15.7705C25.5625 16.2261 25.1934 16.5944 24.7389 16.5944Z" fill="black"/>
<path d="M24.7389 7.90669H18.6309C18.1764 7.90669 17.8067 7.53808 17.8067 7.08256V0.965596C17.8067 0.510643 18.1764 0.142495 18.6309 0.142495H24.7395C25.1939 0.142495 25.5636 0.51055 25.5636 0.965596V7.08256C25.5625 7.53798 25.1934 7.90669 24.7389 7.90669Z" fill="black"/>
</svg>
