<svg width="14" height="14" viewBox="0 0 14 14" fill="none" xmlns="http://www.w3.org/2000/svg">
<g opacity="0.499888">
<path d="M8.23317 6.99587L13.7352 1.49387C14.077 1.15233 14.077 0.598161 13.7352 0.256619C13.3933 -0.0852142 12.8397 -0.0852142 12.4979 0.256619L6.99592 5.75862L1.49363 0.256619C1.15179 -0.0852142 0.598208 -0.0852142 0.256375 0.256619C-0.0854583 0.598161 -0.0854583 1.15233 0.256375 1.49387L5.75867 6.99587L0.256375 12.4979C-0.0854583 12.8394 -0.0854583 13.3936 0.256375 13.7351C0.427292 13.9057 0.651292 13.9912 0.875 13.9912C1.09871 13.9912 1.32271 13.9057 1.49363 13.7348L6.99592 8.23283L12.4979 13.7348C12.6688 13.9057 12.8928 13.9912 13.1165 13.9912C13.3403 13.9912 13.5642 13.9057 13.7352 13.7348C14.077 13.3933 14.077 12.8391 13.7352 12.4976L8.23317 6.99587Z" fill="black"/>
</g>
</svg>
