<?xml version="1.0" encoding="utf-8" ?>
<svg xmlns="http://www.w3.org/2000/svg" xmlns:xlink="http://www.w3.org/1999/xlink" width="122" height="117">
	<defs>
		<clipPath id="clip_0">
			<rect x="-451" y="-363" width="1024" height="812" clip-rule="evenodd"/>
		</clipPath>
	</defs>
	<g clip-path="url(#clip_0)">
		<path fill="rgb(222,84,71)" stroke="none" transform="translate(23 0)" d="M76.2201 40.3144C82.1115 41.8511 88.3351 40.6773 92.7558 37.05C97.7763 32.9358 99.6858 26.2646 97.7042 19.3791C93.9635 22.6034 90.2233 25.8282 86.4827 29.0526C82.4024 27.3965 78.3559 25.7773 74.3431 24.196C73.1613 20.0405 71.9465 15.8478 70.6975 11.618C74.2635 8.20113 77.83 4.78427 81.396 1.367C74.749 -1.27779 67.937 -0.0213684 63.3629 4.58593C59.3298 8.64206 57.5595 14.7346 58.5138 20.7583C58.9276 23.345 58.105 25.8792 56.3355 27.5602C51.2 33.3697 46.04 39.152 40.8554 44.9076C38.9905 46.6625 36.4371 47.4413 33.9663 47.0413C33.4683 46.9603 32.9715 46.8805 32.4756 46.8012C27.3168 45.9706 22.1539 47.9745 18.6079 52.0106C12.2614 60.1805 7.92272 66.3828 1.43329 74.3953C0.806517 75.0855 0.676078 76.078 1.12949 76.7031C1.40245 77.0814 1.82252 77.2906 2.3101 77.2923C2.79144 77.2944 3.28194 77.0864 3.65533 76.7198C9.61884 70.3805 13.4803 65.9047 19.3976 59.514C20.1115 58.8055 21.1575 58.6292 21.9434 59.0865C22.5827 59.4593 22.9573 60.1483 22.9236 60.9329C22.8982 61.5221 22.6015 62.082 22.1756 62.5067C14.3401 70.6072 8.55241 76.7829 0.653991 84.8137C0.00221398 85.4563 -0.214489 86.4397 0.243505 87.0698C0.772344 87.7984 1.89003 87.7963 2.65183 87.0986C11.0082 79.2761 17.2785 73.3355 25.6203 65.4964C26.5896 64.6032 28.0511 64.5782 28.8775 65.4425C29.7343 66.4375 29.5681 67.8927 28.5862 68.7725C19.986 76.3256 13.4724 81.9977 4.88762 89.5684C4.12083 90.2599 4.01039 91.3743 4.68259 91.9727C5.26477 92.4909 6.26202 92.3702 6.96339 91.7827C15.7111 84.6893 22.411 79.5208 31.2217 72.4983C31.6851 72.115 32.2702 71.8733 32.8578 71.905C33.64 71.9476 34.2876 72.3881 34.5964 73.0616C34.9748 73.8901 34.6977 74.916 33.9246 75.559C27.0022 80.8394 22.1814 84.2554 15.3048 89.5868C14.9043 89.9233 14.6501 90.3927 14.6055 90.8724C14.5601 91.3589 14.7272 91.7986 15.076 92.1071C15.6532 92.6199 16.6513 92.5861 17.3981 92.0282C25.9879 86.3353 32.5694 82.6107 41.3013 77.0752C45.6549 73.931 48.1466 68.9771 47.8228 63.7522C47.792 63.2495 47.7607 62.7463 47.729 62.2424C47.5715 59.7391 48.5934 57.2684 50.5174 55.579C56.7381 50.9679 62.9833 46.384 69.2523 41.8264C71.0938 40.2251 73.6909 39.6514 76.2201 40.3144Z"/>
	</g>
	<defs>
		<clipPath id="clip_1">
			<rect x="-451" y="-363" width="1024" height="812" clip-rule="evenodd"/>
		</clipPath>
	</defs>
	<g clip-path="url(#clip_1)">
		<path fill="rgb(222,84,71)" stroke="none" transform="translate(0 1)" d="M109.572 43.6165C107.694 44.0487 106.441 45.8409 106.823 47.7328C107.472 50.9455 107.817 54.2663 107.817 57.6677C107.817 86.2339 83.9557 109.322 55.1542 107.972C29.4298 106.767 8.55335 85.8502 7.34898 60.0753C6 31.2164 29.0435 7.3068 57.5546 7.3068C62.7296 7.3068 67.72 8.10307 72.4196 9.56869C74.267 10.1445 76.184 9.09811 76.8099 7.26379C76.8178 7.24082 76.8257 7.21744 76.8337 7.19447C77.4963 5.27163 76.4973 3.18678 74.5583 2.583C69.1819 0.909017 63.4735 0 57.5546 0C24.907 0 -1.47876 27.377 0.0644142 60.4227C1.44256 89.9372 25.3474 113.889 54.8041 115.271C87.7851 116.818 115.11 90.3798 115.11 57.6677C115.11 53.799 114.72 50.021 113.988 46.3653C113.587 44.3631 111.631 43.1364 109.646 43.5994C109.621 43.6053 109.596 43.6111 109.572 43.6165"/>
	</g>

</svg>