<svg width="26" height="26" viewBox="0 0 26 26" fill="none" xmlns="http://www.w3.org/2000/svg">
<path d="M11.348 13.7912C15.1547 13.7912 18.2425 10.7024 18.2425 6.89945C18.2425 3.08942 15.1553 0 11.348 0C7.53854 0 4.45508 3.08999 4.45508 6.89945C4.45508 10.7024 7.53797 13.7912 11.348 13.7912Z" fill="black"/>
<path d="M20.0619 15.6835C19.6978 14.9037 19.2391 14.1195 18.6533 13.3712C18.3381 12.9702 17.7632 12.53 17.2073 12.2285C15.7661 13.8435 13.6771 14.8663 11.3479 14.8663C9.02039 14.8663 6.93196 13.8435 5.49241 12.2322C4.949 12.5409 4.38923 12.9811 4.0844 13.381C3.09533 14.6717 1.56883 17.1731 1.32537 20.544C1.27428 21.2554 1.61288 22.3417 2.20737 22.7564C3.33555 23.546 5.76899 24.5562 10.836 24.5562C12.5902 24.5562 14.0683 24.4481 15.3177 24.2796C14.8134 23.4292 14.5183 22.4401 14.5183 21.3815C14.5177 18.2898 16.9909 15.7705 20.0619 15.6835Z" fill="black"/>
<path d="M20.0616 16.7617C17.5106 16.7617 15.4424 18.83 15.4424 21.3808C15.4424 23.9317 17.5107 25.9999 20.0616 25.9999C22.6124 25.9999 24.6807 23.9316 24.6807 21.3808C24.6807 18.83 22.6129 16.7617 20.0616 16.7617ZM22.3418 22.2308H20.5599V24.0132C20.5599 24.3083 20.3202 24.5474 20.0252 24.5474C19.7301 24.5474 19.4904 24.3083 19.4904 24.0132V22.2313L17.7086 22.2308C17.4129 22.2313 17.1738 21.9923 17.1744 21.6971C17.1744 21.4015 17.4135 21.1624 17.7086 21.1624H19.491V19.3805C19.491 19.0854 19.7301 18.8463 20.0252 18.8468C20.3197 18.8468 20.5593 19.0854 20.5599 19.381V21.1624H22.3413C22.6363 21.1624 22.8755 21.4015 22.876 21.6971C22.876 21.9917 22.6368 22.2308 22.3418 22.2308Z" fill="black"/>
</svg>
