<?xml version="1.0" encoding="utf-8" ?>
<svg xmlns="http://www.w3.org/2000/svg" xmlns:xlink="http://www.w3.org/1999/xlink" width="26" height="26">
	<defs>
		<clipPath id="clip_0">
			<rect x="-952" y="-192" width="1024" height="689" clip-rule="evenodd"/>
		</clipPath>
	</defs>
	<g clip-path="url(#clip_0)">
		<path fill="rgb(0,0,0)" stroke="none" d="M13 26C20.1797 26 26 20.1797 26 13C26 5.8203 20.1797 0 13 0C5.8203 0 0 5.8203 0 13C0 20.1797 5.8203 26 13 26Z"/>
	</g>
	<defs>
		<clipPath id="clip_1">
			<rect x="-952" y="-192" width="1024" height="689" clip-rule="evenodd"/>
		</clipPath>
	</defs>
	<g clip-path="url(#clip_1)">
		<path fill="rgb(255,255,255)" stroke="none" transform="translate(7 7)" d="M7.47696 0.77673C8.50992 -0.25891 10.1898 -0.25891 11.2227 0.77673C11.7239 1.27537 12 1.94023 12 2.64855C12 3.35688 11.7239 4.02174 11.2227 4.52293L4.35507 11.3888C4.29115 11.4553 4.20166 11.4911 4.11217 11.4911C4.02268 11.4911 3.93319 11.4528 3.86927 11.3888L1.10278 8.62202L0.74738 11.2508L2.56784 11.0053C2.75705 10.9797 2.93091 11.1127 2.95648 11.3019C2.98205 11.4911 2.8491 11.665 2.65989 11.6906L0.389423 11.9974C0.374082 12 0.358741 12 0.3434 12C0.253911 12 0.164422 11.9616 0.100501 11.8977C0.026353 11.8236 -0.0119995 11.7162 0.00334149 11.6088L0.512151 7.83954C0.522379 7.76538 0.555617 7.69634 0.609311 7.64264L7.47696 0.77673ZM8.10339 1.13729L10.8622 3.89644C11.1511 3.54611 11.3097 3.1114 11.3097 2.64855C11.3097 2.12434 11.1077 1.63081 10.7369 1.26259C10.3662 0.894358 9.87527 0.689787 9.35112 0.689787C8.89089 0.689787 8.45367 0.84833 8.10339 1.13729ZM8.76305 2.77385L7.60992 1.62058L1.34312 7.88812L2.49625 9.04139L8.76305 2.77385ZM4.11473 10.6575L2.98717 9.52981L9.25396 3.26227L10.3815 4.38996L4.11473 10.6575Z" fill-rule="evenodd"/>
	</g>

</svg>