<svg width="40" height="22" viewBox="0 0 40 22" fill="none" xmlns="http://www.w3.org/2000/svg">
<path d="M39.7013 10.2184C39.3443 9.82008 30.7565 0.453194 20.0002 0.453194C9.24381 0.453194 0.65606 9.82008 0.298953 10.2184C-0.0993255 10.6635 -0.0993255 11.3365 0.298953 11.7816C0.65606 12.1799 9.24397 21.5468 20.0002 21.5468C30.7563 21.5468 39.3442 12.1799 39.7013 11.7816C40.0995 11.3365 40.0995 10.6635 39.7013 10.2184ZM20.0002 19.2031C15.4774 19.2031 11.7971 15.5227 11.7971 11C11.7971 6.47729 15.4774 2.79693 20.0002 2.79693C24.5229 2.79693 28.2032 6.47729 28.2032 11C28.2032 15.5227 24.5229 19.2031 20.0002 19.2031Z" fill="black"/>
<path d="M21.172 8.65627C21.172 7.47737 21.7572 6.44026 22.6476 5.80238C21.8487 5.3934 20.9576 5.14066 20.0002 5.14066C16.7695 5.14066 14.1408 7.76932 14.1408 11C14.1408 14.2307 16.7695 16.8593 20.0002 16.8593C22.8926 16.8593 25.2867 14.7473 25.7596 11.9876C23.3998 12.7474 21.172 10.9627 21.172 8.65627Z" fill="black"/>
</svg>
