<svg width="33" height="33" viewBox="0 0 33 33" fill="none" xmlns="http://www.w3.org/2000/svg">
<g clip-path="url(#clip0)">
<path d="M23.6497 19.8H9.34978C9.04621 19.8 8.7998 20.0458 8.7998 20.35V32.45C8.7998 32.7541 9.04621 32.9999 9.34978 32.9999H23.6498C23.954 32.9999 24.1998 32.7541 24.1998 32.45V20.35C24.1998 20.0458 23.9539 19.8 23.6497 19.8ZM23.0998 31.9H9.89976V20.9H23.0998V31.9Z" fill="white"/>
<path d="M23.6497 19.8H9.34978C9.04621 19.8 8.7998 20.0458 8.7998 20.35V32.45C8.7998 32.7541 9.04621 32.9999 9.34978 32.9999H23.6498C23.954 32.9999 24.1998 32.7541 24.1998 32.45V20.35C24.1998 20.0458 23.9539 19.8 23.6497 19.8ZM23.0998 31.9H9.89976V20.9H23.0998V31.9Z" fill="white"/>
<path d="M9.35002 19.8H0.549978C0.246404 19.8 0 20.0458 0 20.35V32.45C0 32.7542 0.246404 33 0.549978 33H9.34996C9.65353 33 9.89994 32.7542 9.89994 32.45V20.35C9.9 20.0458 9.6536 19.8 9.35002 19.8ZM8.79998 31.9H1.10002V20.9H8.80004V31.9H8.79998Z" fill="white"/>
<path d="M32.4501 19.8H23.6501C23.3459 19.8 23.1001 20.0458 23.1001 20.35V32.45C23.1001 32.7541 23.3459 32.9999 23.6501 32.9999H32.4501C32.7542 32.9999 33 32.7541 33 32.45V20.35C33.0001 20.0458 32.7543 19.8 32.4501 19.8ZM31.9001 31.9H24.2001V20.9H31.9001V31.9H31.9001Z" fill="white"/>
<path d="M21.45 24.2H11.55C11.2464 24.2 11 24.4458 11 24.75V30.25C11 30.5541 11.2464 30.7999 11.55 30.7999H21.45C21.7541 30.7999 22 30.5541 22 30.25V24.75C22 24.4458 21.7541 24.2 21.45 24.2ZM20.9 29.7H12.1V25.3H20.8999V29.7H20.9Z" fill="white"/>
<path d="M18.1498 22H17.0498V23.1H18.1498V22Z" fill="white"/>
<path d="M15.9501 22H14.8501V23.1H15.9501V22Z" fill="white"/>
<path d="M13.7504 22H12.6504V23.1H13.7504V22Z" fill="white"/>
<path d="M20.35 22H19.25V23.1H20.35V22Z" fill="white"/>
<path d="M9.34978 24.2H0.549805V25.3H9.34978V24.2Z" fill="white"/>
<path d="M6.04959 22H3.84961V23.1H6.04959V22Z" fill="white"/>
<path d="M6.04959 26.4H3.84961V27.5H6.04959V26.4Z" fill="white"/>
<path d="M32.4499 24.2H23.6499V25.3H32.4499V24.2Z" fill="white"/>
<path d="M28.6 24.75H27.5V32.45H28.6V24.75Z" fill="white"/>
<path d="M29.1497 22H26.9497V23.1H29.1497V22Z" fill="white"/>
<path d="M26.3998 27.5H25.2998V29.15H26.3998V27.5Z" fill="white"/>
<path d="M30.8002 27.5H29.7002V29.15H30.8002V27.5Z" fill="white"/>
<path d="M23.489 8.96118L21.4502 6.92233V0.549978C21.4502 0.246404 21.2044 0 20.9002 0H12.1002C11.7966 0 11.5502 0.246404 11.5502 0.549978V6.92227L9.51135 8.96111C9.35402 9.11838 9.30678 9.35492 9.39198 9.56059C9.47726 9.76574 9.67796 9.89994 9.9002 9.89994H23.1002C23.3224 9.89994 23.5237 9.76574 23.6084 9.56059C23.6936 9.35492 23.6464 9.11844 23.489 8.96118ZM11.2279 8.79998L12.489 7.53882C12.5924 7.43596 12.6502 7.29571 12.6502 7.14998V1.10002H20.3502V7.15004C20.3502 7.29577 20.4079 7.43602 20.5113 7.53889L21.7725 8.80004H11.2279V8.79998Z" fill="white"/>
<path d="M29.7 12.1C28.4866 12.1 27.5 13.0867 27.5 14.3V14.8499H28.6V14.3C28.6 13.6933 29.0933 13.1999 29.7 13.1999C30.3067 13.1999 30.8001 13.6933 30.8001 14.3V20.35H31.9001V14.3C31.9 13.0867 30.9133 12.1 29.7 12.1Z" fill="white"/>
<path d="M31.3502 17.6H29.7002V18.7H31.3502V17.6Z" fill="white"/>
<path d="M15.9499 16.5H10.4499C10.1463 16.5 9.8999 16.7458 9.8999 17.05V20.35C9.8999 20.6541 10.1463 20.9 10.4499 20.9H15.9499C16.2534 20.9 16.4998 20.6541 16.4998 20.35V17.05C16.4998 16.7458 16.2534 16.5 15.9499 16.5ZM15.3998 19.8H10.9998V17.6H15.3998V19.8Z" fill="white"/>
<path d="M10.4498 17.6H8.7998V18.7H10.4498V17.6Z" fill="white"/>
<path d="M17.6002 17.6H15.9502V18.7H17.6002V17.6Z" fill="white"/>
<path d="M9.35002 0H0.549978C0.246404 0 0 0.246404 0 0.549978V7.14998C0 7.45355 0.246404 7.69996 0.549978 7.69996H9.34996C9.65353 7.69996 9.89994 7.45355 9.89994 7.14998V0.549978C9.9 0.246404 9.6536 0 9.35002 0ZM8.79998 6.6H1.10002V1.10002H8.80004V6.6H8.79998Z" fill="white"/>
<path d="M7.70012 3.3H6.6001V5.49998H7.70012V3.3Z" fill="white"/>
<path d="M32.4501 0H23.6501C23.3459 0 23.1001 0.246404 23.1001 0.549978V7.14998C23.1001 7.45355 23.3459 7.69996 23.6501 7.69996H32.4501C32.7542 7.69996 33 7.45355 33 7.14998V0.549978C33.0001 0.246404 32.7543 0 32.4501 0ZM31.9001 6.6H24.2001V1.10002H31.9001V6.6H31.9001Z" fill="white"/>
<path d="M26.3998 3.3H25.2998V5.49998H26.3998V3.3Z" fill="white"/>
<path d="M9.9 11H0V12.1001H9.9V11Z" fill="white"/>
<path d="M2.20012 9.89999H1.1001V14.85H2.20012V9.89999Z" fill="white"/>
<path d="M1.65 14.3C0.740309 14.3 0 15.0403 0 15.95C0 16.8597 0.740309 17.6 1.65 17.6C2.55969 17.6 3.3 16.8597 3.3 15.95C3.3 15.0403 2.55969 14.3 1.65 14.3ZM1.65 16.5C1.34694 16.5 1.10002 16.2531 1.10002 15.95C1.10002 15.647 1.34694 15.4 1.65 15.4C1.95306 15.4 2.19998 15.647 2.19998 15.95C2.19998 16.2531 1.95306 16.5 1.65 16.5Z" fill="white"/>
<path d="M4.39983 9.89999H3.2998V14.85H4.39983V9.89999Z" fill="white"/>
<path d="M3.84971 14.3C2.94002 14.3 2.19971 15.0403 2.19971 15.95C2.19971 16.8597 2.94002 17.6 3.84971 17.6C4.7594 17.6 5.49971 16.8597 5.49971 15.95C5.49971 15.0403 4.7594 14.3 3.84971 14.3ZM3.84971 16.5C3.54665 16.5 3.29973 16.2531 3.29973 15.95C3.29973 15.647 3.54665 15.4 3.84971 15.4C4.15277 15.4 4.39969 15.647 4.39969 15.95C4.39975 16.2531 4.15277 16.5 3.84971 16.5Z" fill="white"/>
<path d="M6.60002 9.89999H5.5V14.85H6.60002V9.89999Z" fill="white"/>
<path d="M6.05039 14.3C5.1407 14.3 4.40039 15.0403 4.40039 15.95C4.40039 16.8597 5.1407 17.6 6.05039 17.6C6.96008 17.6 7.70039 16.8597 7.70039 15.95C7.70039 15.0403 6.96008 14.3 6.05039 14.3ZM6.05039 16.5C5.74733 16.5 5.50041 16.2531 5.50041 15.95C5.50041 15.647 5.74733 15.4 6.05039 15.4C6.35345 15.4 6.60037 15.647 6.60037 15.95C6.60037 16.2531 6.35345 16.5 6.05039 16.5Z" fill="white"/>
</g>
<defs>
<clipPath id="clip0">
<rect width="33" height="33" fill="white"/>
</clipPath>
</defs>
</svg>
