<svg width="24" height="26" viewBox="0 0 24 26" fill="none" xmlns="http://www.w3.org/2000/svg">
<path fill-rule="evenodd" clip-rule="evenodd" d="M24 6.32997C24 6.82577 23.6232 7.27273 23.1212 7.27273H22.4545V22.0875H23.1212C23.6232 22.0875 24 22.4446 24 22.9405V24.1077C24 24.6035 23.6232 25.0505 23.1212 25.0505H0.939364C0.437364 25.0505 0 24.6035 0 24.1077V22.9405C0 22.4446 0.437273 22.0875 0.939364 22.0875H1.54545V7.27273H0.939364C0.437364 7.27273 0 6.82577 0 6.32997V5.16274C0 4.66694 0.437364 4.30976 0.939364 4.30976H6.90909V7.89908L12.0002 11.3872L17.0909 7.89908V4.30976H23.1212C23.6232 4.30976 24 4.66694 24 5.16274V6.32997ZM8.27287 16.1616V22.0875H15.7274V16.1616H16.4547V14.725H7.45469V16.1616H8.27287Z" fill="black"/>
<path fill-rule="evenodd" clip-rule="evenodd" d="M11.9545 9.75084L8.18164 7.1921V0.780696C8.18164 0.284534 8.68646 0 9.18891 0H14.9071C15.4095 0 15.7271 0.284534 15.7271 0.780696V7.1921L11.9545 9.75084ZM11.2536 3.44557L9.66303 3.6941L10.8022 4.81832L10.5496 6.3894L11.9846 5.66671L13.4191 6.3894L13.1668 4.81832L14.3059 3.6941L12.7151 3.44557L11.9846 2.0281L11.2536 3.44557Z" fill="black"/>
</svg>
