<svg width="26" height="26" viewBox="0 0 26 26" fill="none" xmlns="http://www.w3.org/2000/svg">
<path fill-rule="evenodd" clip-rule="evenodd" d="M22.1924 3.8076C20.9798 2.595 19.5641 1.64781 17.9841 0.991821C16.4043 0.336227 14.7337 0.00257873 13.0192 0H13C9.52763 0 5.76724 1.52344 3.26428 4.38504C1.15924 6.75748 0 9.81705 0 13C0 15.2826 0.593704 17.5144 1.71902 19.47L0.764297 23.2822C0.629211 23.8235 0.778381 24.3883 1.16599 24.7939C1.68134 25.3311 2.28416 25.3311 2.70509 25.2331L6.77414 24.4186C8.66792 25.4535 10.8158 26 13 26C16.1839 26 19.2435 24.8408 21.615 22.7363C24.8187 19.6194 26 16.473 26 13C26 9.52763 24.6478 6.26335 22.1924 3.8076ZM18.8763 11.5511H16.8935L16.1016 14.3802H17.9623C18.3834 14.3802 18.724 14.7214 18.724 15.1419C18.724 15.5625 18.3834 15.9037 17.9623 15.9037H15.6751L14.9114 18.6316C14.817 18.9684 14.4681 19.2802 13.9724 19.1598C13.5673 19.0465 13.3307 18.626 13.4443 18.2213L14.0928 15.9037H10.0918L9.3255 18.6407C9.23108 18.9775 8.84665 19.2802 8.38644 19.1689C7.98138 19.0557 7.74474 18.6351 7.8584 18.2305L8.50943 15.9037H7.08041C6.65948 15.9037 6.3187 15.5625 6.3187 15.1419C6.3187 14.7214 6.65948 14.3802 7.08041 14.3802H8.93591L9.72818 11.5511H7.99448C7.57355 11.5511 7.23276 11.2106 7.23276 10.7894C7.23276 10.3691 7.57355 10.0277 7.99448 10.0277H10.1547L10.9053 7.34801C11.0185 6.94275 11.4391 6.7061 11.8437 6.81996C12.249 6.93323 12.4856 7.35356 12.3724 7.75842L11.7366 10.0277H15.7382L16.4912 7.33888C16.6045 6.93362 17.025 6.69698 17.4297 6.81084C17.8349 6.9241 18.0716 7.34444 17.9583 7.7493L17.32 10.0277H18.8763C19.2975 10.0277 19.6381 10.3691 19.6381 10.7894C19.6381 11.2106 19.2975 11.5511 18.8763 11.5511ZM14.5195 14.3802H10.5183L11.3099 11.5511H15.3115L14.5195 14.3802Z" fill="black"/>
</svg>
