<svg width="26" height="26" viewBox="0 0 26 26" fill="none" xmlns="http://www.w3.org/2000/svg">
<path d="M13 0C12.579 0 12.2383 0.340691 12.2383 0.761719C12.2383 1.18275 12.579 1.52344 13 1.52344C19.3005 1.52344 24.4766 6.69947 24.4766 13C24.4766 19.3005 19.3005 24.4766 13 24.4766C6.69947 24.4766 1.52344 19.3005 1.52344 13C1.52344 9.93703 2.86411 7.00268 5.02734 4.86733V6.14453C5.02734 6.56556 5.36804 6.90625 5.78906 6.90625C6.21009 6.90625 6.55078 6.56556 6.55078 6.14453V3.09766C6.55078 2.67663 6.1847 2.33594 5.76367 2.33594H2.7168C2.29577 2.33594 1.95508 2.67663 1.95508 3.09766C1.95508 3.51868 2.29577 3.8543 2.7168 3.8543H3.86252C1.45707 6.26742 0 9.56363 0 13C0 20.1404 5.85965 26 13 26C20.1404 26 26 20.1404 26 13C26 5.85965 20.1404 0 13 0Z" fill="black"/>
<path fill-rule="evenodd" clip-rule="evenodd" d="M19.6303 12.7292C19.6303 13.153 19.9732 13.496 20.3971 13.496H21.125C20.9663 15.2464 20.2733 16.844 19.207 18.1225L18.6934 17.6089C18.3937 17.3093 17.9086 17.3093 17.609 17.6089C17.3093 17.9086 17.3093 18.3937 17.609 18.6934L18.1226 19.207C16.8441 20.2733 15.2464 20.9663 13.496 21.125V20.3971C13.496 19.9732 13.153 19.6303 12.7292 19.6303C12.3053 19.6303 11.9624 19.9732 11.9624 20.3971V21.125C10.212 20.9663 8.61423 20.2733 7.33573 19.207L7.84933 18.6934C8.14904 18.3937 8.14904 17.9086 7.84933 17.6089C7.54972 17.3093 7.06465 17.3093 6.76494 17.6089L6.25134 18.1225C5.18504 16.844 4.49207 15.2464 4.33334 13.496H5.06128C5.48511 13.496 5.82807 13.153 5.82807 12.7292C5.82807 12.3053 5.48511 11.9624 5.06128 11.9624H4.33334C4.49207 10.212 5.18504 8.61423 6.25134 7.33573L6.76494 7.84933C7.06465 8.14904 7.54972 8.14904 7.84933 7.84933C8.14904 7.54962 8.14904 7.06465 7.84933 6.76494L7.33573 6.25134C8.61423 5.18504 10.2119 4.49207 11.9624 4.33334V5.06128C11.9624 5.48511 12.3053 5.82807 12.7292 5.82807C13.153 5.82807 13.496 5.48511 13.496 5.06128V4.33334C15.2464 4.49207 16.8441 5.18504 18.1226 6.25134L17.609 6.76494C17.3093 7.06465 17.3093 7.54962 17.609 7.84933C17.9086 8.14904 18.3937 8.14904 18.6934 7.84933L19.207 7.33573C20.2733 8.61423 20.9663 10.2119 21.125 11.9624H20.3971C19.9732 11.9624 19.6303 12.3053 19.6303 12.7292ZM13.7206 14.8049C14.0201 15.1044 14.5053 15.1044 14.8049 14.8049C15.1044 14.5054 15.1044 14.0201 14.8049 13.7206L13.496 12.4117V9.66202C13.496 9.23819 13.153 8.89523 12.7292 8.89523C12.3053 8.89523 11.9624 9.23819 11.9624 9.66202V12.7292C11.9624 12.9328 12.0433 13.1275 12.187 13.2713L13.7206 14.8049Z" fill="black"/>
</svg>
