<svg width="16" height="16" viewBox="0 0 16 16" fill="none" xmlns="http://www.w3.org/2000/svg">
<path fill-rule="evenodd" clip-rule="evenodd" d="M8 16C12.4183 16 16 12.4183 16 8C16 3.58172 12.4183 0 8 0C3.58172 0 0 3.58172 0 8C0 12.4183 3.58172 16 8 16Z" fill="black"/>
<mask id="mask0" mask-type="alpha" maskUnits="userSpaceOnUse" x="0" y="0" width="16" height="16">
<path fill-rule="evenodd" clip-rule="evenodd" d="M8 16C12.4183 16 16 12.4183 16 8C16 3.58172 12.4183 0 8 0C3.58172 0 0 3.58172 0 8C0 12.4183 3.58172 16 8 16Z" fill="white"/>
</mask>
<g mask="url(#mask0)">
<path fill-rule="evenodd" clip-rule="evenodd" d="M9.96263 10.3272C10.8113 10.6201 11.5891 11.1039 12.2427 11.7573C13.3759 12.8906 14 14.3973 14 16H13.0625C13.0625 13.2085 10.7915 10.9375 8 10.9375C5.20852 10.9375 2.9375 13.2085 2.9375 16H2C2 14.3973 2.62412 12.8906 3.75737 11.7573C4.41087 11.1039 5.18872 10.6201 6.03739 10.3272C5.12841 9.7012 4.53125 8.65347 4.53125 7.46875C4.53125 5.55609 6.08734 4 8 4C9.91266 4 11.4688 5.55609 11.4688 7.46875C11.4688 8.65347 10.8716 9.7012 9.96263 10.3272ZM5.52941 7.17647C5.52941 8.53877 6.63772 9.64706 8 9.64706C9.36228 9.64706 10.4706 8.53877 10.4706 7.17647C10.4706 5.81417 9.36228 4.70588 8 4.70588C6.63772 4.70588 5.52941 5.81417 5.52941 7.17647Z" fill="white"/>
</g>
</svg>
