<svg width="33" height="33" viewBox="0 0 33 33" fill="none" xmlns="http://www.w3.org/2000/svg">
<path fill-rule="evenodd" clip-rule="evenodd" d="M20.9 15.95V20.9556C22.1535 21.2113 23.1 22.3223 23.1 23.65V26.95V32.45C23.1 32.7536 22.8536 33 22.55 33H20.35C20.0464 33 19.8 32.7536 19.8 32.45V30.8H3.3V32.45C3.3 32.7536 3.0536 33 2.75 33H0.55C0.2464 33 0 32.7536 0 32.45V26.95V23.65C0 22.3223 0.94655 21.2113 2.2 20.9556V15.95C2.2 15.0403 2.9403 14.3 3.85 14.3H19.25C20.1597 14.3 20.9 15.0403 20.9 15.95ZM3.85 15.4C3.54695 15.4 3.3 15.647 3.3 15.95V20.9H4.4V18.7C4.4 17.7903 5.1403 17.05 6.05 17.05H9.35C10.2597 17.05 11 17.7903 11 18.7V20.9H12.1V18.7C12.1 17.7903 12.8403 17.05 13.75 17.05H17.05C17.9597 17.05 18.7 17.7903 18.7 18.7V20.9H19.8V15.95C19.8 15.647 19.553 15.4 19.25 15.4H3.85ZM17.6 18.7V20.9H13.2V18.7C13.2 18.397 13.4469 18.15 13.75 18.15H17.05C17.3531 18.15 17.6 18.397 17.6 18.7ZM9.9 20.9V18.7C9.9 18.397 9.65305 18.15 9.35 18.15H6.05C5.74695 18.15 5.5 18.397 5.5 18.7V20.9H9.9ZM22 31.9H20.9V30.25C20.9 29.9464 20.6536 29.7 20.35 29.7H2.75C2.4464 29.7 2.2 29.9464 2.2 30.25V31.9H1.1V27.5H22V31.9ZM1.1 26.4H22V23.65C22 22.7403 21.2597 22 20.35 22H18.15H12.65H10.45H4.95H2.75C1.8403 22 1.1 22.7403 1.1 23.65V26.4Z" fill="white"/>
<path fill-rule="evenodd" clip-rule="evenodd" d="M24.7502 20.9H32.4502C32.7538 20.9 33.0002 21.1464 33.0002 21.45V25.85V29.7H31.9002V26.4H25.3002V29.7H24.2002V25.85V21.45C24.2002 21.1464 24.4466 20.9 24.7502 20.9ZM25.3002 25.3H31.9002V22H25.3002V25.3Z" fill="white"/>
<rect x="27.5" y="23.1" width="2.2" height="1.1" fill="white"/>
<path fill-rule="evenodd" clip-rule="evenodd" d="M30.2217 13.0256L31.3217 16.3256C31.3773 16.4934 31.3492 16.6776 31.2458 16.8212C31.1424 16.9653 30.9763 17.05 30.7998 17.05H29.1498V18.7H30.2498V19.8H26.9498V18.7H28.0498V17.05H26.3998C26.2232 17.05 26.0571 16.9653 25.9537 16.8217C25.8503 16.6782 25.8217 16.4939 25.8778 16.3262L26.9778 13.0262C27.0532 12.8012 27.2627 12.65 27.4998 12.65H29.6998C29.9368 12.65 30.1464 12.8012 30.2217 13.0256ZM27.8963 13.75L27.1626 15.95H30.0369L29.3038 13.75H27.8963Z" fill="white"/>
<path d="M32.6749 7.19785L16.725 0.04785C16.5814 -0.01595 16.418 -0.01595 16.275 0.04785L0.32505 7.19785C0.12705 7.28695 0 7.4833 0 7.7V14.3H1.1V8.05585L16.5 1.1528L31.9 8.0564V14.3H33V7.7C33 7.4833 32.873 7.28695 32.6749 7.19785Z" fill="white"/>
<path d="M20.2966 7.60869L19.2114 7.79129C19.2373 7.94144 19.2499 8.09544 19.2499 8.24999C19.2499 9.76634 18.0163 11 16.4999 11C14.9836 11 13.7499 9.76634 13.7499 8.24999C13.7499 6.73364 14.9836 5.49999 16.4999 5.49999C16.8145 5.49999 17.1236 5.55279 17.4173 5.65674L17.7836 4.61944C17.3717 4.47369 16.9399 4.39999 16.4999 4.39999C14.3769 4.39999 12.6499 6.12699 12.6499 8.24999C12.6499 10.373 14.3769 12.1 16.4999 12.1C18.6229 12.1 20.3499 10.373 20.3499 8.24999C20.3499 8.03439 20.3318 7.81879 20.2966 7.60869Z" fill="white"/>
<path d="M19.9612 4.56116L16.5001 8.02231L15.7889 7.31116L15.0112 8.08886L16.1112 9.18886C16.2185 9.29611 16.3593 9.35001 16.5001 9.35001C16.6409 9.35001 16.7817 9.29611 16.8889 9.18886L20.7389 5.33886L19.9612 4.56116Z" fill="white"/>
</svg>
