<?xml version="1.0" encoding="utf-8" ?>
<svg xmlns="http://www.w3.org/2000/svg" xmlns:xlink="http://www.w3.org/1999/xlink" width="17" height="16">
	<defs>
		<clipPath id="clip_0">
			<rect x="-826" y="-608" width="1024" height="791" clip-rule="evenodd"/>
		</clipPath>
	</defs>
	<g clip-path="url(#clip_0)">
		<path fill="rgb(255,255,255)" stroke="none" d="M16.9134 0.064132C16.8378 -0.0033651 16.7301 -0.0190248 16.6388 0.0240265L0.147043 7.81627C0.0582573 7.85823 0.00108244 7.94831 1.51775e-05 8.04786C-0.00105209 8.1474 0.0542423 8.23872 0.142164 8.2826L4.80931 10.6118C4.89489 10.6546 4.99694 10.6449 5.07338 10.5868L9.61113 7.13783L6.04881 10.8641C5.99798 10.9173 5.97206 10.9901 5.97766 11.064L6.33234 15.7614C6.34022 15.8655 6.40883 15.9545 6.50636 15.9871C6.53243 15.9958 6.55921 16 6.58569 16C6.65832 16 6.72896 15.9683 6.7781 15.9104L9.25527 12.9913L12.3176 14.4792C12.384 14.5116 12.461 14.5129 12.5285 14.483C12.5961 14.4531 12.6475 14.3949 12.6695 14.3235L16.9883 0.335826C17.0185 0.238146 16.9891 0.131629 16.9134 0.064132Z"/>
	</g>

</svg>