<svg width="26" height="26" viewBox="0 0 26 26" fill="none" xmlns="http://www.w3.org/2000/svg">
<path d="M17.0625 1.625H15.2977C14.963 0.67925 14.0595 0 13 0C11.9405 0 11.037 0.67925 10.7006 1.625H8.9375C8.489 1.625 8.125 1.989 8.125 2.4375V5.6875C8.125 6.136 8.489 6.5 8.9375 6.5H17.0625C17.511 6.5 17.875 6.136 17.875 5.6875V2.4375C17.875 1.989 17.511 1.625 17.0625 1.625Z" fill="black"/>
<path d="M21.125 3.25H19.5V5.6875C19.5 7.03137 18.4064 8.125 17.0625 8.125H8.9375C7.59363 8.125 6.5 7.03137 6.5 5.6875V3.25H4.875C3.97962 3.25 3.25 3.97962 3.25 4.875V24.375C3.25 25.2866 3.96338 26 4.875 26H21.125C22.0366 26 22.75 25.2866 22.75 24.375V4.875C22.75 3.96338 22.0366 3.25 21.125 3.25ZM12.7628 17.6378L9.51275 20.8878C9.3535 21.0454 9.1455 21.125 8.9375 21.125C8.7295 21.125 8.5215 21.0454 8.36225 20.8878L6.73725 19.2628C6.42037 18.9459 6.42037 18.4308 6.73725 18.1139C7.05412 17.797 7.56925 17.797 7.88613 18.1139L8.9375 19.1636L11.6122 16.4889C11.9291 16.172 12.4443 16.172 12.7611 16.4889C13.078 16.8058 13.0796 17.3193 12.7628 17.6378ZM12.7628 11.1378L9.51275 14.3878C9.3535 14.5454 9.1455 14.625 8.9375 14.625C8.7295 14.625 8.5215 14.5454 8.36225 14.3878L6.73725 12.7628C6.42037 12.4459 6.42037 11.9307 6.73725 11.6139C7.05412 11.297 7.56925 11.297 7.88613 11.6139L8.9375 12.6636L11.6122 9.98887C11.9291 9.672 12.4443 9.672 12.7611 9.98887C13.078 10.3057 13.0796 10.8193 12.7628 11.1378ZM18.6875 19.5H15.4375C14.989 19.5 14.625 19.136 14.625 18.6875C14.625 18.239 14.989 17.875 15.4375 17.875H18.6875C19.136 17.875 19.5 18.239 19.5 18.6875C19.5 19.136 19.136 19.5 18.6875 19.5ZM18.6875 13H15.4375C14.989 13 14.625 12.636 14.625 12.1875C14.625 11.739 14.989 11.375 15.4375 11.375H18.6875C19.136 11.375 19.5 11.739 19.5 12.1875C19.5 12.636 19.136 13 18.6875 13Z" fill="black"/>
</svg>
