<svg width="248" height="56" viewBox="0 0 248 56" fill="none" xmlns="http://www.w3.org/2000/svg">
<path fill-rule="evenodd" clip-rule="evenodd" d="M75.0991 14.7613H67.0605V10.9626H87.643V14.7613H79.6041V35.1367H75.0991V14.7613" fill="#1B2022"/>
<path fill-rule="evenodd" clip-rule="evenodd" d="M96.3514 29.3695V27.2281H91.882C88.9367 27.2281 88.1395 28.3332 88.1395 29.6799C88.1395 31.2344 89.456 32.2354 91.6736 32.2354C93.7874 32.2354 95.6237 31.2685 96.3514 29.3695ZM100.683 24.3275V35.1368H96.5938V32.8916C95.5546 34.4804 93.5447 35.3786 90.7731 35.3786C86.5456 35.3786 83.8777 33.0646 83.8777 29.8529C83.8777 26.7793 85.9566 24.362 91.5697 24.362H96.3513V24.0856C96.3513 21.5645 94.8271 20.0795 91.7432 20.0795C89.6643 20.0795 87.5157 20.7702 86.1294 21.9099L84.4318 18.7675C86.4068 17.2477 89.2831 16.4882 92.2631 16.4882C97.5987 16.4882 100.683 19.0093 100.683 24.3275V24.3275Z" fill="#1B2022"/>
<path fill-rule="evenodd" clip-rule="evenodd" d="M119.243 25.9158C119.243 22.3935 116.887 20.1487 113.769 20.1487C110.65 20.1487 108.259 22.3935 108.259 25.9158C108.259 29.4381 110.65 31.6833 113.769 31.6833C116.887 31.6833 119.243 29.4381 119.243 25.9158ZM123.644 25.9158C123.644 31.6484 119.659 35.3786 114.254 35.3786C111.724 35.3786 109.576 34.515 108.12 32.7535V35.1367H103.997V9.51196H108.329V18.94C109.819 17.2822 111.898 16.4881 114.254 16.4881C119.659 16.4881 123.644 20.1832 123.644 25.9158V25.9158Z" fill="#1B2022"/>
<path fill-rule="evenodd" clip-rule="evenodd" d="M126.28 35.1368H130.612V9.51196H126.28V35.1368Z" fill="#1B2022"/>
<path fill-rule="evenodd" clip-rule="evenodd" d="M137.58 24.4308H148.079C147.733 21.7718 145.688 19.9416 142.847 19.9416C140.04 19.9416 137.996 21.7371 137.58 24.4308ZM152.133 27.2975H137.614C138.135 29.991 140.387 31.7178 143.609 31.7178C145.688 31.7178 147.316 31.0616 148.634 29.7147L150.955 32.3736C149.291 34.3421 146.693 35.3786 143.505 35.3786C137.303 35.3786 133.283 31.4068 133.283 25.9158C133.283 20.4251 137.337 16.4882 142.847 16.4882C148.252 16.4882 152.202 20.2521 152.202 26.0194C152.202 26.3647 152.168 26.8827 152.133 27.2975V27.2975Z" fill="#1B2022"/>
<path fill-rule="evenodd" clip-rule="evenodd" d="M173.688 28.4712C173.688 25.3288 171.367 23.9473 167.105 23.9473H158.546V33.03H167.105C171.367 33.03 173.688 31.6484 173.688 28.4712ZM158.546 13.069V21.841H166.273C170.154 21.841 172.406 20.356 172.406 17.455C172.406 14.554 170.154 13.069 166.273 13.069H158.546ZM176.252 28.6783C176.252 32.7882 173.203 35.1367 167.139 35.1367H155.982V10.9626H166.447C171.852 10.9626 174.971 13.2417 174.971 17.1785C174.971 19.9416 173.48 21.7718 171.263 22.6696C174.382 23.3605 176.252 25.3978 176.252 28.6783V28.6783Z" fill="#1B2022"/>
<path fill-rule="evenodd" clip-rule="evenodd" d="M194.309 26.054C194.309 21.8063 191.433 18.9743 187.552 18.9743C183.671 18.9743 180.761 21.8063 180.761 26.054C180.761 30.3016 183.671 33.1333 187.552 33.1333C191.433 33.1333 194.309 30.3016 194.309 26.054ZM178.266 26.054C178.266 20.6666 182.216 16.8333 187.552 16.8333C192.888 16.8333 196.804 20.6666 196.804 26.054C196.804 31.4414 192.888 35.3089 187.552 35.3089C182.216 35.3089 178.266 31.4414 178.266 26.054V26.054Z" fill="#1B2022"/>
<path fill-rule="evenodd" clip-rule="evenodd" d="M215.29 26.054C215.29 21.8063 212.414 18.9743 208.533 18.9743C204.654 18.9743 201.742 21.8063 201.742 26.054C201.742 30.3016 204.654 33.1333 208.533 33.1333C212.414 33.1333 215.29 30.3016 215.29 26.054ZM199.248 26.054C199.248 20.6666 203.197 16.8333 208.533 16.8333C213.869 16.8333 217.786 20.6666 217.786 26.054C217.786 31.4414 213.869 35.3089 208.533 35.3089C203.197 35.3089 199.248 31.4414 199.248 26.054V26.054Z" fill="#1B2022"/>
<path fill-rule="evenodd" clip-rule="evenodd" d="M219.538 33.0645L220.646 31.1302C222.101 32.27 224.562 33.1681 227.125 33.1681C230.59 33.1681 232.012 31.9935 232.012 30.198C232.012 25.467 220.195 29.1964 220.195 22.0136C220.195 19.0435 222.76 16.8333 227.402 16.8333C229.758 16.8333 232.324 17.4893 233.849 18.5258L232.774 20.4938C231.18 19.3887 229.275 18.94 227.402 18.94C224.112 18.94 222.655 20.2177 222.655 21.9443C222.655 26.8481 234.472 23.153 234.472 30.1294C234.472 33.2716 231.699 35.3089 226.952 35.3089C223.939 35.3089 221.027 34.342 219.538 33.0645" fill="#1B2022"/>
<path fill-rule="evenodd" clip-rule="evenodd" d="M247.865 34.0314C246.895 34.8949 245.438 35.3089 244.017 35.3089C240.588 35.3089 238.683 33.3752 238.683 30.0251V19.0435H235.425V16.9715H238.683V13.0001H241.143V16.9715H246.686V19.0435H241.143V29.8876C241.143 32.0284 242.252 33.203 244.296 33.203C245.301 33.203 246.306 32.8916 246.999 32.2701L247.865 34.0314" fill="#1B2022"/>
<path fill-rule="evenodd" clip-rule="evenodd" d="M74.1844 50.0325L74.5533 49.2569C75.0718 49.7242 75.9595 50.0623 76.8569 50.0623C78.0633 50.0623 78.5818 49.5955 78.5818 48.9895C78.5818 47.2894 74.354 48.363 74.354 45.7792C74.354 44.7058 75.1916 43.7915 77.0263 43.7915C77.8439 43.7915 78.6916 44.0099 79.27 44.4078L78.9408 45.2023C78.3326 44.8153 77.6445 44.6358 77.0263 44.6358C75.8396 44.6358 75.3311 45.1329 75.3311 45.7391C75.3311 47.4384 79.5592 46.3751 79.5592 48.9296C79.5592 49.9928 78.7016 50.9073 76.8569 50.9073C75.7899 50.9073 74.7427 50.5495 74.1844 50.0325" fill="#1B2022"/>
<path fill-rule="evenodd" clip-rule="evenodd" d="M90.0682 49.9631V50.8276H85.0027V43.8705H89.9287V44.7352H85.9999V46.8719H89.4999V47.7175H85.9999V49.9631H90.0682" fill="#1B2022"/>
<path fill-rule="evenodd" clip-rule="evenodd" d="M100.309 46.2958C100.309 45.3017 99.6404 44.7352 98.364 44.7352H96.6688V47.8665H98.364C99.6404 47.8665 100.309 47.2894 100.309 46.2958ZM100.338 50.8276L98.8325 48.6909C98.693 48.7005 98.5435 48.7108 98.3941 48.7108H96.6688V50.8276H95.6716V43.8705H98.3941C100.209 43.8705 101.306 44.7848 101.306 46.2958C101.306 47.3692 100.747 48.144 99.7702 48.4924L101.425 50.8276H100.338V50.8276Z" fill="#1B2022"/>
<path fill-rule="evenodd" clip-rule="evenodd" d="M112.971 43.8705L109.91 50.8276H108.923L105.852 43.8705H106.928L109.442 49.5856L111.974 43.8705H112.971" fill="#1B2022"/>
<path fill-rule="evenodd" clip-rule="evenodd" d="M117.846 50.8276H118.844V43.8705H117.846V50.8276Z" fill="#1B2022"/>
<path fill-rule="evenodd" clip-rule="evenodd" d="M124.357 47.3493C124.357 45.2916 125.933 43.7915 128.057 43.7915C129.134 43.7915 130.071 44.1589 130.71 44.8746L130.061 45.5005C129.523 44.9337 128.864 44.6758 128.097 44.6758C126.521 44.6758 125.355 45.8086 125.355 47.3493C125.355 48.8895 126.521 50.0222 128.097 50.0222C128.864 50.0222 129.523 49.7542 130.061 49.1882L130.71 49.8141C130.071 50.5292 129.134 50.9073 128.047 50.9073C125.933 50.9073 124.357 49.4064 124.357 47.3493" fill="#1B2022"/>
<path fill-rule="evenodd" clip-rule="evenodd" d="M141.188 49.9631V50.8276H136.123V43.8705H141.049V44.7352H137.121V46.8719H140.62V47.7175H137.121V49.9631H141.188" fill="#1B2022"/>
<path fill-rule="evenodd" clip-rule="evenodd" d="M152.894 47.3493C152.894 45.2916 154.469 43.7915 156.593 43.7915C157.67 43.7915 158.608 44.1589 159.246 44.8746L158.598 45.5005C158.059 44.9337 157.401 44.6758 156.633 44.6758C155.058 44.6758 153.891 45.8086 153.891 47.3493C153.891 48.8895 155.058 50.0222 156.633 50.0222C157.401 50.0222 158.059 49.7542 158.598 49.1882L159.246 49.8141C158.608 50.5292 157.67 50.9073 156.583 50.9073C154.469 50.9073 152.894 49.4064 152.894 47.3493" fill="#1B2022"/>
<path fill-rule="evenodd" clip-rule="evenodd" d="M168.588 48.293L167.082 44.884L165.577 48.293H168.588ZM168.937 49.0889H165.228L164.46 50.8276H163.433L166.594 43.8705H167.581L170.752 50.8276H169.705L168.937 49.0889V49.0889Z" fill="#1B2022"/>
<path fill-rule="evenodd" clip-rule="evenodd" d="M175.777 43.8705H176.774V49.9631H180.553V50.8276H175.777V43.8705" fill="#1B2022"/>
<path fill-rule="evenodd" clip-rule="evenodd" d="M185.688 43.8705H186.685V49.9631H190.464V50.8276H185.688V43.8705" fill="#1B2022"/>
<mask id="mask0" mask-type="alpha" maskUnits="userSpaceOnUse" x="0" y="0" width="201" height="56">
<path fill-rule="evenodd" clip-rule="evenodd" d="M0.0119629 0.0968018H200.265V55.9292H0.0119629V0.0968018Z" fill="white"/>
</mask>
<g mask="url(#mask0)">
<path fill-rule="evenodd" clip-rule="evenodd" d="M194.891 50.0325L195.259 49.2569C195.778 49.7242 196.666 50.0623 197.563 50.0623C198.77 50.0623 199.288 49.5955 199.288 48.9895C199.288 47.2894 195.06 48.363 195.06 45.7792C195.06 44.7058 195.898 43.7915 197.733 43.7915C198.551 43.7915 199.397 44.0099 199.976 44.4078L199.646 45.2023C199.039 44.8153 198.351 44.6358 197.733 44.6358C196.546 44.6358 196.037 45.1329 196.037 45.7391C196.037 47.4384 200.265 46.3751 200.265 48.9296C200.265 49.9928 199.407 50.9073 197.563 50.9073C196.496 50.9073 195.449 50.5495 194.891 50.0325" fill="#1B2022"/>
<path fill-rule="evenodd" clip-rule="evenodd" d="M43.9153 19.9678C44.7948 19.207 46.0352 18.9344 47.2432 19.2495C47.2432 19.2495 47.2432 19.2495 47.2434 19.2495C50.0569 19.9795 53.0294 19.4218 55.1407 17.6986C57.5385 15.744 58.4505 12.5746 57.5041 9.30345C55.7176 10.8353 53.9312 12.3673 52.1446 13.8991C50.1959 13.1124 48.2632 12.3431 46.3467 11.5919C46.3465 11.5919 46.3465 11.5919 46.3465 11.5919C46.3465 11.5917 46.3465 11.5917 46.3465 11.5917C46.3465 11.5917 46.3465 11.5917 46.3463 11.5917C46.3465 11.5917 46.3465 11.5917 46.3465 11.5917C45.7822 9.61767 45.202 7.62581 44.6055 5.61629C46.3087 3.99301 48.012 2.36972 49.7152 0.74624C46.5406 -0.510254 43.2871 0.0866501 41.1025 2.2755C39.1762 4.20249 38.3307 7.09694 38.7865 9.95867C38.7867 9.95867 38.7867 9.95867 38.7867 9.95887C38.9841 11.1876 38.5912 12.3915 37.7461 13.1902C35.2934 15.9501 32.8289 18.6972 30.3527 21.4316C29.462 22.2653 28.2425 22.6353 27.0624 22.4452C26.8246 22.4068 26.5873 22.3689 26.3505 22.3312C23.8866 21.9366 21.4207 22.8886 19.7271 24.8061C16.696 28.6874 14.6238 31.6341 11.5244 35.4406C11.225 35.7686 11.1627 36.2401 11.3793 36.5371C11.5097 36.7168 11.7103 36.8162 11.9432 36.817C12.1731 36.8179 12.4073 36.7192 12.5857 36.545C15.4339 33.5333 17.2782 31.4069 20.1043 28.3708C20.4452 28.0342 20.9448 27.9505 21.3202 28.1677C21.6255 28.3449 21.8045 28.6722 21.7883 29.0449C21.7762 29.3248 21.6345 29.5908 21.4311 29.7926C17.6888 33.641 14.9245 36.5749 11.1522 40.3902C10.8409 40.6955 10.7374 41.1627 10.9561 41.4621C11.2087 41.8082 11.7425 41.8072 12.1064 41.4757C16.0975 37.7594 19.0922 34.9372 23.0763 31.2129C23.5393 30.7886 24.2373 30.7767 24.632 31.1873C24.6385 31.1943 24.6427 31.2024 24.6491 31.2096C24.6555 31.2167 24.6632 31.2215 24.6696 31.229C25.0412 31.6601 24.9618 32.3514 24.4928 32.7694C20.3853 36.3577 17.2744 39.0524 13.1742 42.6491C12.808 42.9776 12.7552 43.5071 13.0763 43.7913C13.3543 44.0375 13.8306 43.9802 14.1656 43.7011C18.3436 40.3311 21.5435 37.8757 25.7516 34.5394C25.9729 34.3573 26.2523 34.2425 26.533 34.2576C26.9066 34.2778 27.2159 34.4871 27.3634 34.807C27.5441 35.2006 27.4117 35.688 27.0425 35.9935C23.7363 38.5021 21.4338 40.125 18.1495 42.6578C17.9583 42.8177 17.8368 43.0407 17.8156 43.2686C17.7939 43.4997 17.8737 43.7086 18.0403 43.8552C18.3159 44.0988 18.7926 44.0828 19.1493 43.8177C23.2518 41.1131 26.3952 39.3436 30.5657 36.7138C32.645 35.2201 33.835 32.8666 33.6804 30.3843C33.6657 30.1455 33.6507 29.9064 33.6356 29.667C33.5604 28.4778 34.0484 27.304 34.9674 26.5014C37.9384 24.3107 40.9212 22.133 43.9153 19.9678" fill="#DE5447"/>
<path fill-rule="evenodd" clip-rule="evenodd" d="M52.3325 21.8688C51.4356 22.0741 50.8373 22.9255 51.0196 23.8243C51.3295 25.3506 51.4945 26.9283 51.4945 28.5442C51.4945 42.1155 40.0981 53.0841 26.3422 52.443C14.0561 51.8703 4.08533 41.9332 3.51011 29.688C2.86583 15.9777 13.8716 4.61866 27.4887 4.61866C29.9603 4.61866 32.3438 4.99696 34.5883 5.69325C35.4707 5.9668 36.3862 5.46968 36.6852 4.59823C36.689 4.58732 36.6928 4.57621 36.6965 4.5653C37.013 3.65179 36.5359 2.66132 35.6098 2.37447C33.042 1.5792 30.3156 1.14734 27.4887 1.14734C11.8959 1.14734 -0.706086 14.1536 0.0309478 29.8531C0.689163 43.8748 12.1063 55.2541 26.175 55.9103C41.927 56.6453 54.9777 44.0851 54.9777 28.5442C54.9777 26.7063 54.7916 24.9114 54.4419 23.1746C54.2504 22.2234 53.3159 21.6406 52.3679 21.8606C52.356 21.8634 52.3442 21.8662 52.3325 21.8688" fill="#DE5447"/>
</g>
</svg>
