<svg width="52" height="50" viewBox="0 0 52 50" fill="none" xmlns="http://www.w3.org/2000/svg">
<path fill-rule="evenodd" clip-rule="evenodd" d="M42.2885 17.187C44.8072 17.8388 47.4679 17.341 49.3578 15.8023C51.5041 14.0572 52.3205 11.2274 51.4733 8.30668C49.8741 9.67439 48.2751 11.0423 46.6759 12.41C44.9315 11.7075 43.2016 11.0207 41.486 10.3499C40.9808 8.58724 40.4614 6.80879 39.9275 5.01458C41.452 3.56522 42.9767 2.11586 44.5013 0.666319C41.6596 -0.45555 38.7473 0.0773998 36.7918 2.03173C35.0676 3.75225 34.3107 6.33659 34.7187 8.8917C34.8956 9.98895 34.5439 11.0639 33.7875 11.777C31.592 14.2412 29.3859 16.694 27.1694 19.1354C26.3721 19.8798 25.2805 20.2101 24.2242 20.0404C24.0113 20.0061 23.7989 19.9722 23.5869 19.9386C21.3814 19.5863 19.1742 20.4363 17.6582 22.1483C14.945 25.6138 13.0901 28.2447 10.3158 31.6435C10.0478 31.9362 9.99204 32.3572 10.1859 32.6224C10.3026 32.7829 10.4822 32.8716 10.6906 32.8723C10.8964 32.8732 11.1061 32.785 11.2657 32.6295C13.8152 29.9405 15.4661 28.0419 17.9958 25.3311C18.301 25.0306 18.7482 24.9558 19.0842 25.1498C19.3575 25.3079 19.5177 25.6002 19.5033 25.933C19.4924 26.1829 19.3655 26.4204 19.1835 26.6005C15.8336 30.0366 13.3593 32.6562 9.9826 36.0627C9.70395 36.3353 9.6113 36.7524 9.80711 37.0197C10.0332 37.3288 10.511 37.3279 10.8367 37.0319C14.4092 33.7138 17.0899 31.1939 20.6561 27.8687C21.0706 27.4899 21.6954 27.4792 22.0487 27.8459C22.415 28.2679 22.3439 28.8852 21.9241 29.2584C18.2474 32.4623 15.4627 34.8683 11.7926 38.0796C11.4647 38.3729 11.4175 38.8456 11.7049 39.0994C11.9538 39.3192 12.3801 39.2681 12.68 39.0189C16.4198 36.01 19.2841 33.8176 23.0508 30.8388C23.249 30.6762 23.4991 30.5737 23.7503 30.5871C24.0847 30.6052 24.3616 30.7921 24.4936 31.0777C24.6554 31.4291 24.5369 31.8643 24.2064 32.1371C21.2469 34.3769 19.1859 35.8259 16.2461 38.0874C16.0749 38.2301 15.9662 38.4292 15.9471 38.6327C15.9277 38.8391 15.9992 39.0256 16.1483 39.1565C16.395 39.374 16.8217 39.3596 17.141 39.123C20.8133 36.7082 23.627 35.1283 27.3601 32.7802C29.2213 31.4465 30.2866 29.3452 30.1481 27.1289C30.1349 26.9156 30.1216 26.7022 30.108 26.4884C30.0407 25.4266 30.4776 24.3786 31.3001 23.662C33.9596 21.706 36.6295 19.7616 39.3096 17.8284C40.0969 17.1491 41.2072 16.9058 42.2885 17.187Z" fill="white"/>
<path fill-rule="evenodd" clip-rule="evenodd" d="M46.844 19.5257C46.0412 19.709 45.5057 20.4692 45.6689 21.2718C45.9463 22.6345 46.094 24.0431 46.094 25.4859C46.094 37.6031 35.8927 47.3966 23.5795 46.8241C12.5819 46.3128 3.65684 37.4404 3.14195 26.5072C2.56523 14.2658 12.4167 4.12385 24.6057 4.12385C26.8182 4.12385 28.9517 4.46161 30.9608 5.0833C31.7506 5.32755 32.5702 4.88369 32.8378 4.10561C32.8411 4.09586 32.8445 4.08595 32.8479 4.0762C33.1312 3.26057 32.7041 2.37622 31.8751 2.12011C29.5767 1.41004 27.1362 1.02445 24.6057 1.02445C10.6483 1.02445 -0.632076 12.6372 0.0276603 26.6546C0.616845 39.174 10.8366 49.3341 23.4299 49.92C37.5299 50.5762 49.2118 39.3618 49.2118 25.4859C49.2118 23.8449 49.0452 22.2424 48.7322 20.6917C48.5608 19.8424 47.7243 19.322 46.8757 19.5185C46.865 19.5209 46.8545 19.5234 46.844 19.5257Z" fill="white"/>
</svg>
