<svg width="150" height="37" viewBox="0 0 150 37" fill="none" xmlns="http://www.w3.org/2000/svg">
<path fill-rule="evenodd" clip-rule="evenodd" d="M45.7804 9.83759H41.0526V7.35H53.1579V9.83759H48.4299V23.1808H45.7804V9.83759Z" fill="white"/>
<path fill-rule="evenodd" clip-rule="evenodd" d="M58.8659 19.2241V17.814H56.0664C54.2215 17.814 53.7222 18.5417 53.7222 19.4285C53.7222 20.452 54.5468 21.1111 55.9359 21.1111C57.2599 21.1111 58.4101 20.4745 58.8659 19.2241ZM61.5789 15.9041V23.0215H59.0178V21.5432C58.3669 22.5893 57.1079 23.1808 55.3718 23.1808C52.7238 23.1808 51.0526 21.6571 51.0526 19.5424C51.0526 17.5186 52.3548 15.9268 55.8708 15.9268H58.8659V15.7449C58.8659 14.0849 57.9112 13.107 55.9795 13.107C54.6773 13.107 53.3314 13.5619 52.4631 14.3123L51.3997 12.2431C52.6369 11.2424 54.4385 10.7423 56.3051 10.7423C59.6472 10.7423 61.5789 12.4023 61.5789 15.9041Z" fill="white"/>
<path fill-rule="evenodd" clip-rule="evenodd" d="M72.5519 17.5411C72.5519 15.2314 71.1 13.7595 69.1788 13.7595C67.2572 13.7595 65.7838 15.2314 65.7838 17.5411C65.7838 19.8508 67.2572 21.323 69.1788 21.323C71.1 21.323 72.5519 19.8508 72.5519 17.5411ZM75.2632 17.5411C75.2632 21.3001 72.8082 23.7462 69.4777 23.7462C67.9188 23.7462 66.5955 23.1799 65.6984 22.0248V23.5876H63.1579V6.78461H65.8268V12.9669C66.7448 11.8798 68.0258 11.3591 69.4777 11.3591C72.8082 11.3591 75.2632 13.7821 75.2632 17.5411Z" fill="white"/>
<path fill-rule="evenodd" clip-rule="evenodd" d="M76.8421 23.7462H79.4737V6.78461H76.8421V23.7462Z" fill="white"/>
<path fill-rule="evenodd" clip-rule="evenodd" d="M83.6821 15.9722H90.1078C89.8958 14.2213 88.6448 13.0163 86.9058 13.0163C85.1878 13.0163 83.9367 14.1985 83.6821 15.9722ZM92.5891 17.8597H83.7034C84.0217 19.6333 85.4002 20.7703 87.3723 20.7703C88.6448 20.7703 89.6411 20.3382 90.4473 19.4513L91.8682 21.2022C90.8499 22.4983 89.2595 23.1808 87.3085 23.1808C83.5128 23.1808 81.0526 20.5655 81.0526 16.95C81.0526 13.3346 83.5337 10.7423 86.9058 10.7423C90.214 10.7423 92.6316 13.2207 92.6316 17.0182C92.6316 17.2456 92.6103 17.5866 92.5891 17.8597Z" fill="white"/>
<path fill-rule="evenodd" clip-rule="evenodd" d="M105.311 18.8158C105.311 16.7579 103.925 15.8532 101.38 15.8532H96.2681V21.8012H101.38C103.925 21.8012 105.311 20.8963 105.311 18.8158ZM96.2681 8.72936V14.4739H100.883C103.201 14.4739 104.546 13.5014 104.546 11.6016C104.546 9.70184 103.201 8.72936 100.883 8.72936H96.2681ZM106.842 18.9514C106.842 21.6428 105.021 23.1808 101.4 23.1808H94.7368V7.35H100.986C104.214 7.35 106.077 8.8425 106.077 11.4205C106.077 13.23 105.187 14.4285 103.863 15.0165C105.725 15.4689 106.842 16.8031 106.842 18.9514Z" fill="white"/>
<path fill-rule="evenodd" clip-rule="evenodd" d="M117.986 17.2333C117.986 14.5035 116.271 12.6836 113.958 12.6836C111.644 12.6836 109.909 14.5035 109.909 17.2333C109.909 19.9629 111.644 21.7827 113.958 21.7827C116.271 21.7827 117.986 19.9629 117.986 17.2333ZM108.421 17.2333C108.421 13.7711 110.776 11.3077 113.958 11.3077C117.139 11.3077 119.474 13.7711 119.474 17.2333C119.474 20.6954 117.139 23.1808 113.958 23.1808C110.776 23.1808 108.421 20.6954 108.421 17.2333Z" fill="white"/>
<path fill-rule="evenodd" clip-rule="evenodd" d="M130.091 17.2333C130.091 14.5035 128.376 12.6836 126.062 12.6836C123.749 12.6836 122.013 14.5035 122.013 17.2333C122.013 19.9629 123.749 21.7827 126.062 21.7827C128.376 21.7827 130.091 19.9629 130.091 17.2333ZM120.526 17.2333C120.526 13.7711 122.881 11.3077 126.062 11.3077C129.244 11.3077 131.579 13.7711 131.579 17.2333C131.579 20.6954 129.244 23.1808 126.062 23.1808C122.881 23.1808 120.526 20.6954 120.526 17.2333Z" fill="white"/>
<path fill-rule="evenodd" clip-rule="evenodd" d="M133.684 21.7385L134.348 20.4954C135.22 21.2279 136.694 21.805 138.23 21.805C140.306 21.805 141.158 21.0502 141.158 19.8963C141.158 16.8561 134.078 19.2527 134.078 14.6367C134.078 12.7281 135.615 11.3077 138.396 11.3077C139.808 11.3077 141.345 11.7293 142.258 12.3954L141.614 13.6601C140.659 12.9499 139.518 12.6615 138.396 12.6615C136.425 12.6615 135.552 13.4826 135.552 14.5922C135.552 17.7436 142.632 15.369 142.632 19.8522C142.632 21.8715 140.97 23.1808 138.126 23.1808C136.321 23.1808 134.576 22.5594 133.684 21.7385Z" fill="white"/>
<path fill-rule="evenodd" clip-rule="evenodd" d="M150 22.339C149.426 22.908 148.563 23.1808 147.721 23.1808C145.69 23.1808 144.562 21.9066 144.562 19.6991V12.463H142.632V11.0977H144.562V8.48077H146.019V11.0977H149.302V12.463H146.019V19.6085C146.019 21.0192 146.675 21.7931 147.886 21.7931C148.482 21.7931 149.077 21.5879 149.487 21.1784L150 22.339Z" fill="white"/>
<path fill-rule="evenodd" clip-rule="evenodd" d="M45.2632 32.8016L45.4798 32.3086C45.7845 32.6057 46.306 32.8205 46.8333 32.8205C47.5421 32.8205 47.8467 32.5238 47.8467 32.1386C47.8467 31.058 45.3628 31.7404 45.3628 30.0981C45.3628 29.4158 45.8549 28.8346 46.9328 28.8346C47.4132 28.8346 47.9113 28.9734 48.2511 29.2264L48.0577 29.7314C47.7003 29.4854 47.2961 29.3713 46.9328 29.3713C46.2356 29.3713 45.9369 29.6873 45.9369 30.0726C45.9369 31.1527 48.421 30.4769 48.421 32.1005C48.421 32.7764 47.9171 33.3577 46.8333 33.3577C46.2064 33.3577 45.5912 33.1302 45.2632 32.8016Z" fill="white"/>
<path fill-rule="evenodd" clip-rule="evenodd" d="M54.7368 32.7956V33.3577H51.5789V28.8346H54.6499V29.3968H52.2006V30.7859H54.3826V31.3357H52.2006V32.7956H54.7368Z" fill="white"/>
<path fill-rule="evenodd" clip-rule="evenodd" d="M60.864 30.4114C60.864 29.7651 60.4361 29.3968 59.6188 29.3968H58.5333V31.4326H59.6188C60.4361 31.4326 60.864 31.0574 60.864 30.4114ZM60.8829 33.3577L59.9188 31.9686C59.8294 31.9748 59.7337 31.9815 59.638 31.9815H58.5333V33.3577H57.8947V28.8346H59.638C60.8001 28.8346 61.5025 29.429 61.5025 30.4114C61.5025 31.1092 61.1447 31.613 60.5192 31.8395L61.5789 33.3577H60.8829Z" fill="white"/>
<path fill-rule="evenodd" clip-rule="evenodd" d="M68.421 28.8346L66.6106 33.3577H66.0267L64.2105 28.8346H64.8473L66.3335 32.5502L67.8313 28.8346H68.421Z" fill="white"/>
<path fill-rule="evenodd" clip-rule="evenodd" d="M71.5789 33.3577H72.1053V28.8346H71.5789V33.3577Z" fill="white"/>
<path fill-rule="evenodd" clip-rule="evenodd" d="M75.7895 31.0961C75.7895 29.7881 76.7034 28.8346 77.9354 28.8346C78.5598 28.8346 79.1035 29.0681 79.4737 29.5231L79.0978 29.9209C78.7855 29.5607 78.4036 29.3967 77.9585 29.3967C77.0446 29.3967 76.368 30.1167 76.368 31.0961C76.368 32.0751 77.0446 32.7951 77.9585 32.7951C78.4036 32.7951 78.7855 32.6247 79.0978 32.265L79.4737 32.6628C79.1035 33.1174 78.5598 33.3577 77.9294 33.3577C76.7034 33.3577 75.7895 32.4037 75.7895 31.0961Z" fill="white"/>
<path fill-rule="evenodd" clip-rule="evenodd" d="M86.3158 32.7956V33.3577H83.1579V28.8346H86.2291V29.3968H83.78V30.7859H85.9615V31.3357H83.78V32.7956H86.3158Z" fill="white"/>
<path fill-rule="evenodd" clip-rule="evenodd" d="M92.6316 31.0961C92.6316 29.7881 93.5453 28.8346 94.7773 28.8346C95.4021 28.8346 95.9456 29.0681 96.3158 29.5231L95.94 29.9209C95.6273 29.5607 95.2457 29.3967 94.8003 29.3967C93.8866 29.3967 93.2101 30.1167 93.2101 31.0961C93.2101 32.0751 93.8866 32.7951 94.8003 32.7951C95.2457 32.7951 95.6273 32.6247 95.94 32.265L96.3158 32.6628C95.9456 33.1174 95.4021 33.3577 94.7714 33.3577C93.5453 33.3577 92.6316 32.4037 92.6316 31.0961Z" fill="white"/>
<path fill-rule="evenodd" clip-rule="evenodd" d="M102.439 31.7099L101.573 29.4935L100.707 31.7099H102.439ZM102.64 32.2273H100.506L100.065 33.3577H99.4737L101.292 28.8346H101.86L103.684 33.3577H103.082L102.64 32.2273Z" fill="white"/>
<path fill-rule="evenodd" clip-rule="evenodd" d="M106.842 28.8346H107.501V32.7956H110V33.3577H106.842V28.8346Z" fill="white"/>
<path fill-rule="evenodd" clip-rule="evenodd" d="M112.632 28.8346H113.291V32.7956H115.789V33.3577H112.632V28.8346Z" fill="white"/>
<mask id="mask0" mask-type="alpha" maskUnits="userSpaceOnUse" x="0" y="0" width="122" height="37">
<path fill-rule="evenodd" clip-rule="evenodd" d="M0.0072937 0.0635529H121.564V36.7035H0.0072937V0.0635529Z" fill="white"/>
</mask>
<g mask="url(#mask0)">
<path fill-rule="evenodd" clip-rule="evenodd" d="M118.302 32.8339L118.526 32.3249C118.841 32.6316 119.38 32.8534 119.924 32.8534C120.657 32.8534 120.971 32.5471 120.971 32.1494C120.971 31.0337 118.405 31.7383 118.405 30.0426C118.405 29.3382 118.913 28.7382 120.027 28.7382C120.524 28.7382 121.038 28.8816 121.389 29.1427L121.189 29.6641C120.82 29.4101 120.403 29.2923 120.027 29.2923C119.307 29.2923 118.998 29.6185 118.998 30.0163C118.998 31.1315 121.564 30.4337 121.564 32.1101C121.564 32.8078 121.044 33.408 119.924 33.408C119.277 33.408 118.641 33.1731 118.302 32.8339Z" fill="white"/>
<path fill-rule="evenodd" clip-rule="evenodd" d="M26.6574 13.1039C27.1913 12.6046 27.9442 12.4258 28.6775 12.6325C28.6775 12.6325 28.6775 12.6325 28.6776 12.6325C30.3855 13.1116 32.1898 12.7456 33.4714 11.6147C34.9269 10.332 35.4805 8.25211 34.906 6.10541C33.8216 7.11068 32.7372 8.11607 31.6528 9.12134C30.4698 8.60504 29.2967 8.10019 28.1333 7.60719C28.1332 7.60719 28.1332 7.60719 28.1332 7.60719C28.1332 7.60706 28.1332 7.60706 28.1332 7.60706C28.1332 7.60706 28.1332 7.60706 28.1331 7.60706C28.1332 7.60706 28.1332 7.60706 28.1332 7.60706C27.7907 6.31162 27.4385 5.00446 27.0764 3.68572C28.1102 2.62044 29.1442 1.55516 30.178 0.489746C28.251 -0.334827 26.2761 0.0568909 24.95 1.49332C23.7807 2.75791 23.2674 4.6574 23.5441 6.5354C23.5442 6.5354 23.5442 6.5354 23.5442 6.53553C23.6641 7.34188 23.4256 8.13196 22.9126 8.65607C21.4237 10.4673 19.9278 12.2701 18.4247 14.0645C17.884 14.6116 17.1437 14.8544 16.4274 14.7297C16.283 14.7045 16.139 14.6796 15.9952 14.6549C14.4996 14.3959 13.0028 15.0207 11.9747 16.279C10.1348 18.8262 8.87694 20.7599 6.99555 23.2579C6.81384 23.4731 6.77602 23.7826 6.90747 23.9775C6.98661 24.0954 7.1084 24.1606 7.24975 24.1611C7.3893 24.1618 7.5315 24.097 7.63976 23.9827C9.36868 22.0062 10.4882 20.6108 12.2037 18.6184C12.4107 18.3975 12.7139 18.3425 12.9418 18.4851C13.1271 18.6013 13.2357 18.8161 13.2259 19.0607C13.2186 19.2444 13.1325 19.419 13.0091 19.5514C10.7374 22.0769 9.0595 24.0023 6.76962 26.5061C6.58066 26.7065 6.51783 27.013 6.65061 27.2095C6.80393 27.4367 7.12797 27.436 7.34883 27.2185C9.77149 24.7796 11.5893 22.9275 14.0078 20.4835C14.2888 20.205 14.7125 20.1972 14.9521 20.4667C14.9561 20.4713 14.9586 20.4766 14.9625 20.4813C14.9663 20.486 14.971 20.4891 14.9749 20.494C15.2005 20.7769 15.1523 21.2306 14.8676 21.5049C12.3743 23.8598 10.4859 25.6282 7.99702 27.9885C7.77471 28.2041 7.74269 28.5515 7.93758 28.7381C8.10636 28.8996 8.39548 28.862 8.59882 28.6789C11.1349 26.4673 13.0773 24.8559 15.6317 22.6665C15.766 22.547 15.9357 22.4716 16.106 22.4815C16.3328 22.4948 16.5205 22.6322 16.6101 22.8421C16.7198 23.1004 16.6394 23.4203 16.4153 23.6208C14.4084 25.267 13.0108 26.3321 11.0171 27.9942C10.901 28.0992 10.8273 28.2455 10.8144 28.3951C10.8012 28.5467 10.8497 28.6838 10.9508 28.78C11.1181 28.9399 11.4075 28.9293 11.624 28.7554C14.1143 26.9805 16.0224 25.8193 18.5539 24.0935C19.8161 23.1132 20.5385 21.5687 20.4446 19.9397C20.4357 19.783 20.4266 19.6261 20.4174 19.469C20.3718 18.6886 20.668 17.9183 21.2258 17.3915C23.0293 15.9539 24.8399 14.5248 26.6574 13.1039Z" fill="white"/>
<path fill-rule="evenodd" clip-rule="evenodd" d="M31.7667 14.3514C31.2223 14.4861 30.8591 15.0449 30.9698 15.6347C31.1579 16.6364 31.2581 17.6717 31.2581 18.7322C31.2581 27.6383 24.3402 34.8365 15.9902 34.4157C8.53227 34.0399 2.47985 27.5187 2.13068 19.4828C1.73959 10.4854 8.42027 3.03103 16.6861 3.03103C18.1864 3.03103 19.6332 3.27929 20.9957 3.73623C21.5313 3.91575 22.0871 3.58951 22.2685 3.01762C22.2708 3.01046 22.2731 3.00317 22.2754 2.99601C22.4675 2.39652 22.1779 1.74653 21.6157 1.55828C20.0571 1.03638 18.4021 0.752975 16.6861 0.752975C7.22102 0.752975 -0.428626 9.28836 0.0187663 19.5911C0.418314 28.7929 7.34873 36.2605 15.8887 36.6912C25.4504 37.1735 33.3724 28.9309 33.3724 18.7322C33.3724 17.526 33.2594 16.3481 33.0471 15.2084C32.9309 14.5842 32.3637 14.2017 31.7882 14.3461C31.781 14.3479 31.7738 14.3497 31.7667 14.3514Z" fill="white"/>
</g>
</svg>
