<?xml version="1.0" encoding="utf-8" ?>
<svg xmlns="http://www.w3.org/2000/svg" xmlns:xlink="http://www.w3.org/1999/xlink" width="128" height="29">
	<defs>
		<clipPath id="clip_0">
			<rect x="-17" y="-64" width="375" height="887" clip-rule="evenodd"/>
		</clipPath>
	</defs>
	<g clip-path="url(#clip_0)">
		<path fill="rgb(255,255,255)" stroke="none" transform="translate(35.0316 5.80005)" d="M4.03434 1.963L0 1.963L0 0L10.3298 0L10.3298 1.963L6.29529 1.963L6.29529 12.4923L4.03434 12.4923L4.03434 1.963"/>
	</g>
	<defs>
		<clipPath id="clip_1">
			<rect x="-17" y="-64" width="375" height="887" clip-rule="evenodd"/>
		</clipPath>
	</defs>
	<g clip-path="url(#clip_1)">
		<path fill="rgb(255,255,255)" stroke="none" transform="translate(43.5649 8.47681)" d="M8.98245 9.68974L8.98245 4.07326C8.98245 1.30996 7.33407 0 4.48213 0C2.88929 0 1.35187 0.394669 0.296184 1.18432L1.20357 2.8171C1.94456 2.22495 3.09302 1.86604 4.20424 1.86604C5.85262 1.86604 6.66734 2.63765 6.66734 3.94761L6.66734 4.0912L4.11147 4.0912C1.11122 4.0912 0 5.34725 0 6.94427C0 8.61303 1.42603 9.81539 3.68571 9.81539C5.16716 9.81539 6.24147 9.34867 6.79692 8.52315L6.79692 9.68974L8.98245 9.68974ZM6.66734 5.5804L6.66734 6.69308C6.27838 7.6798 5.29685 8.18219 4.16701 8.18219C2.98163 8.18219 2.27798 7.66208 2.27798 6.85439C2.27798 6.15463 2.70406 5.5804 4.27839 5.5804L6.66734 5.5804Z" fill-rule="evenodd"/>
	</g>
	<defs>
		<clipPath id="clip_2">
			<rect x="-17" y="-64" width="375" height="887" clip-rule="evenodd"/>
		</clipPath>
	</defs>
	<g clip-path="url(#clip_2)">
		<path fill="rgb(255,255,255)" stroke="none" transform="translate(53.8947 5.35376)" d="M5.3929 13.3846C8.23491 13.3846 10.3298 11.4544 10.3298 8.48812C10.3298 5.52182 8.23491 3.6098 5.3929 3.6098C4.15393 3.6098 3.06084 4.0207 2.27742 4.87853L2.27742 0L0 0L0 13.2595L2.16785 13.2595L2.16785 12.0263C2.93338 12.9378 4.06267 13.3846 5.3929 13.3846ZM5.13786 5.50396C6.77723 5.50396 8.01619 6.66552 8.01619 8.48812C8.01619 10.3107 6.77723 11.4725 5.13786 11.4725C3.49808 11.4725 2.2408 10.3107 2.2408 8.48812C2.2408 6.66552 3.49808 5.50396 5.13786 5.50396Z" fill-rule="evenodd"/>
	</g>
	<defs>
		<clipPath id="clip_3">
			<rect x="-17" y="-64" width="375" height="887" clip-rule="evenodd"/>
		</clipPath>
	</defs>
	<g clip-path="url(#clip_3)">
		<path fill="rgb(255,255,255)" stroke="none" transform="translate(65.5719 5.35376)" d="M0 13.3846L2.24561 13.3846L2.24561 0L0 0L0 13.3846Z"/>
	</g>
	<defs>
		<clipPath id="clip_4">
			<rect x="-17" y="-64" width="375" height="887" clip-rule="evenodd"/>
		</clipPath>
	</defs>
	<g clip-path="url(#clip_4)">
		<path fill="rgb(255,255,255)" stroke="none" transform="translate(69.1649 8.47681)" d="M2.26202 5.61648L9.84441 5.61648C9.8625 5.40095 9.88069 5.13183 9.88069 4.95238C9.88069 1.95572 7.81774 0 4.99471 0C2.11722 0 0 2.0456 0 4.89857C0 7.75165 2.09934 9.81539 5.33836 9.81539C7.0032 9.81539 8.36035 9.27683 9.22925 8.25403L8.0168 6.87243C7.32887 7.5723 6.47867 7.91327 5.39283 7.91327C3.70991 7.91327 2.53363 7.01601 2.26202 5.61648ZM7.72709 4.12696L2.24383 4.12696C2.46108 2.72733 3.52873 1.79441 4.99471 1.79441C6.47867 1.79441 7.54622 2.74536 7.72709 4.12696Z" fill-rule="evenodd"/>
	</g>
	<defs>
		<clipPath id="clip_5">
			<rect x="-17" y="-64" width="375" height="887" clip-rule="evenodd"/>
		</clipPath>
	</defs>
	<g clip-path="url(#clip_5)">
		<path fill="rgb(255,255,255)" stroke="none" transform="translate(80.8421 5.80005)" d="M5.68581 12.4923C8.776 12.4923 10.3298 11.2787 10.3298 9.15483C10.3298 7.45959 9.37657 6.40679 7.78725 6.04974C8.91729 5.58577 9.67671 4.64 9.67671 3.21211C9.67671 1.17776 8.08739 0 5.33283 0L0 0L0 12.4923L5.68581 12.4923ZM1.30663 1.08847L1.30663 5.62155L5.24438 5.62155C7.22228 5.62155 8.37007 4.85415 8.37007 3.35501C8.37007 1.85588 7.22228 1.08847 5.24438 1.08847L1.30663 1.08847ZM9.02319 9.04781C9.02319 7.42391 7.8402 6.71002 5.66836 6.71002L1.30663 6.71002L1.30663 11.4036L5.66836 11.4036C7.8402 11.4036 9.02319 10.6896 9.02319 9.04781Z" fill-rule="evenodd"/>
	</g>
	<defs>
		<clipPath id="clip_6">
			<rect x="-17" y="-64" width="375" height="887" clip-rule="evenodd"/>
		</clipPath>
	</defs>
	<g clip-path="url(#clip_6)">
		<path fill="rgb(255,255,255)" stroke="none" transform="translate(92.5193 8.9231)" d="M4.7247 0C2.00975 0 0 1.94394 0 4.67596C0 7.40799 2.00975 9.36923 4.7247 9.36923C7.43924 9.36923 9.43157 7.40799 9.43157 4.67596C9.43157 1.94394 7.43924 0 4.7247 0ZM4.7247 1.08575C6.69891 1.08575 8.16225 2.52187 8.16225 4.67596C8.16225 6.82996 6.69891 8.26598 4.7247 8.26598C2.75018 8.26598 1.26942 6.82996 1.26942 4.67596C1.26942 2.52187 2.75018 1.08575 4.7247 1.08575Z" fill-rule="evenodd"/>
	</g>
	<defs>
		<clipPath id="clip_7">
			<rect x="-17" y="-64" width="375" height="887" clip-rule="evenodd"/>
		</clipPath>
	</defs>
	<g clip-path="url(#clip_7)">
		<path fill="rgb(255,255,255)" stroke="none" transform="translate(102.849 8.9231)" d="M4.72389 0C2.00904 0 0 1.94394 0 4.67596C0 7.40799 2.00904 9.36923 4.72389 9.36923C7.43873 9.36923 9.43157 7.40799 9.43157 4.67596C9.43157 1.94394 7.43873 0 4.72389 0ZM4.72389 1.08575C6.6985 1.08575 8.16174 2.52187 8.16174 4.67596C8.16174 6.82996 6.6985 8.26598 4.72389 8.26598C2.75028 8.26598 1.26882 6.82996 1.26882 4.67596C1.26882 2.52187 2.75028 1.08575 4.72389 1.08575Z" fill-rule="evenodd"/>
	</g>
	<defs>
		<clipPath id="clip_8">
			<rect x="-17" y="-64" width="375" height="887" clip-rule="evenodd"/>
		</clipPath>
	</defs>
	<g clip-path="url(#clip_8)">
		<path fill="rgb(255,255,255)" stroke="none" transform="translate(114.077 8.9231)" d="M0 8.23107L0.566806 7.25015C1.31067 7.82818 2.56843 8.28359 3.87911 8.28359C5.65076 8.28359 6.37733 7.68795 6.37733 6.77744C6.37733 4.3783 0.335809 6.26953 0.335809 2.627C0.335809 1.12086 1.6475 0 4.02056 0C5.2254 0 6.53709 0.332675 7.31658 0.858296L6.76707 1.85632C5.95197 1.29589 4.97812 1.06834 4.02056 1.06834C2.33845 1.06834 1.59357 1.71629 1.59357 2.59189C1.59357 5.07866 7.63509 3.20483 7.63509 6.74264C7.63509 8.3361 6.21756 9.36923 3.79058 9.36923C2.24992 9.36923 0.761168 8.87892 0 8.23107"/>
	</g>
	<defs>
		<clipPath id="clip_9">
			<rect x="-17" y="-64" width="375" height="887" clip-rule="evenodd"/>
		</clipPath>
	</defs>
	<g clip-path="url(#clip_9)">
		<path fill="rgb(255,255,255)" stroke="none" transform="translate(121.712 6.69238)" d="M6.28772 10.9357C5.79778 11.3847 5.06136 11.6 4.34305 11.6C2.60966 11.6 1.64688 10.5945 1.64688 8.85253L1.64688 3.14243L0 3.14243L0 2.06504L1.64688 2.06504L1.64688 0L2.89034 0L2.89034 2.06504L5.69215 2.06504L5.69215 3.14243L2.89034 3.14243L2.89034 8.78105C2.89034 9.89423 3.4507 10.505 4.4839 10.505C4.99195 10.505 5.49999 10.343 5.85009 10.0199L6.28772 10.9357"/>
	</g>
	<defs>
		<clipPath id="clip_10">
			<rect x="-17" y="-64" width="375" height="887" clip-rule="evenodd"/>
		</clipPath>
	</defs>
	<g clip-path="url(#clip_10)">
		<path fill="rgb(255,255,255)" stroke="none" transform="translate(38.6246 22.7539)" d="M0 3.13043L0.184911 2.74137C0.444865 2.9758 0.88993 3.14535 1.33988 3.14535C1.94471 3.14535 2.20467 2.91122 2.20467 2.60725C2.20467 1.75452 0.0850213 2.29302 0.0850213 0.997008C0.0850213 0.458604 0.504939 0 1.42481 0C1.83474 0 2.25975 0.109551 2.54974 0.309152L2.38469 0.707657C2.07973 0.513529 1.73475 0.42348 1.42481 0.42348C0.829856 0.42348 0.574892 0.672831 0.574892 0.976909C0.574892 1.82924 2.69474 1.29591 2.69474 2.5772C2.69474 3.11053 2.26474 3.56923 1.33988 3.56923C0.804908 3.56923 0.279912 3.38973 0 3.13043"/>
	</g>
	<defs>
		<clipPath id="clip_11">
			<rect x="-17" y="-64" width="375" height="887" clip-rule="evenodd"/>
		</clipPath>
	</defs>
	<g clip-path="url(#clip_11)">
		<path fill="rgb(255,255,255)" stroke="none" transform="translate(44.014 22.7539)" d="M2.69474 3.12571L2.69474 3.56923L0 3.56923L0 0L2.62051 0L2.62051 0.443622L0.530477 0.443622L0.530477 1.5398L2.39244 1.5398L2.39244 1.97366L0.530477 1.97366L0.530477 3.12571L2.69474 3.12571"/>
	</g>
	<defs>
		<clipPath id="clip_12">
			<rect x="-17" y="-64" width="375" height="887" clip-rule="evenodd"/>
		</clipPath>
	</defs>
	<g clip-path="url(#clip_12)">
		<path fill="rgb(255,255,255)" stroke="none" transform="translate(49.4035 22.7539)" d="M1.72718 2.47305L2.54993 3.56923L3.14385 3.56923L2.23953 2.37117C2.77332 2.19246 3.0786 1.79494 3.0786 1.24426C3.0786 0.469065 2.47924 0 1.48758 0L0 0L0 3.56923L0.544875 3.56923L0.544875 2.48323L1.48758 2.48323C1.56926 2.48323 1.65094 2.47793 1.72718 2.47305ZM1.47116 0.443622C2.16862 0.443622 2.53372 0.734282 2.53372 1.24426C2.53372 1.75403 2.16862 2.05009 1.47116 2.05009L0.544875 2.05009L0.544875 0.443622L1.47116 0.443622Z" fill-rule="evenodd"/>
	</g>
	<defs>
		<clipPath id="clip_13">
			<rect x="-17" y="-64" width="375" height="887" clip-rule="evenodd"/>
		</clipPath>
	</defs>
	<g clip-path="url(#clip_13)">
		<path fill="rgb(255,255,255)" stroke="none" transform="translate(54.793 22.7539)" d="M3.59298 0L2.04805 3.56923L1.54985 3.56923L0 0L0.543402 0L1.81161 2.93204L3.08976 0L3.59298 0"/>
	</g>
	<defs>
		<clipPath id="clip_14">
			<rect x="-17" y="-64" width="375" height="887" clip-rule="evenodd"/>
		</clipPath>
	</defs>
	<g clip-path="url(#clip_14)">
		<path fill="rgb(255,255,255)" stroke="none" transform="translate(61.0807 22.7539)" d="M0 3.56923L0.44912 3.56923L0.44912 0L0 0L0 3.56923Z"/>
	</g>
	<defs>
		<clipPath id="clip_15">
			<rect x="-17" y="-64" width="375" height="887" clip-rule="evenodd"/>
		</clipPath>
	</defs>
	<g clip-path="url(#clip_15)">
		<path fill="rgb(255,255,255)" stroke="none" transform="translate(64.6737 22.7539)" d="M0 1.78456C0 0.752433 0.779882 0 1.83115 0C2.36398 0 2.82795 0.184277 3.14386 0.54328L2.82312 0.857208C2.55656 0.572931 2.2307 0.443579 1.85085 0.443579C1.07107 0.443579 0.49362 1.01173 0.49362 1.78456C0.49362 2.5571 1.07107 3.12525 1.85085 3.12525C2.2307 3.12525 2.55656 2.99083 2.82312 2.70695L3.14386 3.02087C2.82795 3.37958 2.36398 3.56923 1.82603 3.56923C0.779882 3.56923 0 2.8164 0 1.78456"/>
	</g>
	<defs>
		<clipPath id="clip_16">
			<rect x="-17" y="-64" width="375" height="887" clip-rule="evenodd"/>
		</clipPath>
	</defs>
	<g clip-path="url(#clip_16)">
		<path fill="rgb(255,255,255)" stroke="none" transform="translate(70.9614 22.7539)" d="M2.69474 3.12571L2.69474 3.56923L0 3.56923L0 0L2.62073 0L2.62073 0.443622L0.530859 0.443622L0.530859 1.5398L2.39236 1.5398L2.39236 1.97366L0.530859 1.97366L0.530859 3.12571L2.69474 3.12571"/>
	</g>
	<defs>
		<clipPath id="clip_17">
			<rect x="-17" y="-64" width="375" height="887" clip-rule="evenodd"/>
		</clipPath>
	</defs>
	<g clip-path="url(#clip_17)">
		<path fill="rgb(255,255,255)" stroke="none" transform="translate(79.0456 22.7539)" d="M0 1.78456C0 0.752433 0.779708 0 1.83101 0C2.36414 0 2.82793 0.184277 3.14385 0.54328L2.8232 0.857208C2.55634 0.572931 2.23066 0.443579 1.85061 0.443579C1.0709 0.443579 0.493634 1.01173 0.493634 1.78456C0.493634 2.5571 1.0709 3.12525 1.85061 3.12525C2.23066 3.12525 2.55634 2.99083 2.8232 2.70695L3.14385 3.02087C2.82793 3.37958 2.36414 3.56923 1.82598 3.56923C0.779708 3.56923 0 2.8164 0 1.78456"/>
	</g>
	<defs>
		<clipPath id="clip_18">
			<rect x="-17" y="-64" width="375" height="887" clip-rule="evenodd"/>
		</clipPath>
	</defs>
	<g clip-path="url(#clip_18)">
		<path fill="rgb(255,255,255)" stroke="none" transform="translate(84.8842 22.7539)" d="M0.881317 2.6772L2.70199 2.6772L3.07894 3.56923L3.59298 3.56923L2.0366 0L1.55168 0L0 3.56923L0.504266 3.56923L0.881317 2.6772ZM1.79165 0.519951L2.53071 2.26889L1.0525 2.26889L1.79165 0.519951Z" fill-rule="evenodd"/>
	</g>
	<defs>
		<clipPath id="clip_19">
			<rect x="-17" y="-64" width="375" height="887" clip-rule="evenodd"/>
		</clipPath>
	</defs>
	<g clip-path="url(#clip_19)">
		<path fill="rgb(255,255,255)" stroke="none" transform="translate(91.1719 22.7539)" d="M0 0L0.562462 0L0.562462 3.12571L2.69474 3.12571L2.69474 3.56923L0 3.56923L0 0"/>
	</g>
	<defs>
		<clipPath id="clip_20">
			<rect x="-17" y="-64" width="375" height="887" clip-rule="evenodd"/>
		</clipPath>
	</defs>
	<g clip-path="url(#clip_20)">
		<path fill="rgb(255,255,255)" stroke="none" transform="translate(96.1123 22.7539)" d="M0 0L0.56246 0L0.56246 3.12571L2.69473 3.12571L2.69473 3.56923L0 3.56923L0 0"/>
	</g>
	<defs>
		<clipPath id="clip_21">
			<rect x="0.0061950684" y="0.050048828" width="103.72871" height="28.913191" clip-rule="evenodd"/>
		</clipPath>
	</defs>
	<g clip-path="url(#clip_21)">
		<path fill="rgb(255,255,255)" stroke="none" transform="translate(100.951 22.6777)" d="M0 3.23195L0.190938 2.83028C0.459613 3.07231 0.919638 3.24736 1.3842 3.24736C2.00929 3.24736 2.27765 3.00564 2.27765 2.6918C2.27765 1.81142 0.0876337 2.36738 0.0876337 1.02934C0.0876337 0.473477 0.521781 0 1.47225 0C1.89577 0 2.33436 0.113104 2.63437 0.319178L2.46323 0.730607C2.14878 0.530183 1.79257 0.437213 1.47225 0.437213C0.857367 0.437213 0.594053 0.694651 0.594053 1.00859C0.594053 1.88856 2.78387 1.33794 2.78387 2.66078C2.78387 3.2114 2.33951 3.68498 1.3842 3.68498C0.831592 3.68498 0.289294 3.49966 0 3.23195"/>
	</g>
	<defs>
		<clipPath id="clip_22">
			<rect x="0.0061950684" y="0.050048828" width="103.72871" height="28.913191" clip-rule="evenodd"/>
		</clipPath>
	</defs>
	<g clip-path="url(#clip_22)">
		<path fill="rgb(255,255,255)" stroke="none" transform="translate(5.61493 0.0500488)" d="M16.9563 10.0978C17.4072 9.71119 18.0431 9.57268 18.6624 9.73276C18.6624 9.73276 18.6624 9.73276 18.6625 9.73276C20.1049 10.1037 21.6287 9.82037 22.7111 8.94466C23.9403 7.95141 24.4079 6.34082 23.9227 4.67852C23.0068 5.45695 22.091 6.23548 21.1751 7.01391C20.1761 6.61411 19.1853 6.22318 18.2028 5.84143C18.2027 5.84143 18.2027 5.84143 18.2027 5.84143C18.2027 5.84133 18.2027 5.84133 18.2027 5.84133C18.2027 5.84133 18.2027 5.84133 18.2026 5.84133C18.2027 5.84133 18.2027 5.84133 18.2027 5.84133C17.9134 4.8382 17.616 3.826 17.3102 2.80483C18.1833 1.97993 19.0565 1.15503 19.9297 0.330023C18.3022 -0.308486 16.6343 -0.00515878 15.5143 1.10714C14.5268 2.08638 14.0933 3.55725 14.327 5.01148C14.3271 5.01148 14.3271 5.01148 14.3271 5.01159C14.4283 5.63598 14.2269 6.24778 13.7936 6.65363C12.5362 8.05615 11.2728 9.45212 10.0034 10.8416C9.54675 11.2653 8.92157 11.4533 8.31659 11.3568C8.19465 11.3372 8.07303 11.3179 7.9516 11.2988C6.68848 11.0983 5.42434 11.5821 4.5561 12.5565C3.00218 14.5288 1.93986 16.0262 0.350938 17.9606C0.197474 18.1272 0.165537 18.3669 0.276553 18.5178C0.343388 18.6091 0.446241 18.6596 0.565625 18.66C0.683478 18.6605 0.803576 18.6103 0.895002 18.5218C2.35516 16.9913 3.30064 15.9108 4.74946 14.368C4.92425 14.1969 5.18037 14.1543 5.37281 14.2647C5.52934 14.3547 5.62107 14.5211 5.6128 14.7105C5.60658 14.8527 5.53393 14.9879 5.42965 15.0904C3.51114 17.0461 2.09404 18.537 0.160129 20.4758C0.00054209 20.631 -0.0525173 20.8684 0.0596217 21.0205C0.189107 21.1964 0.462771 21.1959 0.649296 21.0274C2.69535 19.1389 4.2306 17.7048 6.27309 15.8122C6.51043 15.5966 6.86827 15.5905 7.07061 15.7992C7.07398 15.8027 7.07612 15.8069 7.07939 15.8105C7.08265 15.8141 7.08663 15.8165 7.0899 15.8204C7.2804 16.0394 7.23969 16.3907 6.99929 16.6031C4.89354 18.4266 3.2987 19.796 1.19673 21.6237C1.00898 21.7907 0.981938 22.0597 1.14652 22.2042C1.28907 22.3293 1.53325 22.3001 1.70497 22.1583C3.84684 20.4458 5.4873 19.198 7.64457 17.5026C7.75804 17.4101 7.9013 17.3517 8.04517 17.3594C8.23669 17.3697 8.39526 17.476 8.47087 17.6386C8.56352 17.8386 8.49566 18.0863 8.30639 18.2416C6.61144 19.5164 5.43107 20.3411 3.74735 21.6282C3.6493 21.7094 3.58705 21.8227 3.57614 21.9385C3.56501 22.056 3.60593 22.1621 3.69134 22.2366C3.83266 22.3604 4.07704 22.3522 4.25989 22.2176C6.36308 20.8432 7.97456 19.944 10.1125 18.6076C11.1785 17.8485 11.7886 16.6525 11.7093 15.3911C11.7018 15.2698 11.6941 15.1483 11.6864 15.0266C11.6478 14.4223 11.898 13.8258 12.3691 13.418C13.8922 12.3047 15.4214 11.1981 16.9563 10.0978"/>
	</g>
	<defs>
		<clipPath id="clip_23">
			<rect x="0.0061950684" y="0.050048828" width="103.72871" height="28.913191" clip-rule="evenodd"/>
		</clipPath>
	</defs>
	<g clip-path="url(#clip_23)">
		<path fill="rgb(255,255,255)" stroke="none" transform="translate(3.05176e-05 0.594238)" d="M27.0923 10.7247C26.628 10.831 26.3183 11.2717 26.4127 11.7369C26.5731 12.5268 26.6585 13.3434 26.6585 14.1797C26.6585 21.2038 20.7586 26.8808 13.6372 26.5489C7.27671 26.2525 2.11487 21.1094 1.81708 14.7717C1.48354 7.6757 7.1812 1.79664 14.2307 1.79664C15.5103 1.79664 16.7442 1.99244 17.9062 2.35281C18.363 2.4944 18.837 2.2371 18.9918 1.78607C18.9937 1.78042 18.9957 1.77467 18.9976 1.76902C19.1615 1.29622 18.9145 0.783587 18.435 0.635124C17.1057 0.223515 15.6942 0 14.2307 0C6.15841 0 -0.365634 6.73164 0.0159268 14.8571C0.356684 22.1143 6.26732 28.0039 13.5507 28.3435C21.7055 28.7239 28.4618 22.2232 28.4618 14.1797C28.4618 13.2285 28.3654 12.2995 28.1844 11.4006C28.0852 10.9083 27.6015 10.6067 27.1107 10.7205C27.1045 10.722 27.0984 10.7234 27.0923 10.7247"/>
	</g>

</svg>