<svg width="30" height="33" viewBox="0 0 30 33" fill="none" xmlns="http://www.w3.org/2000/svg">
<path fill-rule="evenodd" clip-rule="evenodd" d="M26.7425 11.5131L29.5253 11.7671C29.7958 11.7921 30.0013 12.0082 30 12.2654V16.3076C30.0015 16.5648 29.7958 16.7809 29.5253 16.8059L26.7422 17.0601C26.4418 18.1804 25.9653 19.2514 25.329 20.2377L27.1036 22.2673C27.2858 22.4756 27.2605 22.7832 27.0468 22.9622L24.763 24.874C24.6512 24.9676 24.5028 25.0121 24.3543 24.9965C24.2059 24.9808 24.0714 24.9065 23.9842 24.7919L20.5876 20.3328C20.4358 20.1335 20.459 19.8595 20.6425 19.6856C23.7909 16.7039 23.7909 11.8693 20.6425 8.88738C17.4942 5.90544 12.3899 5.90544 9.24155 8.88738C6.09324 11.8693 6.0935 16.7039 9.24155 19.6856C9.42276 19.8573 9.44805 20.1272 9.3017 20.3262L6.02045 24.7855C5.93424 24.9026 5.79924 24.9794 5.64953 24.9965C5.49956 25.0134 5.34933 24.9689 5.23653 24.8743L2.95344 22.9617C2.73972 22.7825 2.71468 22.4752 2.89665 22.2671L4.67176 20.2377C4.03575 19.2514 3.55951 18.1801 3.25932 17.0601L0.474695 16.8059C0.204183 16.7809 -0.00154008 16.5648 8.68689e-06 16.3076V12.2659C-0.00128197 12.0084 0.204441 11.7926 0.474953 11.7676L3.25622 11.5134C3.55177 10.3909 4.02878 9.3184 4.67021 8.33388L2.89691 6.3059C2.72268 6.1069 2.73714 5.81523 2.92995 5.63236L5.93991 2.78097C6.13299 2.59835 6.44093 2.5849 6.65078 2.74968L8.79371 4.43073C9.83498 3.82809 10.9658 3.37653 12.1485 3.09195L12.4172 0.452535C12.4433 0.195829 12.671 0 12.9433 0H17.057C17.3293 0 17.5572 0.195829 17.5833 0.452535L17.8517 3.09195C19.0344 3.37677 20.1653 3.82809 21.2065 4.43073L23.3495 2.75017C23.5596 2.58539 23.8675 2.59884 24.0603 2.78146L27.0703 5.6326C27.2631 5.81523 27.2776 6.1069 27.1033 6.3059L25.3295 8.33412C25.9704 9.31865 26.4472 10.3909 26.7425 11.5131ZM26.2616 16.0976L28.9427 15.8527V12.7204L26.2614 12.4754C26.0332 12.4544 25.8458 12.2954 25.7988 12.0828C25.5141 10.8305 24.9842 9.63989 24.2364 8.57249C24.1078 8.38864 24.1215 8.1466 24.2699 7.97669L25.9823 6.01815L23.653 3.81195L21.5855 5.43384C21.4068 5.57417 21.1526 5.58762 20.9587 5.46709C19.8269 4.76396 18.5693 4.26155 17.2475 3.98504C17.0239 3.9381 16.8577 3.76012 16.8358 3.54424L16.5769 1.00164H13.4234L13.1648 3.54424C13.1428 3.76012 12.9766 3.9381 12.7528 3.98504C11.4312 4.26155 10.1736 4.76372 9.04177 5.46684C8.84792 5.58737 8.59367 5.57393 8.41505 5.43359L6.34723 3.81171L4.01794 6.01815L5.73058 7.97669C5.87926 8.1466 5.89319 8.38864 5.76465 8.57273C5.01713 9.64014 4.4872 10.8305 4.20275 12.0828C4.155 12.2957 3.96709 12.4544 3.73839 12.4754L1.05728 12.7206V15.8527L3.73839 16.0976C3.96554 16.1186 4.15242 16.2763 4.20043 16.4878C4.49262 17.7396 5.02281 18.9307 5.76517 20.0027C5.89216 20.1866 5.87796 20.4271 5.73006 20.5966L4.03704 22.5326L5.49233 23.7516L8.18738 20.0888C4.94201 16.7034 5.04397 11.4469 8.49403 8.17912C12.0494 4.81163 17.8347 4.81163 21.3901 8.17912C24.8383 11.4451 24.9421 16.6978 21.7016 20.0836L24.5002 23.7577L25.963 22.5329L24.2697 20.5968C24.1218 20.4279 24.1073 20.1871 24.2343 20.0032C24.9764 18.9309 25.5063 17.7398 25.7978 16.4878C25.8465 16.2761 26.0339 16.1184 26.2616 16.0976Z" fill="white"/>
<path fill-rule="evenodd" clip-rule="evenodd" d="M17.3937 16.8493V24.9572C19.0122 25.5986 20.0003 27.0783 20 28.9081C19.9815 30.8964 18.8271 32.454 16.9868 32.9788C16.8155 33.0278 16.6306 32.9906 16.4923 32.8792C16.354 32.7679 16.2804 32.5969 16.2952 32.4216L16.4881 30.1429C16.0348 29.9095 15.4942 29.9098 15.0415 30.1437L15.22 32.4094C15.2333 32.5807 15.162 32.7478 15.0285 32.8586C14.895 32.9694 14.7157 33.0104 14.5461 32.9687C12.5504 32.4772 11.3568 30.9537 11.3568 28.8929C11.3393 27.1635 12.45 25.8043 13.6028 25.1345V17.0579C11.9753 16.4165 11 14.9366 11 13.1071C11 11.1138 12.152 9.54837 14.0012 9.02117C14.1726 8.97215 14.3575 9.00944 14.4958 9.12077C14.6341 9.2321 14.7077 9.40314 14.6929 9.57835L14.5 11.8569C14.9533 12.0905 15.4936 12.0902 15.9466 11.8563L15.7673 9.59034C15.754 9.42087 15.8234 9.25531 15.954 9.14423C16.0849 9.03342 16.2613 8.9904 16.4298 9.02847C18.4517 9.48501 19.6588 10.9983 19.6588 13.076C19.6588 14.5966 18.7611 16.0721 17.3937 16.8493ZM17.5961 29.9145L17.4517 31.622H17.452C18.3603 31.0747 18.9041 30.0915 18.9158 28.9034C18.9158 27.4266 18.0652 26.2536 16.6952 25.8463C16.4663 25.7783 16.3095 25.5707 16.3095 25.3353V16.5273C16.3095 16.3211 16.43 16.1334 16.6192 16.045C17.7704 15.5068 18.5743 14.2861 18.5743 13.0763C18.5743 11.7784 17.9786 10.804 16.9132 10.3126L17.0536 12.0879C17.0671 12.2605 16.9951 12.4289 16.86 12.5397L16.8454 12.5512C15.9003 13.2752 14.5782 13.2828 13.6243 12.5694L13.6042 12.5543C13.4564 12.444 13.3764 12.267 13.3917 12.085L13.5356 10.3775C12.6262 10.9266 12.0869 11.9132 12.0869 13.1065C12.0869 14.5883 12.9358 15.7613 14.3056 16.1683C14.5339 16.2369 14.6894 16.4447 14.6881 16.6796V25.457C14.6894 25.6638 14.5689 25.8526 14.379 25.9407C13.4362 26.3756 12.4312 27.4829 12.4453 28.8877C12.4453 30.177 13.0293 31.1558 14.0738 31.6681L13.9353 29.9116C13.9212 29.734 13.9981 29.5612 14.14 29.4509C15.0854 28.725 16.4088 28.7164 17.3641 29.43L17.3844 29.4454C17.5317 29.556 17.6115 29.7327 17.5961 29.9145Z" fill="white"/>
</svg>
