<svg width="24" height="24" viewBox="0 0 24 24" fill="none" xmlns="http://www.w3.org/2000/svg">
<path d="M11.9459 23.8918C18.5434 23.8918 23.8918 18.5434 23.8918 11.9459C23.8918 5.34836 18.5434 0 11.9459 0C5.34836 0 0 5.34836 0 11.9459C0 18.5434 5.34836 23.8918 11.9459 23.8918Z" fill="#EB6D4A"/>
<mask id="mask0" mask-type="alpha" maskUnits="userSpaceOnUse" x="0" y="0" width="24" height="24">
<path d="M11.9459 23.8918C18.5434 23.8918 23.8918 18.5434 23.8918 11.9459C23.8918 5.34836 18.5434 0 11.9459 0C5.34836 0 0 5.34836 0 11.9459C0 18.5434 5.34836 23.8918 11.9459 23.8918Z" fill="white"/>
</mask>
<g mask="url(#mask0)">
<path d="M17.262 6.70273V10.673C17.262 10.7305 17.2606 10.7879 17.2593 10.8453C17.2568 10.9642 17.2502 11.0829 17.2398 11.2004C17.2372 11.2409 17.2332 11.2813 17.228 11.3218C17.2109 11.4902 17.1876 11.656 17.1575 11.8206C17.1469 11.8754 17.1365 11.9289 17.1247 11.9825C17.1235 11.9942 17.1209 12.0047 17.1182 12.0151C17.1077 12.07 17.0946 12.1236 17.0817 12.177C17.0765 12.2057 17.0686 12.2344 17.0621 12.2632C17.0555 12.288 17.049 12.3129 17.0413 12.3377C17.0137 12.4447 16.9825 12.5492 16.9497 12.6536C16.9341 12.7032 16.9185 12.7515 16.9015 12.8011C16.9001 12.8063 16.8975 12.8116 16.8963 12.8168C16.8805 12.8611 16.8649 12.9055 16.8493 12.9498C16.8441 12.9629 16.8389 12.9759 16.8335 12.9903C16.8179 13.0321 16.8023 13.0739 16.7853 13.1157C16.7657 13.1666 16.7449 13.2163 16.724 13.2659C16.7057 13.3103 16.6861 13.3547 16.6666 13.3991C16.664 13.407 16.66 13.4135 16.6574 13.4212C16.6352 13.4682 16.6144 13.5153 16.5921 13.5609C16.5699 13.6091 16.5464 13.6575 16.5215 13.7059C16.4746 13.8011 16.4236 13.8965 16.3727 13.9892C16.3492 14.031 16.3257 14.0728 16.3021 14.1145C16.1011 14.4606 15.8779 14.7857 15.6351 15.0858C15.6023 15.1289 15.5685 15.1707 15.5332 15.2112C15.4848 15.2698 15.4352 15.3274 15.3857 15.3835C15.3412 15.4331 15.2969 15.4827 15.2512 15.531C15.1259 15.6655 14.9979 15.7935 14.8673 15.9137C14.8413 15.9398 14.8137 15.9633 14.7863 15.9881C14.742 16.0286 14.6977 16.0677 14.6518 16.1055C14.6167 16.1369 14.5801 16.1669 14.5434 16.197C14.4494 16.2739 14.3555 16.3483 14.2602 16.4175C14.221 16.4476 14.1805 16.4763 14.1401 16.5037C14.0748 16.5507 14.0083 16.5952 13.9416 16.6382C13.905 16.663 13.8672 16.6865 13.8292 16.7087C13.696 16.791 13.5617 16.8667 13.4285 16.9319C13.3958 16.9488 13.3632 16.9646 13.3306 16.9802C13.2978 16.9958 13.264 17.0116 13.2287 17.0272C13.1855 17.0467 13.1425 17.065 13.0995 17.082C13.0824 17.0899 13.0654 17.0964 13.0485 17.1016C12.9977 17.1225 12.9454 17.1421 12.8945 17.159C12.8305 17.1825 12.7652 17.202 12.7014 17.2203C12.6569 17.2334 12.6113 17.2451 12.5669 17.2555C12.5642 17.2569 12.5617 17.2582 12.5577 17.2582C12.5133 17.2686 12.469 17.2791 12.4245 17.2869C12.4127 17.2895 12.4012 17.2921 12.3894 17.2933C12.3528 17.2998 12.3162 17.3064 12.2796 17.3103C12.2275 17.3182 12.1753 17.3247 12.1231 17.3274C12.1049 17.3299 12.0879 17.3313 12.0695 17.3313C12.0278 17.334 11.9861 17.3352 11.9454 17.3352H11.9416C11.9011 17.3352 11.8606 17.334 11.8202 17.3313C11.8045 17.3313 11.7888 17.33 11.7731 17.3274C11.7367 17.3261 11.6987 17.322 11.6596 17.3168C11.6517 17.3168 11.6426 17.3156 11.6348 17.3143C11.5864 17.3078 11.5382 17.2999 11.4885 17.2908C11.4469 17.2843 11.4051 17.275 11.3619 17.2646C11.1387 17.2137 10.909 17.1368 10.6766 17.0335C10.4781 16.946 10.2771 16.8404 10.0774 16.7176C9.97678 16.6563 9.87621 16.591 9.77704 16.5218C9.72739 16.4865 9.67786 16.4513 9.62821 16.4147C9.47278 16.3011 9.31875 16.1771 9.16726 16.0439C9.12561 16.0061 9.08383 15.9683 9.04205 15.929C9.00028 15.8912 8.9585 15.8521 8.91799 15.8142C8.81602 15.7163 8.71685 15.6145 8.62021 15.5087C8.58237 15.4683 8.54453 15.4265 8.50656 15.3834C8.40218 15.2659 8.30034 15.1445 8.2037 15.0178C8.16574 14.9721 8.13056 14.9251 8.09526 14.8781C7.96345 14.7032 7.83812 14.5204 7.72053 14.331C7.68929 14.2801 7.65793 14.2278 7.62796 14.177C7.59139 14.1157 7.55621 14.0531 7.52091 13.9903C7.39037 13.7553 7.27012 13.5112 7.16574 13.2592C7.15012 13.2226 7.13437 13.186 7.12129 13.1496C7.10034 13.1026 7.08205 13.0542 7.06516 13.0072C7.03913 12.938 7.01437 12.8688 6.99075 12.7996C6.96726 12.7304 6.94516 12.6599 6.92294 12.5895C6.90199 12.5215 6.88243 12.4537 6.86415 12.3845C6.8432 12.3114 6.82377 12.237 6.80675 12.1613C6.80536 12.1534 6.80282 12.1457 6.80155 12.1378C6.77678 12.0334 6.75456 11.9276 6.73501 11.8206C6.70885 11.6795 6.68802 11.5359 6.67228 11.391C6.6658 11.3453 6.66186 11.2996 6.65793 11.2538C6.65272 11.2056 6.64891 11.1585 6.64624 11.1102C6.63964 11.0227 6.6357 10.934 6.63304 10.8452C6.63177 10.7877 6.63037 10.7303 6.63037 10.6729V6.70273C6.63037 3.76914 9.00789 1.39048 11.9415 1.38781H11.9467C12.3515 1.38781 12.7457 1.4334 13.1242 1.51835C13.4702 1.5967 13.8032 1.70895 14.1191 1.8513C14.55 2.04457 14.9508 2.29257 15.3111 2.58895C15.614 2.83708 15.8895 3.11644 16.1297 3.42451C16.839 4.328 17.262 5.46514 17.262 6.70273Z" fill="#ECC19C"/>
<path d="M18.8715 25.4909V25.4922H5.02075V25.4909C5.02075 24.709 5.15002 23.9556 5.39028 23.2545C5.43332 23.1279 5.48031 23.0025 5.53123 22.8785V22.8772C5.58202 22.7531 5.63561 22.6317 5.69301 22.5116C5.92158 22.0298 6.20615 21.5794 6.53643 21.1669C6.61999 21.0637 6.70482 20.9632 6.79243 20.8665C6.83548 20.8169 6.8812 20.7686 6.92691 20.7204C6.97262 20.6734 7.01834 20.6264 7.06532 20.5794C7.2991 20.3458 7.54964 20.1317 7.81351 19.9345C7.94532 19.8366 8.07853 19.7451 8.21694 19.6564C8.35536 19.5689 8.49631 19.4853 8.63993 19.407C8.64259 19.4044 8.64513 19.4044 8.64513 19.4044C8.70126 19.3745 8.75612 19.3418 8.81097 19.3078C8.91942 19.2425 9.02634 19.1721 9.12831 19.0964C9.1805 19.0598 9.23015 19.022 9.27967 18.9815C9.39713 18.8875 9.51066 18.7869 9.6191 18.6811C9.65428 18.646 9.6897 18.6107 9.72488 18.5741C9.79789 18.4983 9.8671 18.4187 9.93377 18.3378C9.96653 18.2987 9.99916 18.2582 10.0291 18.2177C10.0605 18.1773 10.0905 18.1355 10.1206 18.0936C10.3529 17.7698 10.5396 17.4135 10.6768 17.0334C10.8426 16.5712 10.9326 16.0738 10.9326 15.5542L11.9419 15.5594L12.9797 15.5646C12.9797 16.0776 13.0672 16.5698 13.2291 17.0268C13.3637 17.408 13.5503 17.7644 13.7788 18.0883C14.0164 18.425 14.2997 18.7253 14.6209 18.9825C14.6693 19.0217 14.7175 19.0596 14.7659 19.0947C14.8129 19.13 14.8611 19.1639 14.9108 19.1966C14.9213 19.2044 14.9303 19.2109 14.9409 19.2175C14.9879 19.2489 15.0348 19.2803 15.0845 19.309C15.138 19.3416 15.1929 19.3742 15.2477 19.4043C15.2567 19.4069 15.2647 19.4108 15.2712 19.4161C15.3861 19.4801 15.4997 19.5467 15.6107 19.6159C15.6642 19.6485 15.7178 19.6824 15.77 19.7204C15.8784 19.7909 15.9842 19.8653 16.0872 19.9436C16.0872 19.945 16.0886 19.945 16.0886 19.945H16.0898C16.3536 20.1421 16.603 20.3575 16.8366 20.59C18.0948 21.8432 18.8715 23.5744 18.8715 25.4909Z" fill="#ECC19C"/>
<path d="M18.8717 25.4912H5.02087C5.02087 24.7091 5.15027 23.9558 5.3904 23.2547C5.43345 23.128 5.48043 23.0028 5.53135 22.8787C5.52995 22.8773 5.53135 22.8773 5.53135 22.8773C5.581 22.7533 5.63573 22.6319 5.69313 22.5119C5.9217 22.0301 6.20627 21.5797 6.53656 21.1671C6.62011 21.0639 6.70506 20.9634 6.79256 20.8668C6.8356 20.8171 6.88132 20.7689 6.92703 20.7206C6.97275 20.6737 7.01846 20.6267 7.06545 20.5797C7.29922 20.346 7.54976 20.1318 7.81364 19.9347C7.94545 19.8368 8.07865 19.7454 8.21706 19.6566C8.35548 19.5679 8.49643 19.4843 8.64005 19.406C8.64272 19.4034 8.64526 19.4047 8.64526 19.4047V19.4034C8.70138 19.3721 8.75624 19.3407 8.8111 19.3081C8.97427 19.2089 9.1311 19.0992 9.27726 18.979C9.27852 18.9803 9.27852 18.9803 9.27992 18.9816C9.95611 19.6735 10.8974 20.103 11.942 20.1057H11.9524C12.9969 20.1057 13.9421 19.6748 14.621 18.9829L14.6224 18.9816C14.715 19.0585 14.8116 19.1304 14.9109 19.197C14.9213 19.2047 14.9305 19.2113 14.9409 19.2178C14.9879 19.2491 15.0361 19.2791 15.0845 19.3092C15.1381 19.3418 15.1929 19.3732 15.2477 19.4032C15.2568 19.4057 15.2633 19.4109 15.2712 19.4149C15.3861 19.4789 15.4997 19.5454 15.6107 19.6159C15.6642 19.6485 15.7178 19.6824 15.77 19.7204C15.8784 19.7896 15.9842 19.8653 16.0872 19.9436H16.0898C16.355 20.1421 16.6042 20.3575 16.8366 20.5898C18.0949 21.8434 18.8717 23.5746 18.8717 25.4912Z" fill="#C7D4E2"/>
<path d="M17.262 10.673C17.262 10.7305 17.2606 10.7879 17.2593 10.8453C17.2568 10.9642 17.2502 11.0829 17.2398 11.2004C17.2372 11.2409 17.2332 11.2813 17.228 11.3218C17.2109 11.4902 17.1876 11.656 17.1575 11.8206C17.1469 11.8754 17.1365 11.9289 17.1247 11.9825C17.1235 11.9942 17.1209 12.0047 17.1182 12.0151C17.1077 12.07 17.0946 12.1236 17.0817 12.177C17.0751 12.2084 17.0673 12.2384 17.0581 12.2684C17.0542 12.2919 17.0476 12.3154 17.0412 12.3377C17.0136 12.4447 16.9824 12.5492 16.9496 12.6536C16.934 12.7032 16.9184 12.7515 16.9014 12.8011C16.9 12.8063 16.8974 12.8116 16.8962 12.8168C16.8804 12.8611 16.8648 12.9055 16.8492 12.9498C16.844 12.9629 16.8388 12.9759 16.8334 12.9904C16.8178 13.0321 16.8022 13.0739 16.7852 13.1157C16.7656 13.1666 16.7448 13.2163 16.7238 13.2659C16.7056 13.3104 16.686 13.3547 16.6664 13.3991C16.6639 13.407 16.6598 13.4135 16.6573 13.4212C16.6351 13.4682 16.6142 13.5153 16.592 13.5609C16.5698 13.6091 16.5463 13.6575 16.5214 13.7059C16.4744 13.8011 16.4235 13.8965 16.3726 13.9892C16.3491 14.031 16.3256 14.0728 16.302 14.1145C16.101 14.4606 15.8777 14.7857 15.6349 15.0858C15.6022 15.1289 15.5684 15.1707 15.5331 15.2112C15.4847 15.2698 15.4351 15.3274 15.3856 15.3835C15.3411 15.4331 15.2968 15.4827 15.2511 15.531C15.1257 15.6655 14.9977 15.7935 14.8672 15.9137C14.8412 15.9398 14.8136 15.9633 14.7862 15.9881C14.7419 16.0286 14.6976 16.0677 14.6517 16.1055C14.6165 16.1369 14.58 16.1669 14.5433 16.197C14.4493 16.2739 14.3553 16.3483 14.2601 16.4175C14.2209 16.4476 14.1803 16.4763 14.14 16.5037C14.0747 16.5507 14.0082 16.5952 13.9415 16.6382C13.9049 16.663 13.8671 16.6865 13.8291 16.7087C13.6959 16.791 13.5616 16.8667 13.4283 16.9319C13.3957 16.9488 13.3631 16.9646 13.3304 16.9802C13.2977 16.9958 13.2639 17.0116 13.2286 17.0272C13.1854 17.0467 13.1424 17.065 13.0993 17.082C13.0823 17.0899 13.0653 17.0964 13.0484 17.1016C12.9976 17.1225 12.9453 17.1421 12.8944 17.159C12.8304 17.1825 12.7651 17.202 12.7012 17.2203C12.6568 17.2334 12.6112 17.2451 12.5668 17.2555C12.5641 17.2569 12.5616 17.2582 12.5576 17.2582C12.5132 17.2686 12.4689 17.2791 12.4244 17.2869C12.4126 17.2895 12.401 17.2921 12.3892 17.2933C12.3527 17.2998 12.3161 17.3064 12.2795 17.3103C12.2273 17.3182 12.1751 17.3247 12.1229 17.3274C12.1048 17.3299 12.0878 17.3313 12.0694 17.3313C12.0277 17.334 11.9859 17.3352 11.9453 17.3352H11.9415C11.901 17.3352 11.8605 17.334 11.8201 17.3313C11.8043 17.3313 11.7887 17.33 11.773 17.3274C11.7365 17.3261 11.6986 17.322 11.6595 17.3168C11.6516 17.3168 11.6424 17.3156 11.6347 17.3143C11.5863 17.3078 11.5381 17.2999 11.4884 17.2908C11.4468 17.2843 11.405 17.275 11.3618 17.2646C11.1386 17.2137 10.9089 17.1368 10.6765 17.0335C10.478 16.946 10.277 16.8404 10.0772 16.7176C9.97666 16.6575 9.87749 16.5923 9.77692 16.5218C9.72726 16.4865 9.67774 16.4513 9.62809 16.4147C9.47266 16.3011 9.31863 16.1771 9.16714 16.0439C9.12549 16.0061 9.08371 15.9683 9.04193 15.929C9.00015 15.8912 8.95838 15.8521 8.91787 15.8142C8.8159 15.7163 8.71673 15.6145 8.62009 15.5087C8.58225 15.4683 8.54441 15.4265 8.50644 15.3834C8.40206 15.2659 8.30022 15.1445 8.20358 15.0178C8.16561 14.9721 8.13044 14.9251 8.09514 14.8781C7.96333 14.7032 7.838 14.5204 7.72041 14.331C7.68917 14.2801 7.6578 14.2278 7.62784 14.177C7.59126 14.1157 7.55609 14.0531 7.52079 13.9904C7.39025 13.7553 7.27 13.5112 7.16561 13.2592C7.15 13.2226 7.13425 13.186 7.12117 13.1496C7.10022 13.1026 7.08193 13.0542 7.06504 13.0072C7.03901 12.938 7.01425 12.8688 6.99063 12.7996C6.96714 12.7304 6.94504 12.6599 6.92282 12.5895C6.90187 12.5215 6.88231 12.4537 6.86403 12.3845C6.84307 12.3114 6.82365 12.237 6.80663 12.1613C6.80523 12.1534 6.80269 12.1457 6.80142 12.1378C6.77666 12.0334 6.75444 11.9276 6.73488 11.8206C6.70873 11.6795 6.6879 11.5359 6.67215 11.391C6.66568 11.3453 6.66174 11.2996 6.6578 11.2538C6.6526 11.2056 6.64879 11.1585 6.64612 11.1102C6.63952 11.0227 6.63558 10.934 6.63292 10.8452C6.63165 10.7877 6.63025 10.7303 6.63025 10.6729L7.47901 12.3415L8.9373 12.9773L10.6619 13.1327L11.9414 13.2489H11.9492L13.1464 13.3573L15.8137 13.5976L17.262 10.673Z" fill="#543E36"/>
<path d="M16.1299 3.42451C15.8701 4.01333 15.5319 4.56038 15.1325 5.05651C15.109 5.08533 15.0855 5.11403 15.0607 5.14273C14.2422 6.12838 13.169 6.89486 11.9417 7.3426C11.6192 7.46146 11.2864 7.55797 10.9443 7.62984C10.7158 7.6781 10.4834 7.71606 10.2471 7.74349C9.9755 7.77346 9.6988 7.78921 9.41817 7.78921C9.09702 7.78921 8.78236 7.76825 8.47302 7.72787C8.17004 7.69003 7.87366 7.63391 7.58388 7.55822C7.41804 7.51645 7.25613 7.46819 7.0955 7.4146C6.93753 7.36241 6.7835 7.30489 6.63074 7.24229V6.70311C6.63074 3.76952 9.00826 1.39086 11.9418 1.38819H11.9471C12.3519 1.38819 12.746 1.43378 13.1246 1.51873C13.4706 1.59708 13.8036 1.70933 14.1195 1.85168C14.5504 2.04495 14.9511 2.29295 15.3115 2.58933C15.6142 2.83695 15.8898 3.11645 16.1299 3.42451Z" fill="#543E36"/>
<path d="M17.262 6.70274V7.74845C16.3558 7.04737 15.6052 6.1609 15.0634 5.14782C15.0621 5.14655 15.0621 5.14388 15.0607 5.14261C14.5281 4.14782 14.1977 3.0315 14.1195 1.85118C14.5504 2.04445 14.9511 2.29245 15.3115 2.58883C15.6144 2.83696 15.8899 3.11632 16.13 3.42439C16.839 4.32801 17.262 5.46515 17.262 6.70274Z" fill="#543E36"/>
<path d="M7.25335 7.11277C7.19735 7.21067 7.1463 7.31124 7.09538 7.41435C7.07595 7.45473 7.05627 7.49791 7.03672 7.53969C6.77957 8.1115 6.65018 8.67289 6.63189 9.17956C6.63189 9.19391 6.63049 9.20953 6.63049 9.224V7.17677C6.63049 7.10362 6.63316 7.03175 6.63316 6.96127C6.83951 7.01486 7.04573 7.06705 7.25335 7.11277Z" fill="#543E36"/>
<path d="M16.6418 7.11276C16.7208 7.25156 16.7913 7.39378 16.859 7.53956C17.1241 8.12915 17.2539 8.70502 17.2651 9.22438V7.17613C17.2651 7.10413 17.2624 7.03213 17.2624 6.96178C17.0563 7.01499 16.8505 7.06642 16.6418 7.11276Z" fill="#543E36"/>
<path fill-rule="evenodd" clip-rule="evenodd" d="M16.6314 7.64026C16.6314 7.61804 16.6144 7.59848 16.5921 7.59581C16.4042 7.56712 15.5581 7.4508 14.6481 7.4508C13.9477 7.4508 13.1091 7.59976 12.5695 7.69562C12.3135 7.74109 12.1248 7.77461 12.05 7.77461H11.8438C11.77 7.77461 11.5853 7.74191 11.3348 7.69754L11.3348 7.69754C11.2175 7.67677 11.0858 7.65345 10.9443 7.62972C10.4338 7.5435 9.79671 7.4508 9.24573 7.4508C8.57995 7.4508 7.94795 7.51353 7.58376 7.55785C7.45055 7.57359 7.35265 7.58781 7.30173 7.59569C7.2795 7.59835 7.26249 7.61791 7.26249 7.64013L7.25208 8.19493C7.25208 8.21448 7.26388 8.2315 7.28204 8.23937L7.34465 8.26159C7.37313 8.27244 7.39213 8.43782 7.41924 8.67386C7.48039 9.2061 7.58281 10.0976 7.92827 10.3871C8.22465 10.6338 8.48839 10.7747 9.59938 10.7747C10.2431 10.7747 10.6478 10.6011 11.0316 10.0828C11.3085 9.71073 11.5538 8.83073 11.5538 8.83073C11.6282 8.46781 11.8984 8.43912 11.9416 8.43645H11.9468C11.9558 8.43645 12.2602 8.44166 12.3398 8.83073C12.3398 8.83073 12.5853 9.71073 12.862 10.0828C13.2457 10.6011 13.6506 10.7747 14.2941 10.7747C15.4052 10.7747 15.6688 10.6338 15.9652 10.3871C16.3108 10.0976 16.4132 9.20602 16.4743 8.67379C16.5014 8.43778 16.5204 8.27244 16.5488 8.26159L16.6116 8.23937C16.6297 8.2315 16.6415 8.21461 16.6415 8.19493L16.6314 7.64026ZM11.0318 9.61943C10.8686 10.0058 10.4469 10.5046 9.85284 10.5346C8.12814 10.6217 7.99552 10.1587 7.8846 9.77135L7.87354 9.73296C7.75735 9.33867 7.72738 8.99264 7.77296 8.59835C7.81995 8.20407 7.91925 7.97296 8.09817 7.85677C8.17512 7.80585 8.25881 7.76013 8.4729 7.7275C8.66477 7.6988 8.96115 7.68178 9.45461 7.68178C9.74046 7.68178 10.0081 7.704 10.247 7.74312C10.8815 7.84496 11.3097 8.06045 11.3097 8.27315C11.3097 8.41829 11.2732 9.0475 11.0318 9.61943ZM16.0092 9.77126C16.0129 9.7584 16.0165 9.74563 16.0202 9.73296C16.1365 9.3388 16.1666 8.99277 16.1209 8.59848C16.0738 8.20419 15.9746 7.97308 15.7958 7.85689C15.6494 7.76026 15.4824 7.68191 14.4392 7.68191C13.3962 7.68191 12.5841 7.98096 12.5841 8.2734C12.5841 8.41829 12.6206 9.04762 12.8621 9.61943C13.0253 10.0058 13.447 10.5046 14.041 10.5346C15.7659 10.6217 15.8984 10.1586 16.0092 9.77126Z" fill="#1A1A1A"/>
<path d="M11.9521 11.5111L11.9507 12.7985L11.9495 13.2489V13.6027L11.9481 14.7777V14.7789L11.9468 14.7777H11.9454L11.9416 14.775L6.80687 12.1614C6.80548 12.1535 6.80294 12.1458 6.80167 12.1379C6.77691 12.0335 6.75468 11.9277 6.73513 11.8207C6.70897 11.6796 6.68814 11.536 6.6724 11.3911C6.66592 11.3454 6.66199 11.2997 6.65805 11.254C6.65284 11.2057 6.64903 11.1586 6.64637 11.1104C6.63976 11.0229 6.63583 10.9341 6.63316 10.8453C6.63189 10.7878 6.63049 10.7304 6.63049 10.673V9.11289C6.63049 9.13511 6.63189 9.15734 6.63189 9.17943C6.6423 9.5567 6.70237 9.97194 6.81856 10.3962C6.90872 10.7225 7.02097 11.0241 7.15151 11.2931V11.2944C7.4936 12.006 7.95189 12.4889 8.37348 12.5672C8.39964 12.5712 8.42706 12.5737 8.45322 12.5764C8.6164 12.5947 8.78745 12.6051 8.9637 12.6051C9.62948 12.6051 10.221 12.0698 10.593 11.8531C10.5957 11.8518 10.5982 11.8504 10.6009 11.8491C10.6205 11.8373 10.6401 11.8257 10.657 11.8138C10.6622 11.8099 10.6674 11.8074 10.6727 11.8047C10.986 11.6258 11.4377 11.5123 11.9417 11.511H11.9521V11.5111Z" fill="#543E36"/>
<path d="M17.263 9.11289L17.2618 10.673C17.2618 11.0648 17.2252 11.4485 17.1574 11.8207C17.1298 11.9695 17.0986 12.117 17.062 12.2632L15.857 14.0036L11.9481 14.7778H11.9469L11.9455 14.7791V14.7778L11.9417 11.5109H11.9521C12.4561 11.5121 12.909 11.6258 13.2224 11.8046C13.2276 11.8072 13.2314 11.8098 13.2368 11.8137C13.255 11.8255 13.2746 11.8372 13.2942 11.849C13.2954 11.8503 13.298 11.8517 13.3006 11.853C13.6741 12.0697 14.2642 12.6053 14.9301 12.6053C15.1063 12.6053 15.2773 12.5949 15.4404 12.5766C15.4679 12.574 15.494 12.5714 15.5215 12.5675C15.9419 12.4891 16.4015 12.0061 16.7422 11.2946V11.2933C16.8726 11.0244 16.985 10.7228 17.075 10.3964C17.1926 9.96559 17.2539 9.54527 17.2618 9.16267C17.263 9.14553 17.263 9.12978 17.263 9.11289Z" fill="#543E36"/>
<path d="M11.9459 13.6032C12.6651 13.6032 13.2481 13.423 13.2481 13.2006C13.2481 12.9783 12.6651 12.7981 11.9459 12.7981C11.2267 12.7981 10.6437 12.9783 10.6437 13.2006C10.6437 13.423 11.2267 13.6032 11.9459 13.6032Z" fill="#ECC19C"/>
<path d="M8.14366 19.7046V26.8866H7.58887V20.1095C7.66328 20.0494 7.73769 19.9906 7.8135 19.9345C7.92182 19.8536 8.03141 19.7778 8.14366 19.7046Z" fill="#435363"/>
<path d="M15.7487 19.706V25.4909V26.8866H16.3035V25.4909V20.1107L15.7487 19.706Z" fill="#435363"/>
<path d="M10.4271 19.2651L11.946 21.0856L13.465 19.2651H10.4271Z" fill="#141720"/>
<path d="M11.9459 28.6269H11.0477L11.6966 20.2714C11.7239 20.3777 12.168 20.3777 12.1953 20.2714L12.8442 28.6269H11.9459Z" fill="#141720"/>
<path d="M11.9454 19.2556L11.9416 19.2621L11.9402 19.2648L11.3096 20.3236L10.7207 21.3105L9.12659 19.095C9.17751 19.0584 9.22843 19.0193 9.27681 18.9788C9.27808 18.9801 9.27808 18.9801 9.27948 18.9815C9.59922 18.7269 9.88392 18.4279 10.1202 18.0937L11.9416 19.2531L11.9454 19.2556Z" fill="#E7ECF2"/>
<path d="M14.7655 19.095L13.1713 21.3105L12.5825 20.3236L11.9505 19.2648L11.9453 19.2556L13.7785 18.0885C14.016 18.4253 14.2993 18.7256 14.6205 18.9827C14.669 19.0218 14.7171 19.0598 14.7655 19.095Z" fill="#E7ECF2"/>
</g>
</svg>
