<svg width="26" height="27" viewBox="0 0 26 27" fill="none" xmlns="http://www.w3.org/2000/svg">
<path d="M24.6939 24.4251H24.1429V11.0471H24.1424C23.4655 11.0471 22.8245 10.8293 22.2912 10.4625C21.9321 10.7115 21.5186 10.8955 21.0613 10.9854C20.8515 11.0266 20.6382 11.0471 20.4271 11.0471C20.2871 11.0471 20.1501 11.0318 20.0141 11.0143V20.9656C20.0141 21.5335 19.547 21.994 18.9705 21.994H15.2214V19.1756L16.5433 21.3504C16.6993 21.6076 16.9757 21.75 17.2593 21.75C17.4047 21.75 17.5527 21.7123 17.687 21.633C18.0816 21.3995 18.2101 20.895 17.9731 20.5055L15.3161 16.1332C15.1516 15.8619 14.8529 15.7279 14.5538 15.7446C14.5338 15.7427 11.4753 15.7423 11.4567 15.7436C11.1536 15.7231 10.8504 15.8585 10.6833 16.1332L8.02626 20.5055C7.78934 20.895 7.91774 21.3995 8.31247 21.633C8.44675 21.7123 8.59476 21.75 8.74013 21.75C9.02371 21.75 9.30017 21.6076 9.45619 21.3504L10.7865 19.1616V21.994H7.02937C6.45286 21.994 5.98576 21.5336 5.98576 20.9656V11.0143C5.8498 11.0318 5.71282 11.0471 5.57283 11.0471C5.36303 11.0471 5.14965 11.0266 4.93638 10.9849C4.47942 10.8951 4.06694 10.7115 3.70824 10.4625C3.17492 10.8293 2.53443 11.0471 1.85742 11.0471H1.85697V24.4251H1.3059C0.58452 24.4251 0 25.0013 0 25.7126C0 26.4238 0.58452 27 1.3059 27H24.6941C25.4155 27 26 26.4238 26 25.7126C25.9998 25.0013 25.4154 24.4251 24.6939 24.4251Z" fill="black"/>
<path d="M12.8312 11.1375C11.8994 11.1375 11.1431 12.0438 11.1431 13.1625C11.1431 14.2803 11.8994 15.1875 12.8312 15.1875C13.7638 15.1875 14.5197 14.2803 14.5197 13.1625C14.5196 12.0438 13.7638 11.1375 12.8312 11.1375Z" fill="black"/>
<path d="M1.32616 9.37327C1.50357 9.42501 1.68221 9.44994 1.85868 9.44994C2.65779 9.44994 3.39657 8.93637 3.63695 8.14164L3.7347 7.81923C3.82226 8.59169 4.39562 9.2548 5.20902 9.41451C5.33119 9.43861 5.45343 9.45 5.57348 9.45C6.44149 9.45 7.21708 8.84654 7.39309 7.97496L7.43841 7.75085C7.50244 8.6232 8.18957 9.35138 9.10157 9.44082C9.16431 9.4469 9.22649 9.44956 9.28828 9.44956C10.2306 9.44956 11.0382 8.74432 11.1337 7.79866L11.1475 7.66267C11.1728 8.65349 11.9903 9.44956 13.0001 9.44956C14.0098 9.44956 14.8272 8.65349 14.8526 7.66267L14.8663 7.79866C14.9619 8.74432 15.7695 9.44956 16.7118 9.44956C16.7736 9.44956 16.8357 9.44696 16.8984 9.44082C17.8104 9.35138 18.4981 8.6232 18.5616 7.75085L18.6069 7.97496C18.783 8.84693 19.5585 9.45 20.4265 9.45C20.5466 9.45 20.6688 9.43861 20.791 9.41451C21.6044 9.2548 22.1782 8.59169 22.2653 7.81923L22.3631 8.14164C22.6035 8.93643 23.3422 9.44994 24.1413 9.44994C24.3177 9.44994 24.4964 9.42496 24.6738 9.37327C25.6569 9.08326 26.2152 8.06219 25.9219 7.09288L24.2457 1.55664C23.9662 0.632926 23.1053 0 22.1284 0H3.87161C2.89469 0 2.03379 0.632926 1.75426 1.55664L0.0781045 7.09288C-0.215212 8.06219 0.343075 9.08326 1.32616 9.37327Z" fill="black"/>
</svg>
