<svg width="25" height="13" viewBox="0 0 25 13" fill="none" xmlns="http://www.w3.org/2000/svg">
<path d="M24.2188 1.60345H0.783182C0.351948 1.60345 0.00201225 1.24424 0.00201225 0.801726C0.00201225 0.359144 0.352013 0 0.783182 0H24.2188C24.6501 0 25 0.359211 25 0.801726C25 1.24424 24.65 1.60345 24.2188 1.60345Z" fill="white"/>
<path d="M0.783182 5.6123H24.2188C24.6501 5.6123 25 5.97152 25 6.41403C25 6.85655 24.65 7.21576 24.2188 7.21576H0.783182C0.351948 7.21576 0.00201225 6.85655 0.00201225 6.41403C0.00201225 5.97152 0.351948 5.6123 0.783182 5.6123Z" fill="white"/>
<path d="M0.783175 11.2244H16.4069C16.8382 11.2244 17.1881 11.5836 17.1881 12.0261C17.1881 12.4687 16.8381 12.8278 16.4069 12.8278H0.783175C0.35194 12.8278 0.00200653 12.4686 0.00200653 12.0261C0.00194168 11.5835 0.35194 11.2244 0.783175 11.2244Z" fill="white"/>
</svg>
