<svg width="10" height="10" viewBox="0 0 10 10" fill="none" xmlns="http://www.w3.org/2000/svg">
<path d="M9.89445 4.76949L4.96676 0.100268C4.89642 0.0335163 4.81532 0 4.72365 0C4.6321 0 4.5511 0.0335163 4.48062 0.100268L3.95186 0.601258C3.88138 0.668045 3.84619 0.744764 3.84619 0.831731C3.84619 0.918698 3.88138 0.995416 3.95186 1.0622L8.10757 5.00007L3.95189 8.93804C3.88141 9.00483 3.84623 9.08169 3.84623 9.16841C3.84623 9.25534 3.88141 9.3322 3.95189 9.39899L4.48066 9.89984C4.5511 9.96669 4.6321 10 4.72369 10C4.81546 10 4.89646 9.96662 4.96676 9.89984L9.89445 5.23058C9.96489 5.16383 10 5.08693 10 5.00011C10 4.91328 9.96489 4.83642 9.89445 4.76949Z" fill="white"/>
<path d="M6.15385 5.00011C6.15385 4.91328 6.11877 4.83638 6.04804 4.76949L1.1208 0.100268C1.05036 0.0335163 0.969249 0 0.877624 0C0.785998 0 0.704854 0.0335163 0.634413 0.100268L0.105773 0.601293C0.0351835 0.66808 0 0.744799 0 0.831766C0 0.918733 0.0351835 0.995452 0.105773 1.06224L4.26127 5.00011L0.105773 8.93804C0.0351835 9.00483 0 9.08169 0 9.16841C0 9.25534 0.0351835 9.3322 0.105773 9.39899L0.634376 9.89984C0.704854 9.96669 0.785961 10 0.877587 10C0.969212 10 1.05032 9.96662 1.1208 9.89984L6.04804 5.23058C6.11877 5.16383 6.15385 5.08693 6.15385 5.00011Z" fill="white"/>
</svg>
