<svg width="21" height="24" viewBox="0 0 21 24" fill="none" xmlns="http://www.w3.org/2000/svg">
<path d="M19.9291 20.2311L18.212 17.3708C17.419 16.0506 17 14.5384 17 12.9993V10.4938C17 7.33067 14.8879 4.65527 11.9998 3.79276V1.99884C11.9998 0.896471 11.1027 0 9.99966 0C8.89661 0 7.99957 0.896471 7.99957 1.99884V3.79276C5.11149 4.65527 2.99941 7.33067 2.99941 10.4938V12.9993C2.99941 14.5384 2.58037 16.0495 1.78834 17.3698L0.0712917 20.2301C-0.0217119 20.385 -0.0237276 20.5769 0.0652915 20.7338C0.154311 20.8907 0.319317 20.9877 0.499324 20.9877H19.5001C19.6801 20.9877 19.846 20.8907 19.9351 20.7348C20.0241 20.5789 20.0211 20.385 19.9291 20.2311Z" fill="black"/>
<path d="M6.91357 21.9753C7.46637 23.1388 8.63664 23.9506 9.99997 23.9506C11.3633 23.9506 12.5336 23.1388 13.0864 21.9753H6.91357V21.9753Z" fill="black"/>
<path fill-rule="evenodd" clip-rule="evenodd" d="M17 10C19.2091 10 21 8.20914 21 6C21 3.79086 19.2091 2 17 2C14.7909 2 13 3.79086 13 6C13 8.20914 14.7909 10 17 10Z" fill="#EB5A47"/>
</svg>
