<?xml version="1.0" encoding="utf-8" ?>
<svg xmlns="http://www.w3.org/2000/svg" xmlns:xlink="http://www.w3.org/1999/xlink" width="24" height="21">
	<defs>
		<clipPath id="clip_0">
			<rect x="-50" y="-950" width="1024" height="1222" clip-rule="evenodd"/>
		</clipPath>
	</defs>
	<g clip-path="url(#clip_0)">
		<path fill="rgb(235,90,71)" stroke="none" transform="translate(8 5)" d="M1.5 3C2.32843 3 3 2.32843 3 1.5C3 0.671573 2.32843 0 1.5 0C0.671573 0 0 0.671573 0 1.5C0 2.32843 0.671573 3 1.5 3Z"/>
	</g>
	<defs>
		<clipPath id="clip_1">
			<rect x="-50" y="-950" width="1024" height="1222" clip-rule="evenodd"/>
		</clipPath>
	</defs>
	<g clip-path="url(#clip_1)">
		<path fill="rgb(0,0,0)" stroke="none" d="M19.7405 11.4731C20.8168 11.6088 21.8015 12.0841 22.5802 12.8082C23.4504 13.6681 24 14.8675 24 16.2026C24 17.5377 23.4504 18.7371 22.5802 19.597C21.7099 20.4569 20.4962 21 19.145 21C17.9771 21 16.9237 20.57 16.0763 19.8912L3.22901 19.8912C2.33588 19.8912 1.53435 19.5517 0.938931 18.9634C0.366412 18.375 0 17.583 0 16.7004L0 3.19073C0 2.30819 0.343511 1.51616 0.938931 0.927802C1.53435 0.362069 2.33588 0 3.22901 0L16.5114 0C17.4046 0 18.2061 0.33944 18.8015 0.927802C19.374 1.51616 19.7405 2.30819 19.7405 3.19073L19.7405 11.4731ZM1.80916 1.81034C1.44275 2.14978 1.21374 2.64763 1.21374 3.19073L1.21374 12.1746L4.83206 8.55388C5.08397 8.30496 5.47328 8.32759 5.70229 8.55388L9.16031 11.9935L14.2672 6.92457C14.5191 6.67565 14.9084 6.69828 15.1374 6.92457L18.5267 10.2737L18.5267 3.21336C18.5267 2.67026 18.2977 2.17241 17.9313 1.81034C17.5649 1.44828 17.0611 1.22198 16.5115 1.22198L3.22901 1.22198C2.67939 1.22198 2.17557 1.44828 1.80916 1.81034ZM3.20611 18.7371L3.20611 18.6918C2.65649 18.6918 2.15267 18.4655 1.78626 18.1034C1.44275 17.7414 1.21374 17.2435 1.21374 16.7004L1.21374 13.8944L5.26718 9.86638L8.72519 13.2834C8.9542 13.5097 9.34351 13.5097 9.59542 13.2834L14.7023 8.21444L18.0458 11.5409L17.8397 11.6088C17.7481 11.6315 17.6565 11.6541 17.542 11.6994C17.4504 11.722 17.3588 11.7672 17.2672 11.7899C17.1985 11.8125 17.1527 11.8351 17.084 11.8804C16.9924 11.9256 16.9237 11.9483 16.855 11.9935L16.5115 12.1972C16.4427 12.2425 16.3969 12.2651 16.3282 12.3103C16.2824 12.333 16.2595 12.3556 16.2137 12.3782C16.0076 12.514 15.8244 12.6724 15.6641 12.8534C14.7939 13.7134 14.2443 14.9127 14.2443 16.2478C14.2443 16.5873 14.2901 16.9041 14.3588 17.2435C14.3817 17.3341 14.4046 17.4019 14.4275 17.4925C14.4962 17.7188 14.5649 17.945 14.6565 18.1713L14.6565 18.194C14.7481 18.375 14.8397 18.5787 14.9542 18.7371L3.20611 18.7371ZM19.1221 19.778C20.1298 19.778 21.0229 19.3933 21.687 18.7371C22.3282 18.0808 22.7405 17.1983 22.7405 16.2252C22.7405 15.2295 22.3511 14.347 21.687 13.6907C21.0229 13.0571 20.1298 12.6498 19.1221 12.6498C18.1145 12.6498 17.1985 13.0345 16.5573 13.6907C15.916 14.347 15.5038 15.2295 15.5038 16.2252C15.5038 16.4741 15.5267 16.7231 15.5725 16.9494C15.5954 17.0399 15.6412 17.153 15.6641 17.2435C15.687 17.3793 15.7328 17.5151 15.7786 17.6282C15.8244 17.7188 15.8702 17.7866 15.916 17.8772C15.9847 18.0129 16.0534 18.1487 16.145 18.2619C16.2137 18.3297 16.2824 18.4203 16.3511 18.4881C16.4427 18.5787 16.5344 18.6918 16.626 18.7823C17.2672 19.3933 18.1603 19.778 19.1221 19.778Z" fill-rule="evenodd"/>
	</g>
	<defs>
		<clipPath id="clip_2">
			<rect x="-50" y="-950" width="1024" height="1222" clip-rule="evenodd"/>
		</clipPath>
	</defs>
	<g clip-path="url(#clip_2)">
		<path fill="rgb(235,90,71)" stroke="none" transform="translate(17 14)" d="M4 2.28571L2.28571 2.28571L2.28571 4L1.71429 4L1.71429 2.28571L0 2.28571L0 1.71429L1.71429 1.71429L1.71429 0L2.28571 0L2.28571 1.71429L4 1.71429L4 2.28571Z"/>
	</g>
	<defs>
		<clipPath id="clip_3">
			<rect x="-50" y="-950" width="1024" height="1222" clip-rule="evenodd"/>
		</clipPath>
	</defs>
	<g clip-path="url(#clip_3)">
		<path fill="none" stroke="rgb(235,90,71)" stroke-width="0.25" stroke-linecap="round" stroke-linejoin="round" transform="translate(17 14)" d="M4 2.28571L2.28571 2.28571L2.28571 4L1.71429 4L1.71429 2.28571L0 2.28571L0 1.71429L1.71429 1.71429L1.71429 0L2.28571 0L2.28571 1.71429L4 1.71429L4 2.28571Z"/>
	</g>

</svg>