<svg width="35" height="35" viewBox="0 0 35 35" fill="none" xmlns="http://www.w3.org/2000/svg">
<path d="M34.3966 3.62067H0.603448C0.270345 3.62067 0 3.89041 0 4.22411V30.7758C0 31.1095 0.270345 31.3793 0.603448 31.3793H34.3966C34.7297 31.3793 35 31.1095 35 30.7758V4.22411C35 3.89041 34.7297 3.62067 34.3966 3.62067ZM9.65517 10.2586C11.5084 10.2586 13.0158 11.766 13.0158 13.6192C13.0158 15.4718 11.5084 16.9792 9.65517 16.9792C7.80198 16.9792 6.29457 15.4718 6.29457 13.6192C6.29457 11.766 7.80198 10.2586 9.65517 10.2586ZM31.8241 21.5286C31.599 21.7736 31.217 21.7911 30.9714 21.566L24.1759 15.336L18.6357 21.4031L21.5365 24.3039C21.7724 24.5398 21.7724 24.9212 21.5365 25.1571C21.3005 25.3931 20.9191 25.3931 20.6832 25.1571L14.4671 18.9416L4.62302 27.6083C4.50836 27.7091 4.36595 27.7586 4.22414 27.7586C4.05698 27.7586 3.89043 27.6898 3.77095 27.554C3.55069 27.3036 3.57483 26.9222 3.82526 26.702L14.0941 17.6611C14.3331 17.4511 14.694 17.4626 14.9197 17.6876L17.7818 20.5498L23.692 14.0766C23.8 13.9583 23.9509 13.8877 24.1108 13.8805C24.2701 13.8769 24.427 13.9306 24.5453 14.0386L31.7866 20.6765C32.0328 20.901 32.0491 21.283 31.8241 21.5286Z" fill="black"/>
</svg>
