<svg width="26" height="26" viewBox="0 0 26 26" fill="none" xmlns="http://www.w3.org/2000/svg">
<g clip-path="url(#clip0)">
<path d="M12.999 0C8.0704 0 4.06152 4.00887 4.06152 8.9375C4.06152 13.8661 8.0704 17.875 12.999 17.875C17.926 17.875 21.9365 13.8661 21.9365 8.9375C21.9365 4.00887 17.926 0 12.999 0ZM17.6969 7.67325L16.1531 9.607L16.3221 12.1339C16.3416 12.415 16.2133 12.6864 15.9809 12.8505C15.8395 12.9496 15.6754 13 15.5096 13C15.4024 13 15.2935 12.9789 15.1928 12.935L12.999 12.0039L10.8069 12.935C10.5469 13.0455 10.2479 13.0146 10.0188 12.8505C9.78802 12.6864 9.65965 12.415 9.67752 12.1339L9.84652 9.607L8.30277 7.67325C8.13052 7.45875 8.08015 7.17112 8.16627 6.9095C8.2524 6.64787 8.46527 6.44963 8.73177 6.37975L11.036 5.77688L12.3003 3.64812C12.5928 3.15412 13.4053 3.15412 13.6961 3.64812L14.9604 5.77688L17.2663 6.37975C17.5311 6.44963 17.744 6.6495 17.8318 6.9095C17.9195 7.1695 17.8675 7.45713 17.6969 7.67325Z" fill="black"/>
<path d="M3.85877 14.2074L0.108274 20.7188C-0.055851 21.0048 -0.031476 21.3606 0.168399 21.6206C0.368274 21.8806 0.704649 21.9976 1.02315 21.9099L5.79415 20.6278L7.06327 25.3988C7.14777 25.7156 7.4159 25.9513 7.7409 25.9951C7.77665 25.9984 7.81402 26 7.84815 26C8.13577 26 8.40552 25.8473 8.55177 25.5938L12.0991 19.4545C8.57452 19.1555 5.54552 17.1194 3.85877 14.2074Z" fill="black"/>
<path d="M25.8929 20.7188L22.1408 14.2074C20.4556 17.1194 17.425 19.1555 13.9004 19.4545L17.4478 25.5938C17.594 25.8473 17.8638 26 18.1514 26C18.1855 26 18.2229 25.9984 18.257 25.9935C18.5836 25.9496 18.8501 25.714 18.9363 25.3971L20.2054 20.6261L24.9764 21.9083C25.2949 21.996 25.6296 21.879 25.8311 21.619C26.0326 21.3606 26.0554 21.0048 25.8929 20.7188Z" fill="black"/>
</g>
<defs>
<clipPath id="clip0">
<rect width="26" height="26" fill="white"/>
</clipPath>
</defs>
</svg>
