<?xml version="1.0" encoding="utf-8" ?>
<svg xmlns="http://www.w3.org/2000/svg" xmlns:xlink="http://www.w3.org/1999/xlink" width="20" height="20">
	<defs>
		<clipPath id="clip_0">
			<rect x="-848" y="-254" width="1024" height="1222" clip-rule="evenodd"/>
		</clipPath>
	</defs>
	<g clip-path="url(#clip_0)">
		<path fill="rgb(0,0,0)" stroke="none" d="M3.33333 20L16.6667 20C18.5046 20 20 18.5046 20 16.6667L20 3.33333C20 1.49542 18.5046 0 16.6667 0L3.33333 0C1.49542 0 0 1.49542 0 3.33333L0 6.66667C0 7.12667 0.373333 7.5 0.833333 7.5C1.29333 7.5 1.66667 7.12667 1.66667 6.66667L1.66667 3.33333C1.66667 2.41417 2.41417 1.66667 3.33333 1.66667L16.6667 1.66667C17.5858 1.66667 18.3333 2.41417 18.3333 3.33333L18.3333 16.6667C18.3333 17.5858 17.5858 18.3333 16.6667 18.3333L3.33333 18.3333C2.41417 18.3333 1.66667 17.5858 1.66667 16.6667L1.66667 13.3333C1.66667 12.8733 1.29333 12.5 0.833333 12.5C0.373333 12.5 0 12.8733 0 13.3333L0 16.6667C0 18.5046 1.49542 20 3.33333 20Z"/>
	</g>
	<defs>
		<clipPath id="clip_1">
			<rect x="-848" y="-254" width="1024" height="1222" clip-rule="evenodd"/>
		</clipPath>
	</defs>
	<g clip-path="url(#clip_1)">
		<path fill="rgb(235,90,71)" stroke="none" transform="translate(3.33337 5.8335)" d="M1.4803e-15 4.16656C1.4803e-15 4.62656 0.373333 4.9999 0.833333 4.9999L10.4883 4.9999L8.5775 6.91073C8.25208 7.23615 8.25208 7.76365 8.5775 8.08906C8.74 8.25198 8.95333 8.33323 9.16667 8.33323C9.38 8.33323 9.59333 8.25198 9.75583 8.08906L13.0892 4.75573C13.4146 4.43031 13.4146 3.90281 13.0892 3.5774L9.75583 0.244062C9.43083 -0.0813542 8.9025 -0.0813542 8.5775 0.244062C8.25208 0.569479 8.25208 1.09698 8.5775 1.4224L10.4883 3.33323L0.833333 3.33323C0.373333 3.33323 0 3.70656 1.4803e-15 4.16656Z"/>
	</g>

</svg>