<svg width="26" height="26" viewBox="0 0 26 26" fill="none" xmlns="http://www.w3.org/2000/svg">
<path d="M10.9581 14.0402C10.9581 14.7775 10.3605 15.3752 9.62319 15.3752C8.88593 15.3752 8.28827 14.7775 8.28827 14.0402C8.28827 13.3029 8.88593 12.7052 9.62319 12.7052C10.3605 12.7052 10.9581 13.303 10.9581 14.0402ZM16.3768 12.7052C15.6396 12.7052 15.0419 13.3029 15.0419 14.0403C15.0419 14.7775 15.6396 15.3752 16.3768 15.3752C17.1141 15.3752 17.7118 14.7775 17.7118 14.0403C17.7118 13.303 17.1141 12.7052 16.3768 12.7052ZM26 13.2961V15.8331C26 17.1069 24.9674 18.1395 23.6936 18.1395H22.02C20.3617 22.744 16.127 25.5252 13 25.5252C9.87303 25.5252 5.6383 22.744 3.97995 18.1394H2.30635C1.03257 18.1394 0 17.1069 0 15.8331V13.296C0 12.4195 0.489029 11.6573 1.20908 11.2671C1.23326 7.66511 2.28307 4.85197 4.33389 2.9072C6.36809 0.978186 9.28378 0 13 0C16.7162 0 19.6319 0.978186 21.6661 2.90716C23.7169 4.85193 24.7667 7.66511 24.7909 11.267C25.511 11.6573 26 12.4195 26 13.2961ZM21.1186 14.0486C21.1186 13.4552 21.0882 12.8976 21.0433 12.3573C20.0198 11.4208 18.1616 10.7102 15.8165 10.4462C16.1244 10.7924 16.3904 11.2479 16.5517 11.8474C15.1152 10.7158 12.2956 10.9851 10.1629 8.45276C10.0406 8.31133 9.93489 8.17619 9.84346 8.05269C9.8424 8.05121 9.84121 8.05006 9.84015 8.04861L9.84041 8.0487C9.46098 7.53558 9.33162 7.23038 9.3244 7.56821C9.26182 10.4789 7.19877 12.748 4.90788 13.0681C4.8934 13.3883 4.88154 13.7115 4.88154 14.0487C4.88154 15.279 5.08245 16.4002 5.42402 17.4107C6.71085 18.9629 8.83596 19.4012 10.7169 19.5175C11.0661 18.9619 11.8495 18.5741 12.7619 18.5741C13.9989 18.5741 15.0016 19.2859 15.0016 20.164C15.0016 21.0421 13.9988 21.7538 12.7619 21.7538C11.8104 21.7538 10.9995 21.332 10.675 20.738C9.36042 20.6615 7.9153 20.4374 6.62732 19.8292C8.43857 22.499 11.2465 23.9107 13 23.9107C15.7554 23.9107 21.1186 20.4298 21.1186 14.0486ZM23.4023 10.9897C23.2556 4.70422 19.6679 1.38386 13 1.38386C6.33215 1.38386 2.74449 4.70422 2.59766 10.9897H3.48502C3.80947 8.87118 4.4952 7.12889 5.53634 5.78921C7.19546 3.65449 9.70658 2.57205 13 2.57205C16.2934 2.57205 18.8045 3.65449 20.4637 5.78921C21.5048 7.12884 22.1906 8.87118 22.515 10.9897H23.4023Z" fill="black"/>
</svg>
