<svg width="33" height="33" viewBox="0 0 33 33" fill="none" xmlns="http://www.w3.org/2000/svg">
<path d="M29.1142 15.2921C27.9913 14.7307 25.8859 14.7242 25.7969 14.7242C25.5299 14.7242 25.3135 14.9406 25.3135 15.2076C25.3135 15.4746 25.5299 15.691 25.7969 15.691C26.3402 15.6911 27.9175 15.7747 28.6819 16.1569C28.7513 16.1916 28.825 16.208 28.8976 16.208C29.075 16.208 29.2457 16.11 29.3304 15.9407C29.4498 15.7019 29.353 15.4115 29.1142 15.2921Z" fill="white"/>
<path d="M31.5248 22.1745L29.5284 21.6041C29.4422 21.5795 29.382 21.4997 29.382 21.41V20.7437C29.5444 20.6311 29.6994 20.5052 29.8442 20.3646C30.5461 19.6835 30.9326 18.7698 30.9326 17.792V16.8724L31.1256 16.4864C31.3375 16.0626 31.4495 15.5882 31.4495 15.1145V12.6233C31.4495 12.3564 31.233 12.1399 30.9661 12.1399H26.3143C24.6228 12.1399 23.2466 13.5161 23.2466 15.2077V15.2365C23.2466 15.6304 23.3397 16.0249 23.5159 16.3772L23.7634 16.8723V17.6619C23.7634 18.9132 24.38 20.0359 25.314 20.7115L25.3142 21.4099C25.3142 21.5176 25.3142 21.5622 24.915 21.6763L23.9409 21.9546L21.1229 20.9299C21.133 20.797 21.0882 20.6617 20.9912 20.5598L20.0907 19.6138V18.0257C20.1859 17.9472 20.2797 17.8667 20.3707 17.7815C21.5067 16.7167 22.1581 15.2134 22.1581 13.657V12.3887C22.5012 11.6423 22.675 10.8524 22.675 10.039V4.87047C22.675 4.6035 22.4586 4.38707 22.1916 4.38707H14.9555C12.409 4.38707 10.3372 6.45885 10.3372 9.00533V10.0391C10.3372 10.8526 10.5111 11.6424 10.8541 12.3889V13.4801C10.8541 15.2871 11.6576 16.9151 12.9216 17.9884V19.6139L12.0211 20.5599C11.9241 20.6618 11.8792 20.797 11.8893 20.93L8.91516 22.0115C8.69963 22.0898 8.49937 22.196 8.31755 22.3246L7.85052 22.0911C9.24077 21.4859 9.68118 20.6348 9.70232 20.5925C9.77038 20.4565 9.77038 20.2962 9.70232 20.1602C9.35382 19.4632 9.31161 18.1856 9.27771 17.1592C9.26643 16.8174 9.25573 16.4946 9.2353 16.2071C9.07049 13.8885 7.30782 12.1399 5.13511 12.1399C2.96239 12.1399 1.19967 13.8884 1.03492 16.2071C1.01449 16.4947 1.00379 16.8175 0.992514 17.1593C0.958611 18.1857 0.91633 19.4631 0.567896 20.1601C0.499834 20.2962 0.499834 20.4564 0.567896 20.5925C0.589037 20.6347 1.02854 21.4841 2.42157 22.09L1.12432 22.7385C0.430805 23.0856 0 23.7826 0 24.5579V28.1292C0 28.3962 0.216434 28.6126 0.483398 28.6126C0.750363 28.6126 0.966797 28.3962 0.966797 28.1292V24.5579C0.966797 24.1511 1.19283 23.7853 1.55667 23.6034L3.17206 22.7957L3.73396 23.3297C4.12687 23.7031 4.63089 23.8897 5.13511 23.8897C5.6392 23.8897 6.14348 23.703 6.53626 23.3297L7.09809 22.7958L7.6248 23.0591C7.37679 23.456 7.23602 23.9213 7.23602 24.4088V28.1293C7.23602 28.3963 7.45246 28.6127 7.71942 28.6127C7.98639 28.6127 8.20282 28.3963 8.20282 28.1293V24.4088C8.20282 23.7452 8.62183 23.1469 9.24554 22.9201L12.3813 21.7799L13.6867 23.738C13.8536 23.9884 14.121 24.1489 14.4204 24.1786C14.4537 24.1818 14.4869 24.1835 14.5201 24.1835C14.7842 24.1835 15.0372 24.0795 15.2263 23.8905L16.0227 23.0941V28.1294C16.0227 28.3964 16.2391 28.6128 16.5061 28.6128C16.773 28.6128 16.9895 28.3964 16.9895 28.1294V23.0941L17.7858 23.8905C17.9749 24.0796 18.2279 24.1835 18.4921 24.1835C18.5251 24.1835 18.5584 24.1819 18.5917 24.1786C18.8911 24.149 19.1586 23.9884 19.3254 23.7381L20.6309 21.78L23.7666 22.9202C24.3902 23.1471 24.8093 23.7453 24.8093 24.4089V28.1295C24.8093 28.3964 25.0257 28.6129 25.2927 28.6129C25.5597 28.6129 25.7761 28.3964 25.7761 28.1295V24.4089C25.7761 23.7368 25.5091 23.1064 25.0611 22.6403L25.1805 22.6062C25.301 22.5717 25.4654 22.5246 25.6304 22.4437L26.8646 23.678V28.1295C26.8646 28.3964 27.081 28.6129 27.348 28.6129C27.6149 28.6129 27.8314 28.3964 27.8314 28.1295V23.678L29.057 22.4523C29.1222 22.4854 29.1906 22.5134 29.2627 22.534L31.2592 23.1044C31.7149 23.2346 32.0332 23.6566 32.0332 24.1305V28.1295C32.0332 28.3964 32.2496 28.6129 32.5166 28.6129C32.7836 28.6129 33 28.3964 33 28.1295V24.1305C33 23.227 32.3934 22.4227 31.5248 22.1745ZM3.10116 21.3207C2.19695 20.9953 1.74339 20.5616 1.54978 20.3247C1.68178 19.9796 1.76737 19.5844 1.82531 19.1672C2.09189 19.8064 2.53836 20.352 3.10116 20.7413V21.3207ZM5.87039 22.629C5.45808 23.0207 4.8122 23.0207 4.40002 22.6289L3.95046 22.2017C4.02632 22.0596 4.06802 21.8985 4.06802 21.7297V21.2144C4.40524 21.3198 4.76373 21.3767 5.13524 21.3767C5.5063 21.3767 5.86459 21.3195 6.20239 21.2147L6.20232 21.7296C6.20232 21.8985 6.24396 22.0597 6.31989 22.2018L5.87039 22.629ZM5.13537 20.4099C3.69188 20.4099 2.5176 19.2355 2.5176 17.7921C2.5176 17.5251 2.30117 17.3087 2.03421 17.3087C2.00713 17.3087 1.98071 17.3115 1.95486 17.3158C1.95628 17.2742 1.95763 17.2326 1.95905 17.1914C1.96982 16.859 1.98019 16.5451 1.99934 16.2758C2.06108 15.4072 2.40816 14.6068 2.97664 14.022C3.55021 13.4318 4.31681 13.1069 5.13524 13.1069C5.95366 13.1069 6.72021 13.4318 7.29384 14.022C7.86231 14.6068 8.20939 15.4072 8.27114 16.2758C8.29022 16.545 8.30066 16.8589 8.31162 17.1912C8.31258 17.2198 8.31355 17.2487 8.31452 17.2774C7.78858 16.4671 6.97634 15.87 5.92685 15.5328C4.95728 15.2213 4.12339 15.2405 4.0882 15.2414C3.96161 15.245 3.84147 15.298 3.75362 15.3891L2.88144 16.2936C2.69614 16.4858 2.70168 16.7918 2.89388 16.9771C3.08608 17.1625 3.3921 17.1568 3.57741 16.9647L4.30315 16.2121C4.92815 16.2426 6.93889 16.4765 7.7209 18.1985C7.52413 19.4674 6.43345 20.4099 5.13537 20.4099ZM7.16906 21.3223L7.16912 20.7458C7.73147 20.3586 8.17859 19.814 8.44536 19.17C8.5033 19.5862 8.58883 19.9805 8.72057 20.3248C8.52805 20.5595 8.07237 20.9971 7.16906 21.3223ZM11.8209 13.4801V12.2807C11.8209 12.2079 11.8045 12.1361 11.7728 12.0705C11.4618 11.4264 11.304 10.7429 11.304 10.0391V9.00539C11.304 6.99194 12.9421 5.35393 14.9555 5.35393H21.7082V10.0392C21.7082 10.743 21.5505 11.4264 21.2394 12.0706C21.2078 12.1361 21.1913 12.208 21.1913 12.2808V13.6572C21.1913 14.9663 20.6651 16.1805 19.7095 17.0762C19.5902 17.188 19.4664 17.2928 19.3384 17.3904C19.3356 17.3924 19.3328 17.3945 19.3301 17.3965C18.4349 18.0761 17.3384 18.4065 16.1933 18.3323C13.7415 18.1735 11.8209 16.0422 11.8209 13.4801ZM14.5427 23.2067C14.5393 23.2101 14.5315 23.218 14.5157 23.2163C14.5 23.2148 14.4938 23.2056 14.4912 23.2016L12.9878 20.9465L13.4716 20.4382L15.7523 21.9971L14.5427 23.2067ZM16.5061 21.3413L13.8884 19.5519V18.6496C14.5657 19.0157 15.3241 19.2447 16.1307 19.2969C16.2582 19.3052 16.3848 19.3093 16.5111 19.3093C17.4354 19.3093 18.325 19.0883 19.1239 18.6689V19.5519L16.5061 21.3413ZM18.5211 23.2017C18.5184 23.2057 18.5122 23.2149 18.4965 23.2165C18.4807 23.2185 18.473 23.2102 18.4696 23.2069L17.26 21.9973L19.5406 20.4383L20.0245 20.9466L18.5211 23.2017ZM27.348 22.7938L26.251 21.6969C26.2701 21.61 26.281 21.5148 26.2809 21.4098L26.2808 21.2058C26.5852 21.3057 26.9061 21.365 27.2381 21.3749C27.2753 21.3761 27.3123 21.3766 27.3494 21.3766C27.7163 21.3766 28.0744 21.3212 28.4152 21.2154V21.41C28.4152 21.5065 28.4273 21.601 28.4501 21.6918L27.348 22.7938ZM29.1709 19.6708C28.6586 20.168 27.9817 20.4306 27.2672 20.4086C25.8683 20.3666 24.7302 19.1345 24.7302 17.662V16.7583C24.7302 16.6832 24.7127 16.6093 24.6792 16.5422L24.3806 15.9449C24.2712 15.7261 24.2134 15.4812 24.2134 15.2365V15.2077C24.2134 14.0492 25.1559 13.1068 26.3143 13.1068H30.4827V15.1145C30.4827 15.439 30.406 15.7639 30.2609 16.0541L30.0169 16.5422C29.9833 16.6093 29.9658 16.6832 29.9658 16.7583V17.792C29.9658 18.5062 29.6835 19.1734 29.1709 19.6708Z" fill="white"/>
<path d="M30.4492 24.5447C30.1823 24.5447 29.9658 24.7611 29.9658 25.0281V28.1292C29.9658 28.3962 30.1823 28.6126 30.4492 28.6126C30.7162 28.6126 30.9326 28.3962 30.9326 28.1292V25.0281C30.9326 24.7612 30.7162 24.5447 30.4492 24.5447Z" fill="white"/>
<path d="M2.55078 25.1836C2.28382 25.1836 2.06738 25.4 2.06738 25.667V28.1292C2.06738 28.3961 2.28382 28.6126 2.55078 28.6126C2.81775 28.6126 3.03418 28.3961 3.03418 28.1292V25.667C3.03418 25.4001 2.81775 25.1836 2.55078 25.1836Z" fill="white"/>
<path d="M20.4656 10.2142C18.6373 8.38594 14.8121 8.73547 13.2522 8.97059C12.7609 9.04465 12.4043 9.46044 12.4043 9.95924V11.0729C12.4043 11.3398 12.6207 11.5563 12.8877 11.5563C13.1547 11.5563 13.3711 11.3398 13.3711 11.0729V9.95918C13.3711 9.94274 13.3819 9.92869 13.3964 9.9265C14.0194 9.83259 15.2558 9.6877 16.5368 9.7731C18.0443 9.87345 19.1361 10.2519 19.782 10.8978C19.9708 11.0866 20.2769 11.0866 20.4656 10.8978C20.6544 10.709 20.6544 10.4029 20.4656 10.2142Z" fill="white"/>
<path d="M10.8203 25.5784C10.5533 25.5784 10.3369 25.7948 10.3369 26.0618V28.1292C10.3369 28.3962 10.5533 28.6126 10.8203 28.6126C11.0873 28.6126 11.3037 28.3962 11.3037 28.1292V26.0618C11.3037 25.7949 11.0873 25.5784 10.8203 25.5784Z" fill="white"/>
<path d="M22.1914 25.5784C21.9244 25.5784 21.708 25.7948 21.708 26.0618V28.1292C21.708 28.3962 21.9244 28.6126 22.1914 28.6126C22.4584 28.6126 22.6748 28.3962 22.6748 28.1292V26.0618C22.6748 25.7949 22.4584 25.5784 22.1914 25.5784Z" fill="white"/>
</svg>
