<?xml version="1.0" encoding="utf-8" ?>
<svg xmlns="http://www.w3.org/2000/svg" xmlns:xlink="http://www.w3.org/1999/xlink" width="24" height="26">
	<defs>
		<clipPath id="clip_0">
			<rect x="-385" y="-571" width="1024" height="812" clip-rule="evenodd"/>
		</clipPath>
	</defs>
	<g clip-path="url(#clip_0)">
		<path fill="rgb(235,90,71)" stroke="none" d="M18.1577 11.976C18.1999 11.976 18.242 11.9766 18.2842 11.9774L18.2951 11.9776C18.5321 11.982 18.7672 11.9978 19 12.024L19 3.09599C19 1.38894 17.6553 0 16.0027 0L2.99753 0C1.34468 0 0 1.38894 0 3.09599L0 20.9038C0 22.6111 1.34468 24 2.99734 24L11.6802 24C10.9309 22.7562 10.5379 21.3356 10.5379 19.851C10.5379 15.5086 13.956 11.976 18.1577 11.976ZM8.25029 6.59257L3.80845 6.59257C3.39737 6.59257 3.0642 6.24844 3.0642 5.82383C3.0642 5.39922 3.39737 5.05509 3.80845 5.05509L8.25029 5.05509C8.66117 5.05509 8.99453 5.39922 8.99453 5.82383C8.99453 6.24844 8.66117 6.59257 8.25029 6.59257ZM10.7497 5.05509L15.1915 5.05509C15.6026 5.05509 15.9358 5.39922 15.9358 5.82383C15.9358 6.24844 15.6026 6.59257 15.1915 6.59257L10.7497 6.59257C10.3388 6.59257 10.0055 6.24844 10.0055 5.82383C10.0055 5.39922 10.3388 5.05509 10.7497 5.05509ZM3.80845 9.66775L8.25029 9.66775C8.66117 9.66775 8.99453 9.32361 8.99453 8.899C8.99453 8.47439 8.66117 8.13026 8.25029 8.13026L3.80845 8.13026C3.39737 8.13026 3.0642 8.47439 3.0642 8.899C3.0642 9.32361 3.39737 9.66775 3.80845 9.66775ZM15.1915 8.13026L10.7497 8.13026C10.3388 8.13026 10.0055 8.47439 10.0055 8.899C10.0055 9.32361 10.3388 9.66775 10.7497 9.66775L15.1915 9.66775C15.6026 9.66775 15.9358 9.32361 15.9358 8.899C15.9358 8.47439 15.6026 8.13026 15.1915 8.13026ZM8.25029 12.7429L3.80845 12.7429C3.39737 12.7429 3.0642 12.3988 3.0642 11.9742C3.0642 11.5496 3.39737 11.2054 3.80845 11.2054L8.25029 11.2054C8.66117 11.2054 8.99453 11.5496 8.99453 11.9742C8.99453 12.3988 8.66117 12.7429 8.25029 12.7429ZM10.7497 11.2054C10.3388 11.2054 10.0055 11.5496 10.0055 11.9742C10.0055 12.3988 10.3388 12.7429 10.7497 12.7429L12.889 12.7429C13.3001 12.7429 13.6333 12.3988 13.6333 11.9742C13.6333 11.5496 13.3001 11.2054 12.889 11.2054L10.7497 11.2054ZM3.80845 15.8181L8.25029 15.8181C8.66117 15.8181 8.99453 15.474 8.99453 15.0493C8.99453 14.6247 8.66117 14.2806 8.25029 14.2806L3.80845 14.2806C3.39737 14.2806 3.0642 14.6247 3.0642 15.0493C3.0642 15.474 3.39737 15.8181 3.80845 15.8181ZM8.25029 18.9447L3.80845 18.9447C3.39737 18.9447 3.0642 18.6006 3.0642 18.176C3.0642 17.7516 3.39737 17.4072 3.80845 17.4072L8.25029 17.4072C8.66117 17.4072 8.99453 17.7516 8.99453 18.176C8.99453 18.6006 8.66117 18.9447 8.25029 18.9447Z" fill-rule="evenodd"/>
	</g>
	<defs>
		<clipPath id="clip_1">
			<rect x="-385" y="-571" width="1024" height="812" clip-rule="evenodd"/>
		</clipPath>
	</defs>
	<g clip-path="url(#clip_1)">
		<path fill="rgb(0,0,0)" stroke="none" transform="translate(12 13)" d="M6.10799 0.00142571C7.68819 0.0315702 9.16923 0.721226 10.2781 1.94289C11.3885 3.16578 12 4.78421 12 6.5C12 10.0841 9.30846 13 6 13C4.09921 13 2.35214 12.0559 1.20655 10.4096C0.417296 9.27533 0 7.92351 0 6.5C0 2.91586 2.69154 0 6 0C6.03255 0 6.0651 0.000610997 6.09765 0.00122205L6.10799 0.00142571ZM6.27243 8.53536L8.56361 5.44331C8.81327 5.10643 8.76341 4.61414 8.45223 4.34386C8.14085 4.07358 7.68631 4.12755 7.43664 4.46443L5.57574 6.97579L4.42376 6.07227C4.10072 5.81869 3.64899 5.89691 3.41494 6.24662C3.18071 6.59654 3.25296 7.08558 3.57599 7.33895L5.28488 8.67936C5.41281 8.77957 5.56107 8.82825 5.70838 8.82825C5.92042 8.82825 6.13 8.72743 6.27243 8.53536Z" fill-rule="evenodd"/>
	</g>

</svg>