<svg width="26" height="26" viewBox="0 0 26 26" fill="none" xmlns="http://www.w3.org/2000/svg">
<path d="M22.9141 13.1898C22.7976 13.7646 22.2787 14.1833 21.6566 14.2093C21.4607 14.2171 21.2939 14.3576 21.2568 14.5474C21.2171 14.7373 21.3151 14.9298 21.4924 15.0104C22.0563 15.2705 22.3714 15.8531 22.2522 16.4279L22.1411 16.9741C21.9954 17.6945 21.1853 18.1445 20.4758 17.9728C20.2773 17.926 20.0734 17.8896 19.8722 17.8506C19.5757 17.7933 19.2792 17.7335 18.9827 17.6763C18.5908 17.5983 18.199 17.5229 17.8072 17.4448C17.3412 17.3538 16.8727 17.2602 16.4067 17.1691C15.8852 17.0651 15.3636 16.9637 14.8421 16.8597C14.2861 16.7504 13.7275 16.6412 13.1715 16.5293C12.5997 16.4175 12.0278 16.3031 11.4586 16.1912C10.8921 16.0794 10.3282 15.9675 9.76161 15.8557C9.22156 15.7491 8.68146 15.6424 8.14141 15.5358C7.64634 15.4396 7.15391 15.3407 6.65884 15.2445C6.22996 15.1613 5.80107 15.0754 5.37484 14.9922C5.03332 14.9246 4.6918 14.857 4.34763 14.7894C4.11201 14.7425 3.87636 14.6957 3.64077 14.6489C3.53219 14.6281 3.42368 14.6047 3.31513 14.5839C3.30984 14.5839 3.30454 14.5813 3.29922 14.5813C3.35746 14.8518 3.33099 15.1405 3.20391 15.411C2.93649 15.978 2.31435 16.2745 1.71605 16.16C1.53868 16.1262 1.34541 16.1912 1.26864 16.3525L1.03037 16.8597C0.953618 17.0209 1.03037 17.2081 1.17071 17.32C1.19718 17.3408 20.2799 25.9835 20.3116 25.9913C20.489 26.0251 20.6823 25.9601 20.7591 25.7988L20.9973 25.2917C21.0741 25.1304 20.9973 24.9432 20.857 24.8313C20.3805 24.4594 20.2057 23.8014 20.4731 23.2344C20.7405 22.6674 21.3627 22.3709 21.961 22.4854C22.1383 22.5192 22.3316 22.4541 22.4084 22.2929L22.6467 21.7857C22.7234 21.6245 22.6467 21.4372 22.5063 21.3254C22.0298 20.9534 21.8551 20.2954 22.1225 19.7284C22.3899 19.1615 23.012 18.865 23.6103 18.9794C23.7877 19.0132 23.981 18.9482 24.0577 18.7869L24.296 18.2798C24.3728 18.1185 24.296 17.9312 24.1557 17.8194C23.6791 17.4475 23.5044 16.7895 23.7718 16.2225C24.0392 15.6555 24.6614 15.359 25.2597 15.4734C25.437 15.5072 25.6303 15.4422 25.7071 15.281L25.9691 14.7192C26.0459 14.5579 25.9744 14.368 25.8103 14.2926L22.959 13L22.9141 13.1898Z" fill="black"/>
<path fill-rule="evenodd" clip-rule="evenodd" d="M0.253037 12.8545C0.285133 12.8704 21.0971 17 21.1319 17C21.3138 16.9921 21.4903 16.881 21.525 16.7063L21.6374 16.1508C21.6721 15.9735 21.5545 15.8042 21.3886 15.7275C20.8323 15.4683 20.5033 14.8598 20.629 14.2354C20.7547 13.6111 21.2977 13.1746 21.9129 13.1481C22.0948 13.1402 22.2713 13.0291 22.3061 12.8545L22.389 12.4471L22.4184 12.2963C22.4532 12.119 22.3355 11.9497 22.1697 11.873C21.6133 11.6138 21.2843 11.0053 21.4101 10.381C21.5358 9.75661 22.0787 9.32011 22.6939 9.29365C22.8758 9.28571 23.0523 9.1746 23.0871 9L23.1994 8.44444C23.2342 8.2672 23.1165 8.09788 22.9507 8.02116C22.3943 7.7619 22.0653 7.15344 22.1911 6.5291C22.3168 5.90476 22.8597 5.46825 23.4749 5.4418C23.6568 5.43386 23.8333 5.32275 23.8681 5.14815L23.9938 4.53175C24.0286 4.3545 23.9136 4.18254 23.7344 4.14815C23.7344 4.14815 2.82079 0 2.79939 0C2.64426 0 2.50785 0.108466 2.47575 0.261905L2.35004 0.878307C2.31527 1.05556 2.43296 1.22487 2.59879 1.30159C3.15513 1.56085 3.48412 2.16931 3.35841 2.79365C3.2327 3.41799 2.68973 3.8545 2.07454 3.88095C1.89264 3.88889 1.71613 4 1.68136 4.1746L1.56902 4.73016C1.53425 4.90741 1.65194 5.07672 1.81777 5.15344C2.37411 5.4127 2.70313 6.02116 2.57739 6.6455C2.45168 7.26984 1.90871 7.70635 1.29353 7.7328C1.11165 7.74074 0.935116 7.85185 0.900344 8.02645L0.788006 8.58201C0.753235 8.75926 0.870949 8.92857 1.03675 9.00529C1.59312 9.26455 1.92211 9.87302 1.79637 10.4974C1.67066 11.1217 1.1277 11.5582 0.512511 11.5847C0.33063 11.5926 0.154099 11.7037 0.119328 11.8783L0.00698994 12.4339C-0.0304828 12.6111 0.0871779 12.7778 0.253037 12.8545ZM18.08 6.0741C18.1522 5.71696 18.5053 5.48415 18.8664 5.55558C19.2275 5.62701 19.4628 5.97622 19.3906 6.33336L18.508 10.6773L17.965 13.3545C17.9008 13.6693 17.6226 13.8863 17.3097 13.8863C17.2669 13.8863 17.2214 13.881 17.1786 13.8731C16.8175 13.8016 16.5822 13.4524 16.6544 13.0953L17.2615 10.1085L18.08 6.0741ZM6.80876 3.1614C6.44767 3.08997 6.09461 3.32278 6.02239 3.67992L4.96056 8.92598L4.70111 10.2064L4.60218 10.7011C4.53261 11.0397 4.73859 11.3704 5.07025 11.4657C5.0863 11.4709 5.10502 11.4762 5.12374 11.4789C5.16651 11.4868 5.21198 11.4921 5.25478 11.4921C5.56772 11.4921 5.84592 11.2752 5.91008 10.9603L6.40491 8.51061L6.68308 7.14024L7.02809 5.43918L7.333 3.93918C7.40522 3.58204 7.16985 3.23283 6.80876 3.1614Z" fill="black"/>
</svg>
