<svg width="24" height="25" viewBox="0 0 24 25" fill="none" xmlns="http://www.w3.org/2000/svg">
<path d="M21.1415 12.0195C21.0344 12.5574 20.5574 12.9493 19.9853 12.9736C19.8052 12.9809 19.6519 13.1124 19.6178 13.2901C19.5813 13.4677 19.6713 13.6479 19.8344 13.7233C20.3529 13.9667 20.6425 14.512 20.533 15.0499L20.4308 15.5611C20.2969 16.2353 19.552 16.6564 18.8997 16.4957C18.7172 16.4519 18.5297 16.4178 18.3448 16.3813C18.0721 16.3278 17.7995 16.2718 17.5269 16.2183C17.1666 16.1452 16.8064 16.0747 16.4462 16.0016C16.0178 15.9165 15.5869 15.8288 15.1585 15.7436C14.6791 15.6462 14.1995 15.5513 13.72 15.454C13.2089 15.3517 12.6953 15.2495 12.1841 15.1449C11.6583 15.0402 11.1326 14.9331 10.6093 14.8284C10.0884 14.7238 9.56991 14.6191 9.04899 14.5144C8.55246 14.4146 8.05589 14.3148 7.55936 14.215C7.10419 14.125 6.65145 14.0325 6.19628 13.9424C5.80196 13.8645 5.40764 13.7842 5.01575 13.7063C4.70175 13.643 4.38776 13.5798 4.07133 13.5165C3.85469 13.4726 3.63804 13.4288 3.42143 13.385C3.32161 13.3655 3.22183 13.3437 3.12204 13.3242C3.11717 13.3242 3.1123 13.3217 3.10741 13.3217C3.16096 13.5749 3.13662 13.8451 3.01978 14.0982C2.77392 14.6288 2.20191 14.9063 1.65183 14.7992C1.48875 14.7676 1.31106 14.8284 1.24047 14.9793L1.0214 15.454C0.950841 15.6049 1.0214 15.7801 1.15043 15.8848C1.17478 15.9043 18.7196 23.9927 18.7488 24C18.9119 24.0316 19.0896 23.9708 19.1601 23.8199L19.3792 23.3452C19.4498 23.1943 19.3792 23.0191 19.2502 22.9144C18.8121 22.5663 18.6514 21.9505 18.8973 21.4199C19.1431 20.8893 19.7151 20.6118 20.2652 20.7189C20.4283 20.7505 20.606 20.6897 20.6766 20.5388L20.8956 20.0641C20.9662 19.9132 20.8956 19.738 20.7666 19.6333C20.3285 19.2852 20.1678 18.6694 20.4137 18.1388C20.6595 17.6082 21.2315 17.3307 21.7816 17.4378C21.9447 17.4694 22.1224 17.4086 22.193 17.2577L22.4121 16.783C22.4826 16.6321 22.4121 16.4568 22.283 16.3522C21.8449 16.0041 21.6842 15.3883 21.9301 14.8577C22.1759 14.327 22.748 14.0496 23.298 14.1566C23.4611 14.1883 23.6388 14.1274 23.7094 13.9765L23.9503 13.4508C24.0209 13.2998 23.9552 13.1222 23.8043 13.0516L21.1828 11.8419L21.1415 12.0195Z" fill="#EB5A47"/>
<path fill-rule="evenodd" clip-rule="evenodd" d="M0.235246 11.8515C0.264455 11.8661 19.204 15.6657 19.2357 15.6657C19.4012 15.6584 19.5618 15.5562 19.5935 15.3955L19.6957 14.8844C19.7273 14.7213 19.6202 14.5655 19.4693 14.4949C18.963 14.2564 18.6636 13.6965 18.778 13.1221C18.8924 12.5476 19.3866 12.146 19.9464 12.1217C20.1119 12.1144 20.2726 12.0121 20.3042 11.8515L20.3797 11.4766L20.4065 11.3379C20.4381 11.1748 20.331 11.019 20.1801 10.9485C19.6738 10.7099 19.3744 10.1501 19.4888 9.57566C19.6032 9.00119 20.0973 8.59957 20.6572 8.57523C20.8227 8.56793 20.9833 8.46569 21.015 8.30505L21.1172 7.79389C21.1489 7.63081 21.0417 7.47502 20.8908 7.40444C20.3845 7.1659 20.0851 6.60606 20.1996 6.03162C20.314 5.45717 20.8081 5.05555 21.3679 5.03121C21.5334 5.02391 21.6941 4.92168 21.7257 4.76103L21.8401 4.19389C21.8718 4.03081 21.7671 3.87259 21.604 3.84095C21.604 3.84095 2.57198 0.0243149 2.55251 0.0243149C2.41134 0.0243149 2.2872 0.124112 2.25799 0.265289L2.14359 0.832428C2.11194 0.995512 2.21904 1.15129 2.36996 1.22188C2.87624 1.46042 3.17564 2.02026 3.06123 2.5947C2.94683 3.16914 2.45271 3.57077 1.89288 3.59511C1.72734 3.60241 1.56671 3.70464 1.53507 3.86529L1.43284 4.37644C1.40119 4.53953 1.50829 4.69531 1.65921 4.7659C2.16549 5.00444 2.46491 5.56427 2.35048 6.13872C2.23608 6.71316 1.74196 7.11478 1.18213 7.13912C1.01661 7.14642 0.85596 7.24866 0.824317 7.4093L0.722086 7.92046C0.690443 8.08354 0.797567 8.23933 0.948455 8.30991C1.45477 8.54845 1.75416 9.10829 1.63973 9.68273C1.52533 10.2572 1.03121 10.6588 0.471376 10.6832C0.305859 10.6905 0.14521 10.7927 0.113567 10.9533L0.0113354 11.4645C-0.022766 11.6276 0.0843091 11.7809 0.235246 11.8515ZM16.4584 5.61298C16.5241 5.28438 16.8454 5.07018 17.174 5.1359C17.5026 5.20162 17.7168 5.52292 17.6511 5.85152L16.8478 9.84827L16.3537 12.3116C16.2953 12.6012 16.0421 12.8008 15.7574 12.8008C15.7184 12.8008 15.677 12.796 15.6381 12.7887C15.3095 12.7229 15.0953 12.4016 15.161 12.073L15.7135 9.32497L16.4584 5.61298ZM6.20117 2.93306C5.87257 2.86734 5.55127 3.08154 5.48555 3.41014L4.51925 8.23694L4.28314 9.41503L4.1931 9.87021C4.12979 10.1817 4.31724 10.486 4.61907 10.5737C4.63367 10.5785 4.65071 10.5834 4.66775 10.5858C4.70667 10.5931 4.74805 10.598 4.78699 10.598C5.07178 10.598 5.32495 10.3984 5.38334 10.1087L5.83365 7.85476L6.08679 6.59391L6.40076 5.0288L6.67825 3.64868C6.74397 3.32008 6.52977 2.99878 6.20117 2.93306Z" fill="#EB5A47"/>
</svg>
