<svg width="25" height="23" viewBox="0 0 25 23" fill="none" xmlns="http://www.w3.org/2000/svg">
<path fill-rule="evenodd" clip-rule="evenodd" d="M10.0488 0.0167542C8.28184 0.0167542 6.84953 1.44906 6.84953 3.21582C6.84953 4.98258 8.28184 6.41489 10.0488 6.41485C11.8156 6.41485 13.248 4.98258 13.248 3.21582C13.248 1.44906 11.8156 0.0167542 10.0488 0.0167542ZM12.2439 6.72001C11.8581 7.25302 11.6183 7.89776 11.5863 8.59436C11.1599 8.40893 10.6902 8.30614 10.1968 8.30614C9.58855 8.30614 9.01592 8.46243 8.51685 8.73691C8.51285 7.98403 8.26727 7.28854 7.8567 6.71908C8.12607 6.66308 8.40554 6.63319 8.69185 6.63319H11.4062C11.6933 6.63319 11.9732 6.66331 12.2439 6.72001ZM12.1278 8.88151C13.057 9.46424 13.7087 10.4499 13.8278 11.5945C14.2065 11.7714 14.6272 11.8735 15.073 11.8735C16.7009 11.8735 18.0204 10.5539 18.0204 8.92597C18.0204 7.2979 16.7009 5.97853 15.073 5.97853C13.46 5.97858 12.1523 7.27453 12.1278 8.88151ZM13.144 11.9693C13.144 13.5967 11.8244 14.9167 10.1967 14.9167C8.56895 14.9167 7.24884 13.5967 7.24879 11.9693C7.24879 10.3416 8.56895 9.02183 10.1967 9.02183C11.8244 9.02183 13.144 10.3416 13.144 11.9693ZM11.447 15.1173H8.94623C6.86536 15.1173 5.17207 16.8105 5.17207 18.8916V21.9504L5.18003 21.9983L5.39055 22.0638C7.37649 22.684 9.10182 22.8915 10.522 22.8915C13.2953 22.8915 14.9035 22.1006 15.0026 22.05L15.1995 21.9504H15.2204V18.8916C15.2205 16.8105 13.5282 15.1173 11.447 15.1173ZM13.8419 12.0747H16.3239C18.4043 12.0747 20.0974 13.7676 20.0972 15.8482V18.9075H20.0763L19.8792 19.0077C19.7862 19.0545 18.374 19.7486 15.9239 19.8388V18.8963C15.9239 16.8702 14.5705 15.155 12.7208 14.6049C13.3911 13.9621 13.8149 13.0678 13.8419 12.0747ZM16.9874 5.91568C17.9167 6.4985 18.5682 7.48417 18.6872 8.62877C19.0658 8.80572 19.4865 8.90763 19.9323 8.90763C21.5606 8.90763 22.88 7.58817 22.88 5.96052C22.88 4.3324 21.5605 3.01308 19.9323 3.01308C18.3195 3.01289 17.0119 4.30912 16.9874 5.91568ZM18.7014 9.10884H21.183C23.2639 9.10884 24.957 10.8019 24.9568 12.8823V15.942H24.9356L24.7388 16.0418C24.6458 16.089 23.2333 16.7829 20.7834 16.8729V15.9304C20.7834 13.9043 19.4301 12.1889 17.5804 11.6391C18.2507 10.9963 18.6745 10.1019 18.7014 9.10884ZM5.025 11.8736C5.60163 11.8736 6.1378 11.7051 6.5925 11.4184C6.7371 10.4761 7.24232 9.65246 7.96373 9.0918C7.96461 9.07583 7.96565 9.05991 7.9667 9.04401C7.96927 9.00484 7.97183 8.96575 7.97183 8.92602C7.97183 7.29795 6.65196 5.97858 5.025 5.97858C3.39665 5.97858 2.07733 7.2979 2.07733 8.92602C2.07733 10.5542 3.3966 11.8736 5.025 11.8736ZM6.55135 12.0884C6.58245 13.0757 7.00484 13.9652 7.67202 14.6049C5.82188 15.1547 4.46885 16.8702 4.46862 18.8959V19.8195C3.23347 19.7479 1.81136 19.519 0.218529 19.0209L0.00772812 18.9552L0 18.9075V15.8485C0 13.7676 1.69302 12.0747 3.77416 12.0747H6.27467C6.36724 12.0747 6.45717 12.0814 6.5477 12.0881L6.55135 12.0884Z" fill="#EB5A47"/>
</svg>
