<svg width="26" height="25" viewBox="0 0 26 25" fill="none" xmlns="http://www.w3.org/2000/svg">
<path fill-rule="evenodd" clip-rule="evenodd" d="M10.4691 0C8.62829 0 7.13611 1.51381 7.13611 3.3811C7.13611 5.24839 8.62829 6.7622 10.4691 6.76215C12.3098 6.76215 13.8021 5.24839 13.8021 3.3811C13.8021 1.51381 12.3098 0 10.4691 0ZM12.7555 7.08467C12.3536 7.64801 12.1037 8.32943 12.0703 9.06567C11.6261 8.86969 11.1368 8.76105 10.6228 8.76105C9.9891 8.76105 9.39254 8.92623 8.87261 9.21633C8.86844 8.42061 8.61259 7.68555 8.18486 7.08369C8.46549 7.0245 8.75664 6.99291 9.05492 6.99291H11.8827C12.1819 6.99291 12.4734 7.02474 12.7555 7.08467ZM12.6351 9.36917C13.6032 9.98505 14.282 11.0267 14.4062 12.2365C14.8006 12.4235 15.239 12.5314 15.7034 12.5314C17.3994 12.5314 18.774 11.1367 18.774 9.41616C18.774 7.69545 17.3994 6.301 15.7034 6.301C14.0229 6.30105 12.6606 7.67074 12.6351 9.36917ZM13.6932 12.6326C13.6932 14.3527 12.3184 15.7478 10.6227 15.7478C8.92688 15.7478 7.55159 14.3527 7.55154 12.6326C7.55154 10.9123 8.92688 9.51748 10.6227 9.51748C12.3184 9.51748 13.6932 10.9124 13.6932 12.6326ZM11.9252 15.9598H9.31983C7.15198 15.9598 5.3879 17.7493 5.3879 19.9489V23.1817L5.3962 23.2323L5.61552 23.3015C7.68447 23.9571 9.48192 24.1763 10.9615 24.1763C13.8508 24.1763 15.5261 23.3405 15.6293 23.287L15.8345 23.1817H15.8563V19.9488C15.8564 17.7493 14.0933 15.9598 11.9252 15.9598ZM14.4202 12.744H17.006C19.1733 12.744 20.9373 14.5333 20.937 16.7322V19.9657H20.9152L20.71 20.0716C20.613 20.121 19.1418 20.8546 16.5893 20.9499V19.9538C16.5893 17.8124 15.1793 15.9996 13.2523 15.4183C13.9506 14.7388 14.3922 13.7936 14.4202 12.744ZM17.6974 6.23459C18.6655 6.85057 19.3444 7.89232 19.4682 9.10205C19.8627 9.28907 20.301 9.39678 20.7654 9.39678C22.4618 9.39678 23.8363 8.00224 23.8363 6.28197C23.8363 4.56121 22.4617 3.16682 20.7654 3.16682C19.0852 3.16663 17.723 4.53661 17.6974 6.23459ZM19.4834 9.60944H22.0686C24.2365 9.60944 26.0005 11.3988 26.0002 13.5976V16.8314H25.9781L25.7731 16.9369C25.6762 16.9867 24.2047 17.7202 21.6524 17.8153V16.8192C21.6524 14.6778 20.2425 12.8648 18.3155 12.2836C19.0138 11.6043 19.4553 10.6591 19.4834 9.60944ZM5.23538 12.5315C5.83611 12.5315 6.3947 12.3534 6.86841 12.0504C7.01905 11.0545 7.54539 10.184 8.29696 9.59142C8.29787 9.57456 8.29896 9.55775 8.30004 9.54096L8.30005 9.5409C8.30272 9.49951 8.3054 9.4582 8.3054 9.41621C8.3054 7.6955 6.93034 6.30106 5.23538 6.30106C3.53896 6.30106 2.16449 7.69545 2.16449 9.41621C2.16449 11.137 3.53891 12.5315 5.23538 12.5315ZM6.82521 12.7585C6.85761 13.8021 7.29766 14.7421 7.99273 15.4183C6.06525 15.9993 4.65566 17.8124 4.65542 19.9534V20.9295C3.36864 20.8539 1.88708 20.6119 0.227664 20.0855L0.00805117 20.016L0 19.9657V16.7325C0 14.5333 1.76379 12.744 3.93193 12.744H6.53697C6.6334 12.744 6.72709 12.7511 6.8214 12.7582L6.82521 12.7585Z" fill="black"/>
</svg>
