<svg width="33" height="33" viewBox="0 0 33 33" fill="none" xmlns="http://www.w3.org/2000/svg">
<path fill-rule="evenodd" clip-rule="evenodd" d="M31.4032 15.4355C32.2836 15.4355 33 16.1519 33 17.0323C33 17.7253 32.5534 18.3107 31.9355 18.5311V26.6129H28.7419V27.7312C29.955 27.9787 30.871 29.0538 30.871 30.3387C30.871 31.8061 29.6771 33 28.2097 33C26.7422 33 25.5484 31.8061 25.5484 30.3387C25.5484 29.0533 26.4644 27.9787 27.6774 27.7312V26.6129H12.7742C12.7742 30.1349 9.90905 33 6.3871 33C2.86515 33 0 30.1349 0 26.6129C0 23.2703 2.58198 20.5249 5.85484 20.253V18.5311C5.23689 18.3107 4.79032 17.7253 4.79032 17.0323C4.79032 16.5671 4.99365 16.1519 5.3114 15.8602C5.25924 14.8362 4.48534 14.008 3.48629 13.8685C3.1169 14.1772 2.64745 14.371 2.12903 14.371C0.954871 14.371 0 13.4161 0 12.2419C0 11.0678 0.954871 10.1129 2.12903 10.1129C2.66395 10.1129 3.14777 10.3178 3.52248 10.6452H3.72581C6.36687 10.6452 8.51613 12.7939 8.51613 15.4355V2.66129C8.51613 1.19385 9.70998 0 11.1774 0C12.0509 0 12.821 0.429 13.3065 1.08102C13.7919 0.429 14.562 0 15.4355 0C16.3089 0 17.0791 0.429 17.5645 1.08102C18.0499 0.429 18.8201 0 19.6935 0C20.567 0 21.3372 0.429 21.8226 1.08102C22.308 0.429 23.0782 0 23.9516 0C24.825 0 25.5952 0.429 26.0806 1.08102C26.5661 0.429 27.3362 0 28.2097 0C29.6771 0 30.871 1.19385 30.871 2.66129V15.4355H31.4032ZM28.2097 31.9355C29.09 31.9355 29.8065 31.2191 29.8065 30.3387C29.8065 29.6457 29.3599 29.0602 28.7419 28.8399V30.3387H27.6774V28.8399C27.0595 29.0602 26.6129 29.6457 26.6129 30.3387C26.6129 31.2191 27.3293 31.9355 28.2097 31.9355ZM28.7419 15.4355V5.32258H29.8065V15.4355H28.7419ZM17.103 12.2419L17.5022 15.4355H19.7558L20.155 12.2419H17.103ZM22.8248 15.4355L22.4256 12.2419H25.4776L25.0784 15.4355H22.8248ZM23.8558 8.51613L24.3881 11.1774H26.6837L26.1514 15.4355H27.6774V5.32258H11.7097V15.4355H16.4292L15.897 11.1774H17.9797L17.6603 9.58065H16.5V8.51613H18.5332L19.0655 11.1774H21.2195H21.3611H23.3023L22.9829 9.58065H21.8226V8.51613H23.8558ZM21.7518 15.4355H20.8283L21.2903 11.7427L21.7518 15.4355ZM29.8065 2.66129C29.8065 1.78094 29.09 1.06452 28.2097 1.06452C27.3293 1.06452 26.6129 1.78094 26.6129 2.66129V4.25806H29.8065V2.66129ZM23.9516 1.06452C24.832 1.06452 25.5484 1.78094 25.5484 2.66129V4.25806H22.3548V2.66129C22.3548 1.78094 23.0713 1.06452 23.9516 1.06452ZM21.2903 2.66129C21.2903 1.78094 20.5739 1.06452 19.6936 1.06452C18.8132 1.06452 18.0968 1.78094 18.0968 2.66129V4.25806H21.2903V2.66129ZM15.4355 1.06452C16.3158 1.06452 17.0323 1.78094 17.0323 2.66129V4.25806H13.8387V2.66129C13.8387 1.78094 14.5551 1.06452 15.4355 1.06452ZM12.7742 2.66129C12.7742 1.78094 12.0578 1.06452 11.1774 1.06452C10.2971 1.06452 9.58065 1.78094 9.58065 2.66129V4.25806H12.7742V2.66129ZM9.58065 5.32258H10.6452V15.4355H9.58065V5.32258ZM1.06452 12.2419C1.06452 12.829 1.54195 13.3065 2.12903 13.3065C2.71611 13.3065 3.19355 12.829 3.19355 12.2419C3.19355 11.6549 2.71611 11.1774 2.12903 11.1774C1.54195 11.1774 1.06452 11.6549 1.06452 12.2419ZM4.13831 12.9168C4.21016 12.7034 4.25806 12.4793 4.25806 12.2419C4.25806 12.069 4.23145 11.9034 4.1926 11.7421C6.02729 11.9731 7.45161 13.5396 7.45161 15.4355H6.3871C6.37859 15.4355 6.37024 15.4367 6.36187 15.4379C6.35453 15.439 6.34719 15.44 6.33973 15.4403C6.1396 14.2438 5.27574 13.2697 4.13831 12.9168ZM1.06452 26.6129C1.06452 29.5478 3.45223 31.9355 6.3871 31.9355C9.32197 31.9355 11.7097 29.5478 11.7097 26.6129C11.7097 23.678 9.32197 21.2903 6.3871 21.2903C3.45223 21.2903 1.06452 23.678 1.06452 26.6129ZM12.6779 25.5484C12.1978 22.704 9.83613 20.4951 6.91935 20.253V18.629H30.871V25.5484H12.6779ZM6.3871 17.5645H31.4032C31.6965 17.5645 31.9355 17.3261 31.9355 17.0323C31.9355 16.7385 31.6965 16.5 31.4032 16.5H6.3871C6.09382 16.5 5.85484 16.7385 5.85484 17.0323C5.85484 17.3261 6.09382 17.5645 6.3871 17.5645Z" fill="white"/>
</svg>
