<svg width="25" height="27" viewBox="0 0 25 27" fill="none" xmlns="http://www.w3.org/2000/svg">
<path d="M23.7136 23.5502H23.1848V10.5272H23.1843C22.5347 10.5272 21.9196 10.3152 21.4077 9.95813C21.0631 10.2005 20.6663 10.3796 20.2274 10.4671C20.026 10.5072 19.8213 10.5272 19.6187 10.5272C19.4843 10.5272 19.3529 10.5123 19.2224 10.4952V20.1825C19.2224 20.7353 18.7741 21.1836 18.2209 21.1836H14.6228V18.44L15.8914 20.5571C16.0411 20.8074 16.3064 20.9461 16.5786 20.9461C16.7181 20.9461 16.8602 20.9094 16.989 20.8322C17.3678 20.6048 17.4911 20.1138 17.2636 19.7346L14.7137 15.4783C14.5559 15.2143 14.2692 15.0838 13.9821 15.1C13.963 15.0982 11.0277 15.0978 11.0098 15.0991C10.7189 15.0791 10.428 15.2109 10.2676 15.4783L7.71757 19.7346C7.49021 20.1138 7.61343 20.6048 7.99225 20.8322C8.12112 20.9094 8.26317 20.9461 8.40268 20.9461C8.67483 20.9461 8.94015 20.8074 9.08989 20.5571L10.3666 18.4264V21.1836H6.76085C6.20757 21.1836 5.75929 20.7354 5.75929 20.1825V10.4952C5.62881 10.5123 5.49736 10.5272 5.363 10.5272C5.16166 10.5272 4.95688 10.5072 4.7522 10.4667C4.31365 10.3793 3.91779 10.2005 3.57354 9.95813C3.06171 10.3152 2.44704 10.5272 1.79731 10.5272H1.79688V23.5502H1.268C0.575692 23.5502 0.0147247 24.1111 0.0147247 24.8035C0.0147247 25.4958 0.575692 26.0568 1.268 26.0568H23.7138C24.4062 26.0568 24.9671 25.4958 24.9671 24.8035C24.9669 24.1111 24.406 23.5502 23.7136 23.5502Z" fill="#EB5A47"/>
<path d="M12.4904 10.6035C11.5702 10.6035 10.8233 11.4571 10.8233 12.5108C10.8233 13.5635 11.5702 14.4179 12.4904 14.4179C13.4113 14.4179 14.1578 13.5635 14.1578 12.5108C14.1578 11.4571 13.4113 10.6035 12.4904 10.6035Z" fill="#EB5A47"/>
<path d="M1.28699 9.11575C1.45726 9.16607 1.62871 9.19032 1.79807 9.19032C2.565 9.19032 3.27403 8.69086 3.50473 7.91796L3.59855 7.60441C3.68258 8.35565 4.23285 9.00054 5.0135 9.15586C5.13075 9.1793 5.24807 9.19038 5.36328 9.19038C6.19635 9.19038 6.9407 8.60349 7.10963 7.75586L7.15312 7.5379C7.21457 8.38629 7.87403 9.09446 8.7493 9.18145C8.80952 9.18737 8.8692 9.18995 8.9285 9.18995C9.83285 9.18995 10.6079 8.50409 10.6996 7.58441L10.7129 7.45215C10.7372 8.41575 11.5217 9.18995 12.4908 9.18995C13.4599 9.18995 14.2444 8.41575 14.2687 7.45215L14.2819 7.58441C14.3737 8.50409 15.1487 9.18995 16.0531 9.18995C16.1124 9.18995 16.172 9.18742 16.2322 9.18145C17.1075 9.09446 17.7674 8.38629 17.8284 7.5379L17.8719 7.75586C18.0409 8.60387 18.7852 9.19038 19.6182 9.19038C19.7334 9.19038 19.8508 9.1793 19.968 9.15586C20.7487 9.00054 21.2994 8.35565 21.383 7.60441L21.4768 7.91796C21.7075 8.69091 22.4165 9.19032 23.1834 9.19032C23.3527 9.19032 23.5243 9.16602 23.6945 9.11575C24.638 8.83371 25.1738 7.8407 24.8923 6.89801L23.2837 1.51387C23.0154 0.615538 22.1891 0 21.2516 0H3.72995C2.79237 0 1.96613 0.615538 1.69785 1.51387L0.0891959 6.89801C-0.192309 7.8407 0.343497 8.83371 1.28699 9.11575Z" fill="#EB5A47"/>
</svg>
